<?xml version="1.0" encoding="UTF-8" standalone="no"?>
<!-- Created with Inkscape (http://www.inkscape.org/) -->

<svg
   xmlns:dc="http://purl.org/dc/elements/1.1/"
   xmlns:cc="http://creativecommons.org/ns#"
   xmlns:rdf="http://www.w3.org/1999/02/22-rdf-syntax-ns#"
   xmlns:svg="http://www.w3.org/2000/svg"
   xmlns="http://www.w3.org/2000/svg"
   xmlns:sodipodi="http://sodipodi.sourceforge.net/DTD/sodipodi-0.dtd"
   xmlns:inkscape="http://www.inkscape.org/namespaces/inkscape"
   id="svg2"
   version="1.1"
   inkscape:version="0.48.5 r10040"
   width="80"
   height="70"
   xml:space="preserve"
   sodipodi:docname="IOC Logo.svg.svg"><metadata
     id="metadata8"><rdf:RDF><cc:Work
         rdf:about=""><dc:format>image/svg+xml</dc:format><dc:type
           rdf:resource="http://purl.org/dc/dcmitype/StillImage" /><dc:title /></cc:Work></rdf:RDF></metadata><defs
     id="defs6"><clipPath
       clipPathUnits="userSpaceOnUse"
       id="clipPath40"><path
         d="m 363.01,432.498 62.187,0 0,52.227 -62.187,0 0,-52.227 z"
         id="path42"
         inkscape:connector-curvature="0" /></clipPath></defs><sodipodi:namedview
     pagecolor="#ffffff"
     bordercolor="#666666"
     borderopacity="1"
     objecttolerance="10"
     gridtolerance="10"
     guidetolerance="10"
     inkscape:pageopacity="0"
     inkscape:pageshadow="2"
     inkscape:window-width="1280"
     inkscape:window-height="669"
     id="namedview4"
     showgrid="false"
     fit-margin-top="0"
     fit-margin-left="0"
     fit-margin-right="0"
     fit-margin-bottom="0"
     inkscape:zoom="6.0207443"
     inkscape:cx="6.8035042"
     inkscape:cy="38.22322"
     inkscape:window-x="0"
     inkscape:window-y="1"
     inkscape:window-maximized="1"
     inkscape:current-layer="g10"
     inkscape:snap-object-midpoints="true"
     inkscape:snap-center="true"
     inkscape:snap-page="false"
     inkscape:object-paths="true"
     inkscape:object-nodes="true" /><g
     id="g10"
     inkscape:groupmode="layer"
     inkscape:label="olympic_charter_en"
     transform="matrix(1.25,0,0,-1.25,-453.7863,610.62249)"><g
       id="g36"
       transform="translate(0.96381546,1.8647542)"><g
         id="g38"
         clip-path="url(#clipPath40)"><g
           id="g44"
           transform="translate(364.9452,451.0808)"><path
             d="m 0,0 c 0.039,0 0.062,-0.216 0.023,-0.216 -0.455,-0.03 -0.578,-0.116 -0.601,-0.316 -0.031,-0.254 -0.031,-0.941 -0.031,-1.473 0,-0.509 0.016,-1.279 0.039,-1.534 0.023,-0.201 0.185,-0.301 0.616,-0.332 0.039,0 0.016,-0.215 -0.023,-0.215 -0.269,0.007 -0.663,0.023 -0.956,0.023 -0.486,0 -0.671,-0.016 -0.94,-0.023 -0.039,0 -0.062,0.215 -0.023,0.215 0.431,0.031 0.593,0.131 0.616,0.332 0.023,0.255 0.039,1.025 0.039,1.534 0,0.532 -0.016,1.211 -0.046,1.465 -0.024,0.201 -0.132,0.294 -0.586,0.324 -0.039,0 -0.016,0.216 0.023,0.216 0.27,-0.008 0.624,-0.015 0.917,-0.015 0.293,0 0.663,0.007 0.933,0.015"
             style="fill:#706d6e;fill-opacity:1;fill-rule:nonzero;stroke:none"
             id="path46"
             inkscape:connector-curvature="0" /></g><g
           id="g48"
           transform="translate(370.04,448.1662)"><path
             d="m 0,0 0,0.941 c 0,0.663 -0.015,0.933 -0.054,1.357 -0.023,0.216 -0.131,0.393 -0.609,0.409 -0.047,0 -0.023,0.208 0.023,0.208 l 1.712,0 C 1.126,2.915 1.148,2.707 1.103,2.707 0.563,2.676 0.463,2.49 0.416,2.128 0.378,1.82 0.37,1.573 0.37,0.941 c 0,-0.617 0.008,-1.234 0.046,-2.02 0,-0.085 -0.115,-0.132 -0.177,-0.062 -0.763,0.817 -2.321,2.421 -3.146,3.331 l 0,-1.38 c 0,-0.664 0.016,-0.933 0.055,-1.357 0.022,-0.216 0.13,-0.394 0.608,-0.409 0.047,0 0.023,-0.208 -0.023,-0.208 l -1.712,0 c -0.053,0 -0.076,0.208 -0.031,0.208 0.54,0.031 0.641,0.216 0.687,0.578 0.039,0.309 0.046,0.556 0.046,1.188 0,0.617 -0.007,1.226 -0.054,1.557 -0.031,0.247 -0.185,0.347 -0.624,0.331 -0.062,0 -0.1,0.217 0.03,0.217 l 1.088,0 c 0.123,0 0.169,-0.032 0.223,-0.116 0.031,-0.047 0.046,-0.077 0.093,-0.123 L 0,0 z"
             style="fill:#706d6e;fill-opacity:1;fill-rule:nonzero;stroke:none"
             id="path50"
             inkscape:connector-curvature="0" /></g><g
           id="g52"
           transform="translate(374.9919,447.2102)"><path
             d="m 0,0 c 0.038,0 0.031,-0.216 -0.008,-0.216 -0.27,0.008 -0.678,0.024 -0.971,0.024 -0.486,0 -0.694,-0.016 -0.964,-0.024 -0.039,0 -0.039,0.216 0,0.216 0.431,0.031 0.594,0.131 0.617,0.332 0.023,0.254 0.038,0.894 0.038,1.55 l 0,1.703 c -0.224,0 -0.378,0 -0.571,-0.015 -0.778,-0.046 -0.84,-0.092 -0.94,-0.547 -0.007,-0.031 -0.177,-0.039 -0.177,0.03 0.007,0.062 0.007,0.186 0.007,0.285 l 0,0.463 c 0,0.077 0,0.077 0.108,0.077 l 0.124,0 c 0.308,0 1.002,-0.015 1.233,-0.015 l 2.151,0 c 0.124,0 0.178,0.046 0.193,0.108 0.008,0.039 0.216,0.023 0.216,-0.039 l 0,-0.84 C 1.064,3.03 0.871,3.045 0.863,3.069 0.786,3.47 0.624,3.539 -0.131,3.585 c -0.131,0 -0.301,0.008 -0.532,0.008 -0.008,-0.478 0.007,-1.203 0.007,-1.735 0,-0.509 0.016,-1.272 0.039,-1.526 C -0.594,0.131 -0.432,0.031 0,0"
             style="fill:#706d6e;fill-opacity:1;fill-rule:nonzero;stroke:none"
             id="path54"
             inkscape:connector-curvature="0" /></g><g
           id="g56"
           transform="translate(377.0911,447.2178)"><path
             d="M 0,0 C 0.432,0.031 0.571,0.131 0.594,0.332 0.617,0.586 0.632,1.349 0.632,1.858 0.632,2.39 0.617,3.077 0.586,3.331 0.563,3.531 0.455,3.601 0,3.632 c -0.038,0 0,0.216 0.039,0.216 l 2.852,0 c 0.116,0 0.178,0.007 0.193,0.062 0.023,0.069 0.154,0.084 0.154,-0.055 l 0,-0.663 C 3.262,3.077 3.099,3.077 3.084,3.131 3.015,3.485 2.822,3.516 2.082,3.554 l -0.787,0 C 1.295,3.554 1.28,3.516 1.28,3.439 1.272,3.184 1.257,2.607 1.257,2.09 l 0.061,0 c 0.548,0 0.879,0 0.995,0.007 0.262,0.031 0.324,0.108 0.347,0.178 0.038,0.061 0.162,0.054 0.162,-0.054 0,0 -0.008,-0.316 -0.008,-0.363 C 2.814,1.666 2.822,1.566 2.83,1.434 2.83,1.319 2.698,1.326 2.675,1.388 2.614,1.719 2.521,1.712 1.573,1.758 1.473,1.766 1.257,1.766 1.257,1.766 c 0,-0.54 0.03,-1.11 0.084,-1.365 0.047,-0.2 0.394,-0.308 0.694,-0.308 0.039,0 0.293,-0.008 0.432,-0.008 0.625,0 0.748,0.139 0.84,0.601 C 3.323,0.725 3.477,0.702 3.485,0.663 3.454,0.447 3.439,0.085 3.439,-0.116 c 0,-0.092 0,-0.1 -0.155,-0.1 l -3.268,0 C -0.023,-0.216 -0.038,0 0,0"
             style="fill:#706d6e;fill-opacity:1;fill-rule:nonzero;stroke:none"
             id="path58"
             inkscape:connector-curvature="0" /></g><g
           id="g60"
           transform="translate(384.1535,448.945)"><path
             d="M 0,0 C 0.239,-0.3 0.818,-1.01 0.925,-1.118 1.226,-1.449 1.604,-1.681 1.92,-1.781 1.936,-1.796 1.951,-1.974 1.805,-1.966 1.187,-1.935 0.771,-1.735 0.37,-1.388 0.139,-1.187 -0.763,0.039 -0.763,0.039 l 0.023,0.123 c 0.694,-0.046 1.211,0.216 1.211,0.817 0,0.501 -0.324,0.848 -0.956,0.848 l -0.201,0 C -0.81,1.827 -0.994,1.82 -1.079,1.789 -1.126,1.774 -1.179,1.673 -1.187,1.488 -1.195,1.288 -1.21,0.848 -1.21,0.147 c 0,-0.571 0.023,-1.319 0.077,-1.573 0.046,-0.201 0.131,-0.286 0.648,-0.316 0.046,0 0.054,-0.216 0,-0.216 -0.271,0 -0.787,0.023 -1.019,0.023 -0.292,0 -0.693,-0.023 -0.963,-0.023 -0.039,0 -0.054,0.216 -0.016,0.216 0.432,0.03 0.594,0.154 0.617,0.354 0.024,0.255 0.039,1.01 0.039,1.519 0,0.532 -0.015,1.218 -0.046,1.473 -0.023,0.2 -0.132,0.293 -0.587,0.324 -0.038,0 -0.007,0.215 0.031,0.215 0.27,-0.007 0.663,-0.022 0.887,-0.022 0.347,0 0.84,0.022 1.095,0.022 1.118,0 1.735,-0.385 1.735,-1.017 C 1.288,0.532 0.864,0.208 0,0"
             style="fill:#706d6e;fill-opacity:1;fill-rule:nonzero;stroke:none"
             id="path62"
             inkscape:connector-curvature="0" /></g><g
           id="g64"
           transform="translate(390.8923,448.1662)"><path
             d="m 0,0 0,0.941 c 0,0.663 -0.015,0.933 -0.054,1.357 -0.023,0.216 -0.131,0.393 -0.609,0.409 -0.046,0 -0.023,0.208 0.023,0.208 l 1.712,0 C 1.126,2.915 1.149,2.707 1.103,2.707 0.563,2.676 0.463,2.49 0.417,2.128 0.378,1.82 0.37,1.573 0.37,0.941 c 0,-0.617 0.008,-1.234 0.047,-2.02 0,-0.085 -0.116,-0.132 -0.178,-0.062 -0.763,0.817 -2.321,2.421 -3.145,3.331 l 0,-1.38 c 0,-0.664 0.015,-0.933 0.054,-1.357 0.022,-0.216 0.13,-0.394 0.609,-0.409 0.046,0 0.022,-0.208 -0.024,-0.208 l -1.711,0 c -0.054,0 -0.077,0.208 -0.031,0.208 0.539,0.031 0.64,0.216 0.686,0.578 0.039,0.309 0.046,0.556 0.046,1.188 0,0.617 -0.007,1.226 -0.054,1.557 -0.031,0.247 -0.185,0.347 -0.624,0.331 -0.062,0 -0.1,0.217 0.03,0.217 l 1.088,0 c 0.123,0 0.169,-0.032 0.223,-0.116 0.031,-0.047 0.047,-0.077 0.093,-0.123 L 0,0 z"
             style="fill:#706d6e;fill-opacity:1;fill-rule:nonzero;stroke:none"
             id="path66"
             inkscape:connector-curvature="0" /></g><g
           id="g68"
           transform="translate(393.8915,448.6368)"><path
             d="M 0,0 C 0.285,0 0.856,-0.008 1.334,-0.008 L 0.679,1.619 0,0 z m 0.972,2.382 c 0.354,-0.786 1.403,-3.215 1.55,-3.454 0.13,-0.216 0.493,-0.316 0.786,-0.347 0.038,0 0.031,-0.215 -0.008,-0.215 -0.709,0 -1.303,0 -1.318,0.015 l -0.54,1.334 c -0.47,-0.008 -1.211,-0.024 -1.573,-0.024 -0.123,-0.308 -0.239,-0.593 -0.332,-0.839 -0.061,-0.156 0.455,-0.279 0.61,-0.286 0.062,0 0.023,-0.2 -0.039,-0.2 l -1.681,0 c -0.061,0 -0.061,0.2 -0.015,0.207 0.393,0.07 0.64,0.17 0.771,0.463 0.493,1.118 1.172,2.429 1.55,3.346 0.069,0.178 0.161,0.178 0.239,0"
             style="fill:#706d6e;fill-opacity:1;fill-rule:nonzero;stroke:none"
             id="path70"
             inkscape:connector-curvature="0" /></g><g
           id="g72"
           transform="translate(400.4062,447.2102)"><path
             d="m 0,0 c 0.039,0 0.031,-0.216 -0.008,-0.216 -0.269,0.008 -0.678,0.024 -0.971,0.024 -0.485,0 -0.694,-0.016 -0.963,-0.024 -0.039,0 -0.039,0.216 0,0.216 0.431,0.031 0.593,0.131 0.616,0.332 0.023,0.254 0.038,0.894 0.038,1.55 l 0,1.703 c -0.223,0 -0.377,0 -0.57,-0.015 -0.778,-0.046 -0.84,-0.092 -0.94,-0.547 -0.008,-0.031 -0.178,-0.039 -0.178,0.03 0.008,0.062 0.008,0.186 0.008,0.285 l 0,0.463 c 0,0.077 0,0.077 0.108,0.077 l 0.124,0 c 0.308,0 1.002,-0.015 1.233,-0.015 l 2.15,0 c 0.124,0 0.178,0.046 0.194,0.108 0.007,0.039 0.216,0.023 0.216,-0.039 l 0,-0.84 C 1.064,3.03 0.871,3.045 0.864,3.069 0.786,3.47 0.625,3.539 -0.131,3.585 c -0.131,0 -0.301,0.008 -0.532,0.008 -0.008,-0.478 0.008,-1.203 0.008,-1.735 0,-0.509 0.015,-1.272 0.038,-1.526 C -0.593,0.131 -0.432,0.031 0,0"
             style="fill:#706d6e;fill-opacity:1;fill-rule:nonzero;stroke:none"
             id="path74"
             inkscape:connector-curvature="0" /></g><g
           id="g76"
           transform="translate(404.4543,451.0808)"><path
             d="m 0,0 c 0.039,0 0.062,-0.216 0.023,-0.216 -0.455,-0.03 -0.578,-0.116 -0.601,-0.316 -0.031,-0.254 -0.031,-0.941 -0.031,-1.473 0,-0.509 0.016,-1.279 0.038,-1.534 0.024,-0.201 0.185,-0.301 0.617,-0.332 0.039,0 0.016,-0.215 -0.023,-0.215 -0.269,0.007 -0.663,0.023 -0.956,0.023 -0.486,0 -0.671,-0.016 -0.941,-0.023 -0.038,0 -0.061,0.215 -0.022,0.215 0.431,0.031 0.593,0.131 0.616,0.332 0.023,0.255 0.039,1.025 0.039,1.534 0,0.532 -0.016,1.211 -0.047,1.465 -0.023,0.201 -0.131,0.294 -0.586,0.324 -0.038,0 -0.015,0.216 0.024,0.216 0.27,-0.008 0.624,-0.015 0.917,-0.015 0.293,0 0.663,0.007 0.933,0.015"
             style="fill:#706d6e;fill-opacity:1;fill-rule:nonzero;stroke:none"
             id="path78"
             inkscape:connector-curvature="0" /></g><g
           id="g80"
           transform="translate(407.6509,450.888)"><path
             d="m 0,0 c -0.856,0 -1.527,-0.848 -1.527,-1.789 0,-1.102 0.641,-1.889 1.689,-1.889 0.825,0 1.526,0.872 1.526,1.773 C 1.688,-0.825 1.01,0 0,0 m 0.085,0.262 c 1.419,0 2.344,-0.894 2.344,-2.035 0,-1.157 -1.003,-2.174 -2.367,-2.174 -1.381,0 -2.329,0.917 -2.329,2.051 0,1.171 0.987,2.158 2.352,2.158"
             style="fill:#706d6e;fill-opacity:1;fill-rule:nonzero;stroke:none"
             id="path82"
             inkscape:connector-curvature="0" /></g><g
           id="g84"
           transform="translate(414.7957,448.1662)"><path
             d="m 0,0 0,0.941 c 0,0.663 -0.016,0.933 -0.054,1.357 -0.023,0.216 -0.131,0.393 -0.609,0.409 -0.046,0 -0.022,0.208 0.024,0.208 l 1.711,0 C 1.126,2.915 1.148,2.707 1.103,2.707 0.563,2.676 0.463,2.49 0.416,2.128 0.378,1.82 0.37,1.573 0.37,0.941 c 0,-0.617 0.008,-1.234 0.046,-2.02 0,-0.085 -0.115,-0.132 -0.177,-0.062 -0.763,0.817 -2.32,2.421 -3.145,3.331 l 0,-1.38 c 0,-0.664 0.015,-0.933 0.054,-1.357 0.023,-0.216 0.131,-0.394 0.609,-0.409 0.047,0 0.023,-0.208 -0.023,-0.208 l -1.712,0 c -0.054,0 -0.077,0.208 -0.031,0.208 0.54,0.031 0.64,0.216 0.687,0.578 0.038,0.309 0.046,0.556 0.046,1.188 0,0.617 -0.008,1.226 -0.054,1.557 -0.031,0.247 -0.185,0.347 -0.625,0.331 -0.062,0 -0.1,0.217 0.031,0.217 l 1.087,0 c 0.124,0 0.17,-0.032 0.224,-0.116 0.031,-0.047 0.046,-0.077 0.092,-0.123 L 0,0 z"
             style="fill:#706d6e;fill-opacity:1;fill-rule:nonzero;stroke:none"
             id="path86"
             inkscape:connector-curvature="0" /></g><g
           id="g88"
           transform="translate(417.7949,448.6368)"><path
             d="M 0,0 C 0.285,0 0.856,-0.008 1.334,-0.008 L 0.678,1.619 0,0 z m 0.971,2.382 c 0.355,-0.786 1.404,-3.215 1.55,-3.454 0.131,-0.216 0.494,-0.316 0.787,-0.347 0.038,0 0.03,-0.215 -0.008,-0.215 -0.709,0 -1.303,0 -1.319,0.015 l -0.54,1.334 c -0.47,-0.008 -1.21,-0.024 -1.572,-0.024 -0.124,-0.308 -0.239,-0.593 -0.332,-0.839 -0.062,-0.156 0.455,-0.279 0.609,-0.286 0.062,0 0.024,-0.2 -0.038,-0.2 l -1.681,0 c -0.062,0 -0.062,0.2 -0.015,0.207 0.393,0.07 0.64,0.17 0.771,0.463 0.493,1.118 1.172,2.429 1.549,3.346 0.07,0.178 0.162,0.178 0.239,0"
             style="fill:#706d6e;fill-opacity:1;fill-rule:nonzero;stroke:none"
             id="path90"
             inkscape:connector-curvature="0" /></g><g
           id="g92"
           transform="translate(422.7913,447.0023)"><path
             d="m 0,0 c -0.355,0 -0.725,0 -0.995,-0.008 -0.038,0 -0.046,0.216 -0.008,0.216 0.432,0.031 0.594,0.131 0.617,0.331 0.023,0.255 0.039,1.026 0.039,1.535 0,0.532 -0.016,1.218 -0.046,1.472 -0.024,0.201 -0.132,0.294 -0.586,0.325 -0.039,0 -0.024,0.215 0.015,0.215 0.27,-0.007 0.625,-0.023 0.918,-0.023 0.231,0 0.678,0.016 0.948,0.023 0.038,0 0.054,-0.215 0.016,-0.215 C 0.463,3.84 0.339,3.747 0.316,3.546 0.285,3.292 0.277,2.791 0.277,2.089 0.277,1.519 0.3,1.01 0.316,0.802 0.362,0.416 0.37,0.301 0.74,0.301 c 0.092,0 0.231,0.007 0.347,0.015 L 1.311,0.331 C 2.035,0.378 2.097,0.57 2.189,1.033 2.205,1.095 2.405,1.048 2.398,0.979 2.367,0.771 2.336,0.416 2.336,0.208 l 0,-0.085 C 2.336,0.023 2.29,0 2.167,0 L 0,0 z"
             style="fill:#706d6e;fill-opacity:1;fill-rule:nonzero;stroke:none"
             id="path94"
             inkscape:connector-curvature="0" /></g><g
           id="g96"
           transform="translate(379.091,443.6929)"><path
             d="m 0,0 c -0.856,0 -1.527,-0.848 -1.527,-1.789 0,-1.102 0.641,-1.889 1.689,-1.889 0.825,0 1.526,0.871 1.526,1.773 C 1.688,-0.825 1.01,0 0,0 m 0.085,0.262 c 1.419,0 2.344,-0.894 2.344,-2.035 0,-1.157 -1.002,-2.175 -2.367,-2.175 -1.38,0 -2.329,0.918 -2.329,2.051 0,1.172 0.987,2.159 2.352,2.159"
             style="fill:#706d6e;fill-opacity:1;fill-rule:nonzero;stroke:none"
             id="path98"
             inkscape:connector-curvature="0" /></g><g
           id="g100"
           transform="translate(383.3781,439.8069)"><path
             d="m 0,0 c -0.355,0 -0.725,0 -0.995,-0.008 -0.038,0 -0.046,0.216 -0.008,0.216 0.432,0.031 0.594,0.131 0.617,0.331 0.023,0.255 0.039,1.026 0.039,1.535 0,0.532 -0.016,1.218 -0.046,1.472 -0.024,0.201 -0.132,0.294 -0.586,0.325 -0.039,0 -0.024,0.215 0.015,0.215 0.27,-0.007 0.625,-0.023 0.918,-0.023 0.231,0 0.678,0.016 0.948,0.023 0.038,0 0.054,-0.215 0.015,-0.215 C 0.463,3.84 0.339,3.747 0.316,3.546 0.285,3.292 0.277,2.791 0.277,2.089 0.277,1.519 0.301,1.01 0.316,0.801 0.362,0.416 0.37,0.3 0.74,0.3 0.832,0.3 0.971,0.308 1.087,0.316 L 1.311,0.331 C 2.035,0.378 2.097,0.57 2.189,1.033 2.205,1.095 2.406,1.048 2.398,0.979 2.367,0.771 2.336,0.416 2.336,0.208 l 0,-0.085 C 2.336,0.023 2.29,0 2.167,0 L 0,0 z"
             style="fill:#706d6e;fill-opacity:1;fill-rule:nonzero;stroke:none"
             id="path102"
             inkscape:connector-curvature="0" /></g><g
           id="g104"
           transform="translate(389.2618,440.0148)"><path
             d="m 0,0 c 0.039,0 0.039,-0.216 0,-0.216 -0.27,0.008 -0.686,0.024 -0.979,0.024 -0.486,0 -0.694,-0.016 -0.964,-0.024 -0.038,0 -0.038,0.216 0,0.216 0.432,0.031 0.594,0.131 0.617,0.332 0.015,0.224 0.031,0.848 0.039,1.264 -0.448,0.648 -1.188,1.774 -1.311,1.905 -0.131,0.138 -0.247,0.154 -0.54,0.169 -0.061,0.008 -0.046,0.216 0.015,0.216 0.687,0 1.157,-0.015 1.157,-0.015 0.509,-0.818 1.064,-1.851 1.149,-1.997 0.216,0.347 0.701,1.125 1.002,1.627 0.062,0.1 -0.038,0.154 -0.193,0.154 -0.084,0 -0.054,0.231 0.031,0.231 0.301,0 1.064,-0.008 1.319,-0.008 0.053,0 0.077,-0.192 0.023,-0.2 C 0.972,3.632 0.779,3.639 0.602,3.385 0.2,2.799 -0.285,2.174 -0.655,1.642 -0.655,1.234 -0.64,0.571 -0.617,0.332 -0.593,0.131 -0.432,0.031 0,0"
             style="fill:#706d6e;fill-opacity:1;fill-rule:nonzero;stroke:none"
             id="path106"
             inkscape:connector-curvature="0" /></g><g
           id="g108"
           transform="translate(395.5447,439.7993)"><path
             d="m 0,0 c -0.046,0 -0.069,0.216 -0.023,0.216 0.37,0.023 0.516,0.146 0.555,0.64 0,0.138 -0.016,0.678 -0.039,1.225 C 0.478,2.483 0.455,3.022 0.417,3.47 -0.193,2.228 -0.848,0.902 -1.241,0.084 c -0.054,-0.1 -0.17,-0.092 -0.208,0.008 l -0.255,0.563 c -0.385,0.84 -0.979,2.213 -1.257,2.891 L -2.999,2.081 c -0.008,-0.662 0,-1.025 0.03,-1.449 0.016,-0.216 0.201,-0.401 0.679,-0.416 0.047,0 0.047,-0.208 0,-0.208 l -1.804,0 c -0.054,0 -0.085,0.208 -0.039,0.208 0.54,0.03 0.648,0.223 0.702,0.586 0.046,0.301 0.054,0.647 0.062,1.279 0.007,0.617 0.023,1.181 -0.008,1.458 -0.031,0.239 -0.147,0.362 -0.64,0.332 -0.038,0 -0.054,0.215 0.023,0.215 l 0.617,0 c 0.27,0 0.57,0.008 0.694,0.008 0.185,0 0.254,-0.077 0.316,-0.254 l 1.21,-2.822 1.327,2.767 0,-0.007 c 0.015,0.046 0.015,0.123 0.015,0.154 0,0.069 0,0.147 0.131,0.147 0.139,0 0.401,-0.008 0.401,-0.008 0.324,0 0.725,0.015 0.995,0.023 0.038,0 0.054,-0.216 0.015,-0.216 C 1.249,3.847 1.141,3.716 1.133,3.57 1.11,3.184 1.148,2.668 1.172,2.081 1.18,1.534 1.287,0.539 1.287,0.539 1.295,0.37 1.449,0.231 1.835,0.224 1.881,0.224 1.866,0.008 1.82,0.008 1.565,0.008 1.141,0.023 0.886,0.023 0.586,0.023 0.254,0 0,0"
             style="fill:#706d6e;fill-opacity:1;fill-rule:nonzero;stroke:none"
             id="path110"
             inkscape:connector-curvature="0" /></g><g
           id="g112"
           transform="translate(402.2141,442.7676)"><path
             d="m 0,0 c 0,-0.663 -0.57,-1.18 -1.534,-1.18 l -0.339,0.015 -0.016,0.178 0.224,0.031 c 0.655,0.1 0.894,0.416 0.894,0.894 0,0.579 -0.37,0.872 -1.11,0.872 l -0.015,0 C -2.02,0.81 -2.167,0.801 -2.251,0.771 -2.297,0.756 -2.359,0.655 -2.367,0.47 -2.375,0.27 -2.39,-0.17 -2.39,-0.871 c 0,-0.571 0.023,-1.319 0.077,-1.573 0.046,-0.2 0.131,-0.285 0.648,-0.317 0.046,0 0.054,-0.215 0,-0.215 -0.27,0 -0.786,0.023 -1.018,0.023 -0.293,0 -0.694,-0.023 -0.964,-0.023 -0.038,0 -0.054,0.215 -0.015,0.215 0.431,0.032 0.593,0.155 0.617,0.355 0.023,0.255 0.038,1.01 0.038,1.519 0,0.532 -0.015,1.218 -0.046,1.473 -0.024,0.2 -0.131,0.293 -0.586,0.324 -0.039,0 -0.008,0.216 0.031,0.216 0.27,-0.008 0.663,-0.023 0.886,-0.023 0.347,0 0.71,0.023 1.026,0.023 C -0.632,1.126 0,0.647 0,0"
             style="fill:#706d6e;fill-opacity:1;fill-rule:nonzero;stroke:none"
             id="path114"
             inkscape:connector-curvature="0" /></g><g
           id="g116"
           transform="translate(405.0902,443.8855)"><path
             d="m 0,0 c 0.038,0 0.062,-0.216 0.023,-0.216 -0.455,-0.03 -0.579,-0.115 -0.601,-0.316 -0.031,-0.255 -0.031,-0.941 -0.031,-1.473 0,-0.509 0.015,-1.279 0.038,-1.534 0.024,-0.2 0.185,-0.301 0.617,-0.332 0.038,0 0.016,-0.215 -0.023,-0.215 -0.27,0.007 -0.663,0.023 -0.956,0.023 -0.486,0 -0.671,-0.016 -0.941,-0.023 -0.039,0 -0.061,0.215 -0.023,0.215 0.432,0.031 0.594,0.132 0.617,0.332 0.023,0.255 0.039,1.025 0.039,1.534 0,0.532 -0.016,1.211 -0.047,1.465 -0.023,0.201 -0.131,0.294 -0.586,0.324 -0.039,0 -0.015,0.216 0.024,0.216 0.269,-0.008 0.624,-0.015 0.917,-0.015 0.293,0 0.663,0.007 0.933,0.015"
             style="fill:#706d6e;fill-opacity:1;fill-rule:nonzero;stroke:none"
             id="path118"
             inkscape:connector-curvature="0" /></g><g
           id="g120"
           transform="translate(408.6028,443.6697)"><path
             d="m 0,0 c -1.033,0 -1.773,-0.71 -1.773,-1.812 0,-1.033 0.817,-1.835 1.758,-1.835 0.809,0 1.195,0.331 1.534,0.925 l 0.023,0.015 c 0.023,0.008 0.146,-0.007 0.146,-0.053 0,-0.185 -0.054,-0.617 -0.092,-0.694 -0.084,-0.162 -0.724,-0.471 -1.742,-0.471 -1.434,0 -2.352,0.817 -2.352,2.036 0,1.287 0.979,2.174 2.506,2.174 0.586,0 0.979,-0.062 1.403,-0.208 C 1.512,-0.077 1.596,-0.447 1.558,-0.64 1.55,-0.686 1.449,-0.694 1.434,-0.663 1.165,-0.347 0.802,0 0,0"
             style="fill:#706d6e;fill-opacity:1;fill-rule:nonzero;stroke:none"
             id="path122"
             inkscape:connector-curvature="0" /></g><g
           id="g124"
           transform="translate(373.4253,436.4223)"><path
             d="m 0,0 c -1.033,0 -1.773,-0.709 -1.773,-1.812 0,-1.033 0.817,-1.835 1.757,-1.835 0.81,0 1.196,0.332 1.535,0.925 l 0.023,0.016 c 0.023,0.008 0.146,-0.008 0.146,-0.054 0,-0.185 -0.054,-0.617 -0.092,-0.694 -0.085,-0.162 -0.725,-0.471 -1.742,-0.471 -1.435,0 -2.352,0.818 -2.352,2.036 0,1.287 0.979,2.174 2.506,2.174 0.586,0 0.979,-0.061 1.403,-0.208 0.1,-0.154 0.185,-0.524 0.147,-0.717 C 1.549,-0.686 1.449,-0.694 1.434,-0.663 1.164,-0.347 0.801,0 0,0"
             style="fill:#706d6e;fill-opacity:1;fill-rule:nonzero;stroke:none"
             id="path126"
             inkscape:connector-curvature="0" /></g><g
           id="g128"
           transform="translate(378.2365,436.4455)"><path
             d="m 0,0 c -0.856,0 -1.527,-0.848 -1.527,-1.789 0,-1.102 0.64,-1.889 1.689,-1.889 0.825,0 1.526,0.871 1.526,1.773 C 1.688,-0.825 1.01,0 0,0 m 0.085,0.262 c 1.419,0 2.344,-0.894 2.344,-2.035 0,-1.157 -1.003,-2.174 -2.367,-2.174 -1.381,0 -2.329,0.917 -2.329,2.051 0,1.171 0.987,2.158 2.352,2.158"
             style="fill:#706d6e;fill-opacity:1;fill-rule:nonzero;stroke:none"
             id="path130"
             inkscape:connector-curvature="0" /></g><g
           id="g132"
           transform="translate(385.4457,432.5519)"><path
             d="m 0,0 c -0.046,0 -0.07,0.216 -0.023,0.216 0.37,0.023 0.516,0.147 0.555,0.64 0,0.138 -0.015,0.678 -0.039,1.226 C 0.478,2.483 0.455,3.022 0.416,3.47 -0.193,2.228 -0.848,0.902 -1.241,0.085 c -0.054,-0.1 -0.17,-0.093 -0.208,0.007 L -1.704,0.655 C -2.09,1.496 -2.683,2.868 -2.961,3.546 L -2.999,2.082 c -0.008,-0.663 0,-1.026 0.03,-1.45 0.016,-0.216 0.201,-0.401 0.679,-0.416 0.046,0 0.046,-0.208 0,-0.208 l -1.804,0 c -0.054,0 -0.085,0.208 -0.039,0.208 0.54,0.031 0.648,0.223 0.702,0.586 0.046,0.301 0.054,0.647 0.061,1.28 0.008,0.616 0.024,1.18 -0.007,1.457 -0.031,0.239 -0.147,0.362 -0.64,0.332 -0.038,0 -0.054,0.215 0.023,0.215 l 0.617,0 c 0.27,0 0.57,0.008 0.694,0.008 0.185,0 0.254,-0.077 0.316,-0.254 l 1.21,-2.822 1.326,2.768 0,-0.008 c 0.016,0.046 0.016,0.123 0.016,0.154 0,0.069 0,0.147 0.131,0.147 0.139,0 0.401,-0.008 0.401,-0.008 0.324,0 0.725,0.015 0.995,0.023 0.038,0 0.054,-0.216 0.015,-0.216 C 1.249,3.847 1.141,3.716 1.133,3.57 1.11,3.184 1.148,2.668 1.172,2.082 1.18,1.534 1.287,0.539 1.287,0.539 1.295,0.37 1.449,0.231 1.835,0.223 1.881,0.223 1.866,0.008 1.82,0.008 1.565,0.008 1.141,0.023 0.886,0.023 0.586,0.023 0.254,0 0,0"
             style="fill:#706d6e;fill-opacity:1;fill-rule:nonzero;stroke:none"
             id="path134"
             inkscape:connector-curvature="0" /></g><g
           id="g136"
           transform="translate(392.3821,432.5519)"><path
             d="m 0,0 c -0.046,0 -0.07,0.216 -0.023,0.216 0.37,0.023 0.516,0.147 0.555,0.64 0,0.138 -0.015,0.678 -0.039,1.226 C 0.478,2.483 0.455,3.022 0.416,3.47 -0.193,2.228 -0.848,0.902 -1.241,0.085 c -0.054,-0.1 -0.17,-0.093 -0.208,0.007 L -1.704,0.655 C -2.089,1.496 -2.683,2.868 -2.961,3.546 L -2.999,2.082 c -0.008,-0.663 0,-1.026 0.031,-1.45 0.015,-0.216 0.2,-0.401 0.678,-0.416 0.046,0 0.046,-0.208 0,-0.208 l -1.804,0 c -0.054,0 -0.085,0.208 -0.039,0.208 0.54,0.031 0.648,0.223 0.702,0.586 0.046,0.301 0.054,0.647 0.062,1.28 0.007,0.616 0.023,1.18 -0.008,1.457 -0.031,0.239 -0.147,0.362 -0.64,0.332 -0.038,0 -0.054,0.215 0.023,0.215 l 0.617,0 c 0.27,0 0.57,0.008 0.694,0.008 0.185,0 0.254,-0.077 0.316,-0.254 l 1.21,-2.822 1.327,2.768 0,-0.008 c 0.015,0.046 0.015,0.123 0.015,0.154 0,0.069 0,0.147 0.131,0.147 0.139,0 0.401,-0.008 0.401,-0.008 0.324,0 0.725,0.015 0.995,0.023 0.038,0 0.054,-0.216 0.015,-0.216 C 1.249,3.847 1.141,3.716 1.133,3.57 1.11,3.184 1.149,2.668 1.172,2.082 1.18,1.534 1.287,0.539 1.287,0.539 1.295,0.37 1.449,0.231 1.835,0.223 1.881,0.223 1.866,0.008 1.82,0.008 1.565,0.008 1.141,0.023 0.886,0.023 0.586,0.023 0.255,0 0,0"
             style="fill:#706d6e;fill-opacity:1;fill-rule:nonzero;stroke:none"
             id="path138"
             inkscape:connector-curvature="0" /></g><g
           id="g140"
           transform="translate(397.2964,436.6384)"><path
             d="m 0,0 c 0.038,0 0.062,-0.216 0.023,-0.216 -0.454,-0.03 -0.578,-0.116 -0.601,-0.316 -0.031,-0.255 -0.031,-0.941 -0.031,-1.473 0,-0.509 0.016,-1.279 0.039,-1.534 0.023,-0.201 0.185,-0.301 0.616,-0.332 0.039,0 0.016,-0.215 -0.023,-0.215 -0.27,0.007 -0.663,0.023 -0.956,0.023 -0.486,0 -0.67,-0.016 -0.941,-0.023 -0.038,0 -0.061,0.215 -0.022,0.215 0.431,0.031 0.593,0.131 0.616,0.332 0.023,0.255 0.039,1.025 0.039,1.534 0,0.532 -0.016,1.211 -0.046,1.465 -0.024,0.201 -0.132,0.294 -0.587,0.324 -0.038,0 -0.015,0.216 0.024,0.216 0.27,-0.008 0.624,-0.015 0.917,-0.015 0.293,0 0.663,0.007 0.933,0.015"
             style="fill:#706d6e;fill-opacity:1;fill-rule:nonzero;stroke:none"
             id="path142"
             inkscape:connector-curvature="0" /></g><g
           id="g144"
           transform="translate(401.4003,432.7677)"><path
             d="m 0,0 c 0.039,0 0.031,-0.216 -0.008,-0.216 -0.27,0.008 -0.678,0.024 -0.971,0.024 -0.486,0 -0.694,-0.016 -0.964,-0.024 -0.039,0 -0.039,0.216 0,0.216 0.432,0.031 0.594,0.131 0.617,0.332 0.023,0.254 0.038,0.894 0.038,1.549 l 0,1.704 c -0.223,0 -0.377,0 -0.57,-0.015 -0.779,-0.046 -0.841,-0.092 -0.941,-0.547 -0.008,-0.031 -0.177,-0.039 -0.177,0.03 0.007,0.062 0.007,0.185 0.007,0.285 l 0,0.463 c 0,0.077 0,0.077 0.108,0.077 l 0.124,0 c 0.308,0 1.002,-0.015 1.233,-0.015 l 2.151,0 c 0.124,0 0.178,0.046 0.193,0.108 0.008,0.038 0.216,0.023 0.216,-0.039 l 0,-0.84 C 1.064,3.03 0.871,3.045 0.864,3.069 0.786,3.47 0.625,3.539 -0.131,3.585 c -0.131,0 -0.301,0.008 -0.532,0.008 -0.008,-0.478 0.008,-1.203 0.008,-1.735 0,-0.509 0.015,-1.272 0.038,-1.526 C -0.593,0.131 -0.432,0.031 0,0"
             style="fill:#706d6e;fill-opacity:1;fill-rule:nonzero;stroke:none"
             id="path146"
             inkscape:connector-curvature="0" /></g><g
           id="g148"
           transform="translate(406.2268,432.7677)"><path
             d="m 0,0 c 0.039,0 0.031,-0.216 -0.008,-0.216 -0.269,0.008 -0.678,0.024 -0.971,0.024 -0.486,0 -0.694,-0.016 -0.964,-0.024 -0.038,0 -0.038,0.216 0,0.216 0.432,0.031 0.594,0.131 0.617,0.332 0.023,0.254 0.039,0.894 0.039,1.549 l 0,1.704 c -0.224,0 -0.378,0 -0.571,-0.015 -0.779,-0.046 -0.84,-0.092 -0.941,-0.547 -0.008,-0.031 -0.177,-0.039 -0.177,0.03 0.008,0.062 0.008,0.185 0.008,0.285 l 0,0.463 c 0,0.077 0,0.077 0.107,0.077 l 0.124,0 c 0.308,0 1.002,-0.015 1.233,-0.015 l 2.152,0 c 0.123,0 0.177,0.046 0.193,0.108 0.007,0.038 0.216,0.023 0.216,-0.039 l 0,-0.84 C 1.064,3.03 0.872,3.045 0.864,3.069 0.786,3.47 0.625,3.539 -0.131,3.585 c -0.131,0 -0.301,0.008 -0.532,0.008 -0.008,-0.478 0.008,-1.203 0.008,-1.735 0,-0.509 0.015,-1.272 0.038,-1.526 C -0.593,0.131 -0.432,0.031 0,0"
             style="fill:#706d6e;fill-opacity:1;fill-rule:nonzero;stroke:none"
             id="path150"
             inkscape:connector-curvature="0" /></g><g
           id="g152"
           transform="translate(408.2162,432.7753)"><path
             d="M 0,0 C 0.432,0.031 0.571,0.131 0.594,0.332 0.617,0.586 0.632,1.349 0.632,1.859 0.632,2.39 0.617,3.076 0.586,3.331 0.563,3.531 0.455,3.601 0,3.632 c -0.038,0 0,0.216 0.038,0.216 l 2.853,0 c 0.116,0 0.178,0.007 0.193,0.061 0.023,0.07 0.154,0.085 0.154,-0.054 l 0,-0.663 C 3.262,3.076 3.099,3.076 3.084,3.131 3.015,3.485 2.822,3.516 2.082,3.554 l -0.787,0 C 1.295,3.554 1.28,3.516 1.28,3.439 1.272,3.184 1.257,2.607 1.257,2.089 l 0.062,0 c 0.547,0 0.878,0 0.994,0.008 0.262,0.031 0.324,0.108 0.347,0.178 0.039,0.061 0.162,0.053 0.162,-0.054 0,0 -0.008,-0.316 -0.008,-0.362 C 2.814,1.666 2.822,1.565 2.83,1.434 2.83,1.319 2.699,1.326 2.676,1.388 2.614,1.719 2.522,1.712 1.573,1.758 1.473,1.766 1.257,1.766 1.257,1.766 c 0,-0.54 0.031,-1.11 0.085,-1.365 0.046,-0.2 0.393,-0.308 0.694,-0.308 0.038,0 0.293,-0.008 0.432,-0.008 0.624,0 0.747,0.139 0.839,0.601 C 3.323,0.725 3.477,0.702 3.485,0.663 3.454,0.447 3.439,0.085 3.439,-0.116 c 0,-0.092 0,-0.1 -0.154,-0.1 l -3.27,0 C -0.023,-0.216 -0.038,0 0,0"
             style="fill:#706d6e;fill-opacity:1;fill-rule:nonzero;stroke:none"
             id="path154"
             inkscape:connector-curvature="0" /></g><g
           id="g156"
           transform="translate(412.7035,432.7753)"><path
             d="M 0,0 C 0.432,0.031 0.571,0.131 0.594,0.332 0.617,0.586 0.632,1.349 0.632,1.859 0.632,2.39 0.617,3.076 0.586,3.331 0.563,3.531 0.455,3.601 0,3.632 c -0.038,0 0,0.216 0.038,0.216 l 2.853,0 c 0.117,0 0.178,0.007 0.193,0.061 0.023,0.07 0.154,0.085 0.154,-0.054 l 0,-0.663 C 3.262,3.076 3.099,3.076 3.084,3.131 3.015,3.485 2.822,3.516 2.082,3.554 l -0.787,0 C 1.295,3.554 1.28,3.516 1.28,3.439 1.272,3.184 1.257,2.607 1.257,2.089 l 0.062,0 c 0.547,0 0.878,0 0.994,0.008 0.262,0.031 0.324,0.108 0.347,0.178 0.038,0.061 0.162,0.053 0.162,-0.054 0,0 -0.008,-0.316 -0.008,-0.362 C 2.814,1.666 2.822,1.565 2.83,1.434 2.83,1.319 2.698,1.326 2.675,1.388 2.614,1.719 2.522,1.712 1.573,1.758 1.473,1.766 1.257,1.766 1.257,1.766 c 0,-0.54 0.031,-1.11 0.084,-1.365 0.047,-0.2 0.394,-0.308 0.695,-0.308 0.038,0 0.292,-0.008 0.431,-0.008 0.625,0 0.749,0.139 0.841,0.601 C 3.323,0.725 3.477,0.702 3.485,0.663 3.454,0.447 3.439,0.085 3.439,-0.116 c 0,-0.092 0,-0.1 -0.154,-0.1 l -3.269,0 C -0.023,-0.216 -0.038,0 0,0"
             style="fill:#706d6e;fill-opacity:1;fill-rule:nonzero;stroke:none"
             id="path158"
             inkscape:connector-curvature="0" /></g><g
           id="g160"
           transform="translate(410.3549,467.8184)"><path
             d="m 0,0 c -0.227,-3.748 -3.34,-6.716 -7.142,-6.716 -3.956,0 -7.157,3.204 -7.157,7.158 0,3.176 2.065,5.868 4.928,6.805 0.052,0.348 0.08,0.705 0.08,1.068 0,0.15 -0.006,0.296 -0.013,0.442 -3.698,-0.959 -6.429,-4.318 -6.429,-8.315 0,-4.744 3.844,-8.591 8.591,-8.591 4.511,0 8.212,3.482 8.561,7.907 C 0.933,-0.201 0.459,-0.119 0,0 M -7.142,7.6 C -3.554,7.6 -0.58,4.957 -0.064,1.509 0.408,1.356 0.901,1.25 1.413,1.195 1.03,5.587 -2.655,9.031 -7.142,9.031 c -0.251,0 -0.499,-0.01 -0.743,-0.032 0.016,-0.225 0.026,-0.453 0.026,-0.684 0,-0.254 -0.013,-0.506 -0.032,-0.754 0.245,0.026 0.495,0.039 0.749,0.039"
             style="fill:#00a650;fill-opacity:1;fill-rule:nonzero;stroke:none"
             id="path162"
             inkscape:connector-curvature="0" /></g><g
           id="g164"
           transform="translate(393.1619,467.5765)"><path
             d="m 0,0 c -0.347,-4.425 -4.047,-7.907 -8.561,-7.907 -4.746,0 -8.592,3.847 -8.592,8.591 0,3.997 2.731,7.356 6.431,8.315 0.006,-0.146 0.011,-0.292 0.011,-0.442 0,-0.363 -0.027,-0.72 -0.079,-1.068 -2.862,-0.937 -4.927,-3.629 -4.927,-6.805 0,-3.954 3.2,-7.158 7.156,-7.158 3.803,0 6.916,2.968 7.143,6.716 C -0.961,0.123 -0.485,0.041 0,0 m -9.311,7.803 c 0.02,0.248 0.033,0.5 0.033,0.754 0,0.231 -0.01,0.459 -0.025,0.684 0.244,0.021 0.491,0.032 0.742,0.032 4.487,0 8.176,-3.444 8.558,-7.836 -0.513,0.055 -1.009,0.161 -1.479,0.314 -0.517,3.448 -3.492,6.091 -7.079,6.091 -0.254,0 -0.504,-0.013 -0.75,-0.039"
             style="fill:#f9a91f;fill-opacity:1;fill-rule:nonzero;stroke:none"
             id="path166"
             inkscape:connector-curvature="0" /></g><g
           id="g168"
           transform="translate(421.1078,476.1341)"><path
             d="m 0,0 c 0,-4.744 -3.845,-8.59 -8.591,-8.59 -4.491,0 -8.175,3.445 -8.558,7.836 0.514,-0.054 1.006,-0.161 1.48,-0.315 0.514,-3.446 3.486,-6.09 7.078,-6.09 3.953,0 7.158,3.206 7.158,7.159 0,3.953 -3.205,7.159 -7.158,7.159 -3.806,0 -6.917,-2.969 -7.144,-6.717 -0.46,0.118 -0.932,0.2 -1.421,0.242 0.352,4.425 4.051,7.906 8.565,7.906 C -3.845,8.59 0,4.744 0,0"
             style="fill:#ee2049;fill-opacity:1;fill-rule:nonzero;stroke:none"
             id="path170"
             inkscape:connector-curvature="0" /></g><g
           id="g172"
           transform="translate(393.9041,468.9753)"><path
             d="M 0,0 C -3.588,0 -6.562,2.644 -7.079,6.09 -7.551,6.244 -8.043,6.351 -8.557,6.405 -8.175,2.013 -4.491,-1.431 0,-1.431 c 0.252,0 0.5,0.01 0.745,0.032 -0.017,0.224 -0.027,0.453 -0.027,0.684 0,0.253 0.013,0.506 0.033,0.753 C 0.505,0.013 0.254,0 0,0 m 0,15.749 c -4.514,0 -8.212,-3.481 -8.561,-7.906 0.486,-0.042 0.957,-0.124 1.419,-0.243 0.225,3.749 3.338,6.718 7.142,6.718 3.955,0 7.159,-3.207 7.159,-7.159 C 7.159,3.984 5.092,1.29 2.229,0.353 2.178,0.006 2.152,-0.352 2.152,-0.715 c 0,-0.149 10e-4,-0.296 0.011,-0.442 3.698,0.959 6.429,4.318 6.429,8.316 0,4.743 -3.846,8.59 -8.592,8.59"
             style="fill:#231f20;fill-opacity:1;fill-rule:nonzero;stroke:none"
             id="path174"
             inkscape:connector-curvature="0" /></g><g
           id="g176"
           transform="translate(383.8842,476.1341)"><path
             d="m 0,0 c 0,4.744 -3.845,8.59 -8.591,8.59 -4.743,0 -8.589,-3.846 -8.589,-8.59 0,-4.744 3.846,-8.59 8.589,-8.59 0.251,0 0.498,0.011 0.743,0.032 -0.017,0.225 -0.027,0.454 -0.027,0.684 0,0.254 0.014,0.506 0.034,0.753 -0.247,-0.024 -0.497,-0.038 -0.75,-0.038 -3.953,0 -7.159,3.206 -7.159,7.159 0,3.953 3.206,7.159 7.159,7.159 3.955,0 7.158,-3.206 7.158,-7.159 0,-3.175 -2.067,-5.869 -4.931,-6.806 -0.05,-0.347 -0.076,-0.704 -0.076,-1.068 0,-0.149 0.001,-0.296 0.011,-0.441 C -2.73,-7.357 0,-3.998 0,0"
             style="fill:#117fcd;fill-opacity:1;fill-rule:nonzero;stroke:none"
             id="path178"
             inkscape:connector-curvature="0" /></g></g></g></g></svg>