<svg width="150" height="78" viewBox="0 0 150 78" fill="none" xmlns="http://www.w3.org/2000/svg">
<g clip-path="url(#clip0)">
<path d="M9.70626 43.1912C10.833 43.2215 11.9974 43.1457 13.1767 42.9713C6.70904 41.3941 4.61325 35.3812 8.63958 28.3523C12.6659 21.3234 21.4623 15.5911 29.5074 14.4006C28.5609 14.1731 27.5243 14.0367 26.3975 14.0063C17.5636 13.7713 6.66397 20.1178 2.05172 28.1779C-2.56054 36.2381 0.864851 42.9637 9.70626 43.1912Z" fill="#EE3550"/>
<path d="M37.5826 57.9239C38.1911 56.9609 38.7169 55.9146 39.1751 54.8075C34.5028 59.592 28.3205 58.3106 24.4219 51.2059C20.5233 44.1011 20.2003 33.5312 23.3327 25.9563C22.6491 26.6539 21.9956 27.4804 21.3946 28.4433C16.6472 35.9651 16.4218 48.6657 20.8913 56.8093C25.3534 64.9528 32.8276 65.4457 37.5826 57.9239Z" fill="#1381C5"/>
<path d="M64.3172 40.4767C63.7763 39.4759 63.1303 38.4977 62.3942 37.5575C64.2721 43.995 60.1631 48.8402 52.118 48.8402C44.0728 48.8402 34.7582 44.0026 29.7102 37.5575C29.9882 38.4977 30.3863 39.4759 30.9272 40.4767C35.1413 48.317 46.0409 54.6711 55.2579 54.6711C64.4749 54.6787 68.5313 48.3246 64.3172 40.4767Z" fill="#03A74F"/>
<path d="M40.8435 24.9065H38V18.0982H40.8435V24.9065Z" fill="black"/>
<path d="M45.6774 22.5965V24.9065H42.8258V18.0982H47.5459C48.4504 18.0982 49.2493 18.1948 49.9426 18.3881C50.6412 18.5783 51.1801 18.851 51.5593 19.2064C51.9438 19.5587 52.1361 19.9593 52.1361 20.4081C52.1361 21.0721 51.7217 21.6037 50.8931 22.0027C50.0698 22.3986 48.9379 22.5965 47.4972 22.5965H45.6774ZM45.6774 21.3293H47.5459C48.0984 21.3293 48.5181 21.2498 48.8052 21.0908C49.0976 20.9319 49.2439 20.7074 49.2439 20.4175C49.2439 20.0995 49.0949 19.8455 48.797 19.6553C48.4992 19.4652 48.0929 19.3685 47.5784 19.3654H45.6774V21.3293Z" fill="black"/>
<path d="M63.2337 22.6012C63.1958 23.075 62.9737 23.4943 62.5675 23.8591C62.1613 24.2207 61.5899 24.5012 60.8533 24.7007C60.1222 24.9002 59.2854 25 58.343 25C56.7885 25 55.5645 24.7085 54.6708 24.1256C53.7772 23.5426 53.3303 22.7197 53.3303 21.6566V21.32C53.3303 20.6529 53.5307 20.0699 53.9315 19.5711C54.3377 19.0692 54.92 18.6827 55.6782 18.4115C56.4365 18.1372 57.3139 18 58.3105 18C59.7457 18 60.8994 18.2182 61.7714 18.6546C62.6434 19.088 63.1389 19.6865 63.2581 20.4502H60.4146C60.393 20.0356 60.2115 19.7379 59.8703 19.5571C59.5291 19.3763 59.0091 19.2859 58.3105 19.2859C57.6009 19.2859 57.081 19.4387 56.7506 19.7442C56.4202 20.0497 56.2469 20.5375 56.2307 21.2077V21.6894C56.2307 22.4157 56.3877 22.9348 56.7019 23.2465C57.0214 23.5582 57.5685 23.7141 58.343 23.7141C58.9983 23.7141 59.4993 23.6253 59.8459 23.4476C60.1926 23.2699 60.3767 22.9878 60.3984 22.6012H63.2337Z" fill="black"/>
<path d="M74.8269 23.0969C74.8269 22.8568 74.678 22.6698 74.3801 22.5357C74.0876 22.4017 73.5704 22.263 72.8284 22.1196C72.0864 21.9762 71.4798 21.8375 71.0086 21.7034C69.4758 21.2701 68.7094 20.6747 68.7094 19.9172C68.7094 19.54 68.899 19.208 69.2781 18.9212C69.6627 18.6313 70.2043 18.4068 70.9029 18.2478C71.6016 18.0857 72.387 18.0047 73.259 18.0047C74.1093 18.0047 74.8703 18.092 75.5419 18.2665C76.2189 18.4411 76.7442 18.6905 77.1179 19.0147C77.4917 19.3358 77.6785 19.7036 77.6785 20.1182H74.835C74.835 19.8408 74.6861 19.6257 74.3882 19.4729C74.0957 19.3202 73.6977 19.2438 73.194 19.2438C72.6848 19.2438 72.2813 19.3093 71.9835 19.4402C71.691 19.568 71.5448 19.7317 71.5448 19.9312C71.5448 20.1058 71.7072 20.2648 72.0322 20.4081C72.3572 20.5484 72.9286 20.6949 73.7464 20.8477C74.5642 20.9973 75.2358 21.1594 75.7612 21.334C77.0394 21.758 77.6785 22.3425 77.6785 23.0875C77.6785 23.6829 77.2886 24.1505 76.5086 24.4903C75.7287 24.8301 74.659 25 73.2996 25C72.3409 25 71.4716 24.9018 70.6917 24.7054C69.9172 24.5059 69.3323 24.2347 68.9369 23.8918C68.5469 23.5458 68.352 23.1483 68.352 22.6994H71.2117C71.2117 23.0641 71.3741 23.3338 71.6991 23.5083C72.0295 23.6798 72.563 23.7655 73.2996 23.7655C73.7708 23.7655 74.1418 23.7079 74.4126 23.5925C74.6888 23.4741 74.8269 23.3088 74.8269 23.0969Z" fill="black"/>
<path d="M89.028 24.9065H86.1927V22.0635H81.9925V24.9065H79.1409V18.0982H81.9925V20.8009H86.1927V18.0982H89.028V24.9065Z" fill="black"/>
<path d="M100.857 21.6426C100.857 22.3066 100.643 22.8942 100.215 23.4055C99.7871 23.9167 99.1778 24.3111 98.3871 24.5885C97.6017 24.8628 96.7054 25 95.698 25C94.6906 25 93.7969 24.8675 93.017 24.6025C92.2371 24.3344 91.6277 23.9526 91.189 23.4569C90.7557 22.9613 90.5283 22.3923 90.5066 21.7502V21.3667C90.5066 20.6996 90.7178 20.112 91.1403 19.6039C91.5682 19.0926 92.1775 18.6983 92.9682 18.4208C93.7644 18.1434 94.6689 18.0047 95.6817 18.0047C96.6837 18.0047 97.5773 18.1418 98.3627 18.4162C99.148 18.6905 99.7573 19.0817 100.191 19.5898C100.629 20.0949 100.851 20.6747 100.857 21.3293V21.6426ZM97.9565 21.3574C97.9565 20.6809 97.7588 20.1681 97.3634 19.819C96.9734 19.4667 96.4129 19.2906 95.6817 19.2906C94.2518 19.2906 93.4963 19.9078 93.4151 21.1423L93.4069 21.6426C93.4069 22.3097 93.5992 22.8225 93.9838 23.181C94.3683 23.5395 94.9397 23.7188 95.698 23.7188C96.4183 23.7188 96.9734 23.5426 97.3634 23.1904C97.7534 22.8381 97.9511 22.3316 97.9565 21.6707V21.3574Z" fill="black"/>
<path d="M112.344 21.6426C112.344 22.3066 112.13 22.8942 111.703 23.4055C111.275 23.9167 110.665 24.3111 109.875 24.5885C109.089 24.8628 108.193 25 107.186 25C106.178 25 105.284 24.8675 104.505 24.6025C103.725 24.3344 103.115 23.9526 102.677 23.4569C102.243 22.9613 102.016 22.3923 101.994 21.7502V21.3667C101.994 20.6996 102.205 20.112 102.628 19.6039C103.056 19.0926 103.665 18.6983 104.456 18.4208C105.252 18.1434 106.156 18.0047 107.169 18.0047C108.171 18.0047 109.065 18.1418 109.85 18.4162C110.636 18.6905 111.245 19.0817 111.678 19.5898C112.117 20.0949 112.339 20.6747 112.344 21.3293V21.6426ZM109.444 21.3574C109.444 20.6809 109.246 20.1681 108.851 19.819C108.461 19.4667 107.9 19.2906 107.169 19.2906C105.739 19.2906 104.984 19.9078 104.903 21.1423L104.895 21.6426C104.895 22.3097 105.087 22.8225 105.471 23.181C105.856 23.5395 106.427 23.7188 107.186 23.7188C107.906 23.7188 108.461 23.5426 108.851 23.1904C109.241 22.8381 109.439 22.3316 109.444 21.6707V21.3574Z" fill="black"/>
<path d="M122.402 19.3654H118.852V24.9065H116V19.3654H112.515V18.0982H122.402V19.3654Z" fill="black"/>
<path d="M126.651 24.9065H123.808V18.0982H126.651V24.9065Z" fill="black"/>
<path d="M138.512 24.9065H135.677L131.485 20.67V24.9065H128.633V18.0982H131.485L135.669 22.3347V18.0982H138.512V24.9065Z" fill="black"/>
<path d="M150 24.0648C149.561 24.3454 148.919 24.5714 148.075 24.7428C147.23 24.9143 146.303 25 145.296 25C143.747 25 142.509 24.7272 141.583 24.1817C140.657 23.6362 140.162 22.8771 140.097 21.9045L140.088 21.3153C140.088 20.6451 140.294 20.0606 140.706 19.5618C141.118 19.0599 141.705 18.6749 142.469 18.4068C143.238 18.1356 144.126 18 145.134 18C146.607 18 147.75 18.1948 148.562 18.5845C149.38 18.9711 149.856 19.5493 149.992 20.3193H147.246C147.148 19.939 146.937 19.6678 146.612 19.5057C146.287 19.3436 145.827 19.2625 145.231 19.2625C144.516 19.2625 143.964 19.4371 143.574 19.7862C143.184 20.1354 142.986 20.6342 142.981 21.2826V21.6941C142.981 22.3736 143.181 22.8849 143.582 23.2278C143.988 23.5676 144.624 23.7375 145.491 23.7375C146.233 23.7375 146.786 23.6424 147.148 23.4522V22.3955H145.166V21.2685H150V24.0648Z" fill="black"/>
</g>
<defs>
<clipPath id="clip0">
<rect width="150" height="78" fill="white"/>
</clipPath>
</defs>
</svg>
