<svg width="140" height="78" viewBox="0 0 140 78" fill="none" xmlns="http://www.w3.org/2000/svg">
<rect y="7.11096" width="42.6433" height="42.7471" fill="#78D477"/>
<path fill-rule="evenodd" clip-rule="evenodd" d="M0 28.4845V49.8581H21.3216H42.6433V28.4845V7.11096H21.3216H0V28.4845ZM16.1616 17.3586C16.1616 17.4193 16.7106 17.4562 17.6139 17.4562C18.6845 17.4562 19.0792 17.4883 19.1156 17.5782C19.1528 17.6703 19.1924 17.6643 19.2771 17.5538C19.3618 17.4432 19.4014 17.4372 19.4386 17.5294C19.4756 17.6206 19.9281 17.6514 21.2324 17.6514C22.3304 17.6514 22.9767 17.6876 22.9767 17.7489C22.9767 17.8099 23.5609 17.8465 24.5345 17.8465C25.5081 17.8465 26.0922 17.8831 26.0922 17.9441C26.0922 18.0071 27.1632 18.0417 29.1104 18.0417C31.0576 18.0417 32.1285 18.0764 32.1285 18.1393C32.1285 18.193 32.3038 18.2369 32.5179 18.2369C32.7321 18.2369 32.9074 18.2808 32.9074 18.3345C32.9074 18.3882 32.9854 18.4321 33.0806 18.4321C33.1759 18.4321 33.317 18.52 33.3942 18.6273C33.4714 18.7347 33.6125 18.8225 33.7078 18.8225C33.816 18.8225 33.881 18.8956 33.881 19.0177C33.881 19.1272 33.9459 19.2129 34.0289 19.2129C34.1102 19.2129 34.4606 19.4976 34.8077 19.8454L35.4387 20.478V21.2118C35.4387 21.6359 35.3976 21.9456 35.3414 21.9456C35.2878 21.9456 35.244 22.0773 35.244 22.2384C35.244 22.3994 35.2002 22.5312 35.1466 22.5312C35.0931 22.5312 35.0493 22.619 35.0493 22.7264C35.0493 22.8337 35.0055 22.9215 34.9519 22.9215C34.8984 22.9215 34.8546 23.0094 34.8546 23.1167C34.8546 23.2241 34.8107 23.3119 34.7572 23.3119C34.7037 23.3119 34.6598 23.3901 34.6598 23.4856C34.6598 23.5811 34.5722 23.7225 34.4651 23.7999C34.358 23.8773 34.2704 23.9974 34.2704 24.067C34.2704 24.2446 32.8451 25.6542 32.6655 25.6542C32.5843 25.6542 32.5179 25.6982 32.5179 25.7518C32.5179 25.811 32.0961 25.8494 31.447 25.8494C30.7979 25.8494 30.376 25.8879 30.376 25.947C30.376 26.0084 29.7297 26.0446 28.6317 26.0446C27.3274 26.0446 26.8749 26.0754 26.8379 26.1666C26.8008 26.2585 26.7627 26.2524 26.6838 26.1422C26.5907 26.0121 26.5682 26.0121 26.4817 26.1422C26.3951 26.2723 26.3726 26.2723 26.2796 26.1422C26.2007 26.032 26.1625 26.026 26.1254 26.1178C26.0615 26.2758 25.7358 26.2758 25.6622 26.1178C25.6168 26.0202 25.5941 26.0202 25.5487 26.1178C25.5174 26.185 25.3677 26.2398 25.216 26.2398C25.0643 26.2398 24.9179 26.185 24.8907 26.1178C24.8535 26.0257 24.8139 26.0316 24.7292 26.1422C24.6445 26.2528 24.6049 26.2587 24.5677 26.1666C24.5318 26.0779 24.1755 26.0446 23.2607 26.0446C22.4872 26.0446 22.0032 26.007 22.0032 25.947C22.0032 25.8933 21.7877 25.8494 21.5244 25.8494C21.2328 25.8494 21.0265 25.8018 20.9964 25.7274C20.9593 25.6356 20.9211 25.6416 20.8422 25.7518C20.7492 25.8819 20.7258 25.8819 20.6327 25.7518C20.5539 25.6416 20.5157 25.6356 20.4786 25.7274C20.4514 25.7946 20.3488 25.8494 20.2507 25.8494C20.1526 25.8494 20.0499 25.7946 20.0228 25.7274C19.9857 25.6356 19.9475 25.6416 19.8687 25.7518C19.7756 25.8819 19.7531 25.8819 19.6665 25.7518C19.58 25.6217 19.5575 25.6217 19.4644 25.7518C19.3856 25.862 19.3474 25.8681 19.3103 25.7762C19.2826 25.7078 19.0934 25.6542 18.8796 25.6542C18.6698 25.6542 18.4982 25.6103 18.4982 25.5566C18.4982 25.503 18.323 25.459 18.1088 25.459C17.8946 25.459 17.7194 25.4151 17.7194 25.3614C17.7194 25.3078 17.6317 25.2639 17.5246 25.2639C17.4175 25.2639 17.3299 25.2199 17.3299 25.1663C17.3299 25.1126 17.2599 25.0687 17.1742 25.0687C17.0887 25.0687 16.8847 24.9259 16.721 24.7515C16.533 24.551 16.4082 24.4792 16.3818 24.5563C16.3415 24.674 15.7722 24.7359 15.7722 24.6225C15.7722 24.508 16.0558 24.2879 16.2034 24.2879C16.2875 24.2879 16.3563 24.244 16.3563 24.1903C16.3563 24.1366 16.2249 24.0927 16.0643 24.0927C15.9036 24.0927 15.7722 24.1366 15.7722 24.1903C15.7722 24.244 15.6407 24.2879 15.4801 24.2879C15.253 24.2879 15.188 24.2446 15.188 24.0927C15.188 23.9853 15.1442 23.8975 15.0907 23.8975C15.0371 23.8975 14.9933 23.9414 14.9933 23.9951C14.9933 24.0488 14.8181 24.0927 14.6039 24.0927C14.2794 24.0927 14.2144 24.0602 14.2144 23.8975C14.2144 23.7456 14.2794 23.7023 14.5065 23.7023C14.6671 23.7023 14.7986 23.6584 14.7986 23.6047C14.7986 23.551 14.8862 23.5071 14.9933 23.5071C15.2306 23.5071 15.2378 23.4454 15.0254 23.2327C14.9072 23.1141 14.8519 23.1027 14.8226 23.1908C14.7748 23.3346 14.4091 23.3555 14.4091 23.2143C14.4091 23.0735 14.0465 23.094 13.9791 23.2387C13.9337 23.3363 13.911 23.3363 13.8656 23.2387C13.8271 23.1562 13.5594 23.1167 13.038 23.1167C12.5891 23.1167 12.2672 23.0759 12.2672 23.0191C12.2672 22.9655 12.1796 22.9215 12.0725 22.9215C11.9654 22.9215 11.8778 22.8776 11.8778 22.8239C11.8778 22.7703 11.7464 22.7264 11.5857 22.7264C11.4251 22.7264 11.2937 22.6824 11.2937 22.6288C11.2937 22.5751 11.206 22.5312 11.0989 22.5312C10.9918 22.5312 10.9042 22.4872 10.9042 22.4336C10.9042 22.3799 10.6852 22.336 10.4174 22.336C9.87659 22.336 9.83697 22.2939 10.1346 22.0351L10.3387 21.8577L10.0904 21.6089C9.9538 21.4719 9.73056 21.36 9.59425 21.36C9.45795 21.36 9.34647 21.3161 9.34647 21.2624C9.34647 21.2081 9.08682 21.1648 8.76232 21.1648C8.43782 21.1648 8.17816 21.1215 8.17816 21.0672C8.17816 21.0135 8.00292 20.9696 7.78873 20.9696C7.46423 20.9696 7.39929 20.9371 7.39929 20.7744C7.39929 20.6671 7.35548 20.5792 7.30193 20.5792C7.24839 20.5792 7.20457 20.4914 7.20457 20.384C7.20457 20.2539 7.13964 20.1889 7.00986 20.1889C6.90276 20.1889 6.81514 20.1657 6.81514 20.1375C6.81514 19.9876 7.7162 19.2129 7.89047 19.2129C8.13172 19.2129 8.37288 18.9968 8.37288 18.7806C8.37288 18.5976 8.52798 18.577 8.6082 18.7493C8.65357 18.8469 8.67635 18.8469 8.72172 18.7493C8.75589 18.676 8.9695 18.6273 9.2572 18.6273C9.52045 18.6273 9.73591 18.5834 9.73591 18.5297C9.73591 18.476 9.86735 18.4321 10.028 18.4321C10.1886 18.4321 10.3201 18.3882 10.3201 18.3345C10.3201 18.2808 10.4077 18.2369 10.5148 18.2369C10.6219 18.2369 10.7095 18.193 10.7095 18.1393C10.7095 18.0857 10.8847 18.0417 11.0989 18.0417C11.3131 18.0417 11.4884 17.9978 11.4884 17.9441C11.4884 17.8905 11.576 17.8465 11.6831 17.8465C11.7902 17.8465 11.8778 17.8026 11.8778 17.7489C11.8778 17.6953 12.0969 17.6514 12.3646 17.6514C12.6323 17.6514 12.8514 17.6074 12.8514 17.5538C12.8514 17.4952 13.2408 17.4562 13.825 17.4562C14.4091 17.4562 14.7986 17.4171 14.7986 17.3586C14.7986 17.3028 15.0907 17.261 15.4801 17.261C15.8695 17.261 16.1616 17.3028 16.1616 17.3586ZM10.7095 18.9201C10.7095 18.9738 10.5781 19.0177 10.4174 19.0177C10.2568 19.0177 10.1253 19.0616 10.1253 19.1153C10.1253 19.171 10.4174 19.2129 10.8069 19.2129C11.1963 19.2129 11.4884 19.2548 11.4884 19.3105C11.4884 19.3642 11.7074 19.4081 11.9752 19.4081C12.5031 19.4081 12.5421 19.3769 12.3071 19.1413C12.1751 19.009 12.138 19.0065 12.0563 19.1239C11.9827 19.2296 11.9489 19.2333 11.911 19.1397C11.8808 19.0653 11.6746 19.0177 11.3829 19.0177C11.1197 19.0177 10.9042 18.9738 10.9042 18.9201C10.9042 18.8664 10.8604 18.8225 10.8069 18.8225C10.7533 18.8225 10.7095 18.8664 10.7095 18.9201ZM12.8514 19.3105C12.8514 19.3642 12.8952 19.4081 12.9488 19.4081C13.0023 19.4081 13.0461 19.3642 13.0461 19.3105C13.0461 19.2568 13.0023 19.2129 12.9488 19.2129C12.8952 19.2129 12.8514 19.2568 12.8514 19.3105ZM13.2408 19.3105C13.2408 19.3642 13.3723 19.4081 13.5329 19.4081C13.6936 19.4081 13.825 19.3642 13.825 19.3105C13.825 19.2568 13.6936 19.2129 13.5329 19.2129C13.3723 19.2129 13.2408 19.2568 13.2408 19.3105ZM9.15176 19.5057C9.15176 19.5594 9.19557 19.6033 9.24912 19.6033C9.30266 19.6033 9.34647 19.5594 9.34647 19.5057C9.34647 19.452 9.30266 19.4081 9.24912 19.4081C9.19557 19.4081 9.15176 19.452 9.15176 19.5057ZM16.551 19.5057C16.551 19.5594 16.4634 19.6033 16.3563 19.6033C16.2492 19.6033 16.1616 19.6472 16.1616 19.7009C16.1616 19.7594 15.7722 19.7985 15.188 19.7985C14.6039 19.7985 14.2144 19.7594 14.2144 19.7009C14.2144 19.6405 13.6952 19.6033 12.8514 19.6033C11.5533 19.6033 11.4884 19.6125 11.4884 19.7985C11.4884 19.9836 11.5533 19.9937 12.746 19.9937C13.6607 19.9937 14.017 20.0269 14.0529 20.1157C14.0902 20.208 14.1264 20.2027 14.2017 20.0941C14.2564 20.0151 14.3325 19.9819 14.3708 20.0203C14.4091 20.0587 14.3458 20.1723 14.23 20.2729C14.1143 20.3734 14.0197 20.4835 14.0197 20.5175C14.0197 20.6324 14.3925 20.5801 14.4497 20.4572C14.4951 20.3596 14.5179 20.3596 14.5633 20.4572C14.6284 20.5971 14.9933 20.6247 14.9933 20.4897C14.9933 20.4406 14.939 20.3822 14.8725 20.3599C14.7846 20.3306 14.796 20.2751 14.9142 20.1566C15.0394 20.0311 15.2587 19.9937 15.867 19.9937C16.5763 19.9937 16.6818 19.9691 16.8962 19.7541C17.2031 19.4465 17.1971 19.4081 16.8431 19.4081C16.6825 19.4081 16.551 19.452 16.551 19.5057ZM17.5246 19.5057C17.5246 19.5594 17.4558 19.6033 17.3717 19.6033C17.2241 19.6033 16.9405 19.8234 16.9405 19.9379C16.9405 19.9686 17.0719 19.9937 17.2326 19.9937C17.3932 19.9937 17.5246 19.9497 17.5246 19.8961C17.5246 19.8424 17.7687 19.7985 18.067 19.7985C18.5859 19.7985 19.0115 19.5973 18.8453 19.4306C18.8092 19.3945 18.7349 19.4296 18.6802 19.5085C18.6049 19.6171 18.5687 19.6224 18.5314 19.5301C18.472 19.3835 17.5246 19.3606 17.5246 19.5057ZM10.3201 19.7009C10.3201 19.7545 10.4479 19.7985 10.6041 19.7985C10.7602 19.7985 10.9061 19.8529 10.9283 19.9196C10.9576 20.0077 11.0129 19.9963 11.1311 19.8778C11.3744 19.6339 11.3382 19.6033 10.8069 19.6033C10.5391 19.6033 10.3201 19.6472 10.3201 19.7009ZM19.0824 19.7009C19.0824 19.7545 19.1262 19.7985 19.1797 19.7985C19.2333 19.7985 19.2771 19.7545 19.2771 19.7009C19.2771 19.6472 19.2333 19.6033 19.1797 19.6033C19.1262 19.6033 19.0824 19.6472 19.0824 19.7009ZM20.2507 19.8961C20.2507 19.9497 20.1631 19.9937 20.056 19.9937C19.9262 19.9937 19.8613 20.0588 19.8613 20.1889C19.8613 20.3189 19.9262 20.384 20.056 20.384C20.1631 20.384 20.2507 20.428 20.2507 20.4816C20.2507 20.5353 20.2945 20.5792 20.3481 20.5792C20.4016 20.5792 20.4454 20.495 20.4454 20.3921C20.4454 20.2893 20.4997 20.187 20.5662 20.1647C20.6541 20.1354 20.6428 20.0799 20.5246 19.9615C20.3394 19.7758 20.2507 19.7546 20.2507 19.8961ZM21.419 19.8961C21.419 19.9497 21.3064 19.9937 21.1687 19.9937C20.8869 19.9937 20.6401 20.1955 20.6401 20.4259C20.6401 20.6436 20.9601 20.616 21.1269 20.384C21.2041 20.2767 21.3014 20.1889 21.3432 20.1889C21.3848 20.1889 21.419 20.2767 21.419 20.384C21.419 20.4914 21.4628 20.5792 21.5164 20.5792C21.5699 20.5792 21.6137 20.5353 21.6137 20.4816C21.6137 20.3408 21.9764 20.3613 22.0438 20.506C22.0891 20.6036 22.1119 20.6036 22.1573 20.506C22.1885 20.439 22.2981 20.384 22.4007 20.384C22.5224 20.384 22.5873 20.3161 22.5873 20.1889C22.5873 20.0197 22.5224 19.9937 22.1005 19.9937C21.8328 19.9937 21.6137 19.9497 21.6137 19.8961C21.6137 19.8424 21.5699 19.7985 21.5164 19.7985C21.4628 19.7985 21.419 19.8424 21.419 19.8961ZM23.0984 19.9445C22.8818 20.1911 22.9531 20.384 23.2607 20.384C23.4169 20.384 23.5703 20.439 23.6015 20.506C23.6469 20.6036 23.6697 20.6036 23.715 20.506C23.7866 20.3525 26.4817 20.3287 26.4817 20.4816C26.4817 20.5353 26.4379 20.5792 26.3843 20.5792C26.3308 20.5792 26.287 20.7549 26.287 20.9696C26.287 21.1843 26.3308 21.36 26.3843 21.36C26.4379 21.36 26.4817 21.2722 26.4817 21.1648C26.4817 21.013 26.5466 20.9696 26.7738 20.9696C26.9344 20.9696 27.0658 21.0135 27.0658 21.0672C27.0658 21.1209 27.1535 21.1648 27.2605 21.1648C27.3676 21.1648 27.4553 21.1209 27.4553 21.0672C27.4553 21.013 27.7149 20.9696 28.0394 20.9696C28.3607 20.9696 28.6236 20.9445 28.6236 20.9139C28.6236 20.8832 28.5505 20.7848 28.461 20.6952C28.3428 20.5766 28.2875 20.5652 28.2582 20.6533C28.1964 20.8393 26.9947 20.8146 26.8039 20.6233C26.721 20.5403 26.6827 20.4428 26.7187 20.4066C26.7549 20.3705 26.8292 20.4055 26.8839 20.4845C26.9591 20.5931 26.9953 20.5984 27.0326 20.506C27.0912 20.3615 27.8447 20.3389 27.8447 20.4816C27.8447 20.6229 28.2087 20.6018 28.2673 20.4572C28.3052 20.3636 28.339 20.3674 28.4126 20.4731C28.4943 20.5905 28.5315 20.5879 28.6634 20.4557C28.7486 20.3703 28.8183 20.2753 28.8183 20.2446C28.8183 20.2139 28.5554 20.1889 28.2341 20.1889C27.9096 20.1889 27.65 20.1455 27.65 20.0913C27.65 19.9466 26.7039 19.9694 26.6358 20.1157C26.5904 20.2133 26.5676 20.2133 26.5223 20.1157C26.4551 19.9715 25.7028 19.9491 25.7028 20.0913C25.7028 20.1449 25.6152 20.1889 25.5081 20.1889C25.401 20.1889 25.3134 20.1449 25.3134 20.0913C25.3134 20.0376 25.1819 19.9937 25.0213 19.9937C24.8606 19.9937 24.7292 19.9497 24.7292 19.8961C24.7292 19.8424 24.6416 19.7985 24.5345 19.7985C24.4274 19.7985 24.3398 19.8424 24.3398 19.8961C24.3398 19.9497 24.1207 19.9937 23.853 19.9937C23.5852 19.9937 23.3662 19.9497 23.3662 19.8961C23.3662 19.7586 23.2419 19.7811 23.0984 19.9445ZM10.1253 20.0913C10.1253 20.1449 10.213 20.1889 10.3201 20.1889C10.4272 20.1889 10.5148 20.1449 10.5148 20.0913C10.5148 20.0376 10.4272 19.9937 10.3201 19.9937C10.213 19.9937 10.1253 20.0376 10.1253 20.0913ZM10.9042 20.2864C10.9042 20.3401 10.948 20.384 11.0016 20.384C11.0551 20.384 11.0989 20.3401 11.0989 20.2864C11.0989 20.2328 11.0551 20.1889 11.0016 20.1889C10.948 20.1889 10.9042 20.2328 10.9042 20.2864ZM12.462 20.2864C12.462 20.3401 12.6372 20.384 12.8514 20.384C13.0656 20.384 13.2408 20.3401 13.2408 20.2864C13.2408 20.2328 13.0656 20.1889 12.8514 20.1889C12.6372 20.1889 12.462 20.2328 12.462 20.2864ZM17.3299 20.2864C17.3299 20.3401 17.3737 20.384 17.4273 20.384C17.4808 20.384 17.5246 20.3401 17.5246 20.2864C17.5246 20.2328 17.4808 20.1889 17.4273 20.1889C17.3737 20.1889 17.3299 20.2328 17.3299 20.2864ZM9.93063 20.6768C9.93063 20.7305 9.97444 20.7744 10.028 20.7744C10.0815 20.7744 10.1253 20.7305 10.1253 20.6768C10.1253 20.6232 10.0815 20.5792 10.028 20.5792C9.97444 20.5792 9.93063 20.6232 9.93063 20.6768ZM11.2937 20.6768C11.2937 20.7305 11.3813 20.7744 11.4884 20.7744C11.5955 20.7744 11.6831 20.7305 11.6831 20.6768C11.6831 20.6232 11.5955 20.5792 11.4884 20.5792C11.3813 20.5792 11.2937 20.6232 11.2937 20.6768ZM16.3563 20.7744C16.3563 20.8818 16.3125 20.9696 16.259 20.9696C16.2054 20.9696 16.1616 21.0575 16.1616 21.1648C16.1616 21.2949 16.2266 21.36 16.3563 21.36C16.5078 21.36 16.551 21.2949 16.551 21.0672C16.551 20.9062 16.5949 20.7744 16.6484 20.7744C16.702 20.7744 16.7458 20.8183 16.7458 20.872C16.7458 20.9257 16.921 20.9696 17.1352 20.9696C17.3494 20.9696 17.5246 20.9257 17.5246 20.872C17.5246 20.8183 17.437 20.7744 17.3299 20.7744C17.2228 20.7744 17.1352 20.7305 17.1352 20.6768C17.1352 20.6232 16.96 20.5792 16.7458 20.5792C16.4213 20.5792 16.3563 20.6117 16.3563 20.7744ZM17.9141 20.6768C17.9141 20.7305 17.9579 20.7744 18.0114 20.7744C18.065 20.7744 18.1088 20.7305 18.1088 20.6768C18.1088 20.6232 18.065 20.5792 18.0114 20.5792C17.9579 20.5792 17.9141 20.6232 17.9141 20.6768ZM18.4982 20.7744C18.4982 20.8818 18.542 20.9696 18.5956 20.9696C18.6491 20.9696 18.6929 20.9257 18.6929 20.872C18.6929 20.8183 18.8244 20.7744 18.985 20.7744C19.1457 20.7744 19.2771 20.7305 19.2771 20.6768C19.2771 20.6232 19.1019 20.5792 18.8877 20.5792C18.5632 20.5792 18.4982 20.6117 18.4982 20.7744ZM22.3926 20.9696C22.3926 21.1843 22.4364 21.36 22.49 21.36C22.5435 21.36 22.5873 21.1843 22.5873 20.9696C22.5873 20.7549 22.5435 20.5792 22.49 20.5792C22.4364 20.5792 22.3926 20.7549 22.3926 20.9696ZM24.3398 20.7744C24.3398 21.0056 24.4015 21.0193 24.5901 20.8302C24.7788 20.6411 24.7651 20.5792 24.5345 20.5792C24.4047 20.5792 24.3398 20.6443 24.3398 20.7744ZM25.4351 20.7252C25.2664 20.9172 25.2821 20.9696 25.5081 20.9696C25.6379 20.9696 25.7028 21.0347 25.7028 21.1648C25.7028 21.2722 25.659 21.36 25.6054 21.36C25.5519 21.36 25.5081 21.4478 25.5081 21.5552C25.5081 21.7864 25.5698 21.8001 25.7584 21.6109C25.8384 21.5308 25.8975 21.2819 25.8975 21.0253C25.8975 20.6641 25.8651 20.5799 25.7271 20.5829C25.6335 20.585 25.502 20.649 25.4351 20.7252ZM28.8426 21.0232C28.6151 21.2596 28.4289 21.476 28.4289 21.5042C28.4289 21.5322 28.6041 21.5552 28.8183 21.5552C29.1861 21.5552 29.2077 21.5389 29.2077 21.2624C29.2077 21.1014 29.2515 20.9696 29.3051 20.9696C29.3586 20.9696 29.4024 21.0135 29.4024 21.0672C29.4024 21.2323 30.8529 21.1887 31.0228 21.0184C31.1526 20.8883 31.1526 20.8557 31.0228 20.7256C30.8604 20.5628 30.1813 20.5235 30.1813 20.6768C30.1813 20.7305 30.0937 20.7744 29.9866 20.7744C29.8795 20.7744 29.7919 20.7305 29.7919 20.6768C29.7919 20.6232 29.6714 20.5825 29.5241 20.5863C29.3407 20.5911 29.1261 20.7288 28.8426 21.0232ZM23.7556 20.8639C23.7556 20.9131 23.8104 20.9757 23.8773 21.0029C23.9707 21.0409 23.967 21.0747 23.8615 21.1485C23.7444 21.2304 23.747 21.2677 23.8789 21.3999C24.1856 21.7073 25.5081 21.5616 25.5081 21.2205C25.5081 21.1072 24.7434 21.1691 24.6886 21.2868C24.6432 21.3844 24.6205 21.3844 24.5751 21.2868C24.5438 21.2198 24.4343 21.1648 24.3317 21.1648C24.21 21.1648 24.1451 21.0969 24.1451 20.9696C24.1451 20.8395 24.0801 20.7744 23.9503 20.7744C23.8432 20.7744 23.7556 20.8146 23.7556 20.8639ZM24.9239 20.872C24.9239 20.9257 24.9677 20.9696 25.0213 20.9696C25.0748 20.9696 25.1186 20.9257 25.1186 20.872C25.1186 20.8183 25.0748 20.7744 25.0213 20.7744C24.9677 20.7744 24.9239 20.8183 24.9239 20.872ZM14.9203 21.1156C14.7517 21.3076 14.7673 21.36 14.9933 21.36C15.1231 21.36 15.188 21.2949 15.188 21.1648C15.188 20.9376 15.0921 20.9199 14.9203 21.1156ZM17.7194 21.2624C17.7194 21.3161 17.7632 21.36 17.8167 21.36C17.8703 21.36 17.9141 21.3161 17.9141 21.2624C17.9141 21.2087 17.8703 21.1648 17.8167 21.1648C17.7632 21.1648 17.7194 21.2087 17.7194 21.2624ZM18.6929 21.36C18.6929 21.4724 18.7579 21.5552 18.8459 21.5552C19.0328 21.5552 19.3255 21.2784 19.2348 21.1874C19.1986 21.1512 19.1243 21.1863 19.0696 21.2652C18.9944 21.3739 18.9582 21.3791 18.9209 21.2868C18.8435 21.0956 18.6929 21.1439 18.6929 21.36ZM19.7882 21.3108C19.6164 21.5064 19.6371 21.7504 19.8255 21.7504C19.913 21.7504 20.0666 21.6555 20.1669 21.5396C20.2672 21.4235 20.3806 21.3601 20.4188 21.3985C20.4571 21.4368 20.4253 21.5074 20.3481 21.5552C20.2708 21.603 20.2452 21.6775 20.2912 21.7207C20.3371 21.7639 20.3943 21.7443 20.4182 21.6772C20.4421 21.6101 20.5268 21.5552 20.6065 21.5552C20.793 21.5552 21.0754 21.2742 20.9791 21.1845C20.9386 21.1469 20.886 21.171 20.8621 21.238C20.8106 21.3825 20.4454 21.4038 20.4454 21.2624C20.4454 21.1146 19.927 21.1528 19.7882 21.3108ZM22.782 21.2205C22.782 21.3634 23.085 21.5552 23.3106 21.5552C23.496 21.5552 23.5609 21.5045 23.5609 21.36C23.5609 21.1404 23.2256 21.0833 23.1309 21.2868C23.0855 21.3844 23.0627 21.3844 23.0173 21.2868C22.9607 21.1651 22.782 21.1148 22.782 21.2205ZM12.2672 21.4576C12.2672 21.5113 12.3111 21.5552 12.3646 21.5552C12.4182 21.5552 12.462 21.5113 12.462 21.4576C12.462 21.4039 12.4182 21.36 12.3646 21.36C12.3111 21.36 12.2672 21.4039 12.2672 21.4576ZM21.419 21.4576C21.419 21.5113 21.5066 21.5552 21.6137 21.5552C21.7208 21.5552 21.8084 21.5113 21.8084 21.4576C21.8084 21.4039 21.7208 21.36 21.6137 21.36C21.5066 21.36 21.419 21.4039 21.419 21.4576ZM22.0032 21.4576C22.0032 21.5113 22.047 21.5552 22.1005 21.5552C22.1541 21.5552 22.1979 21.5113 22.1979 21.4576C22.1979 21.4039 22.1541 21.36 22.1005 21.36C22.047 21.36 22.0032 21.4039 22.0032 21.4576ZM15.7722 21.6528C15.7722 21.7065 15.9474 21.7504 16.1616 21.7504C16.3758 21.7504 16.551 21.7065 16.551 21.6528C16.551 21.5991 16.3758 21.5552 16.1616 21.5552C15.9474 21.5552 15.7722 21.5991 15.7722 21.6528ZM27.0658 21.6109C27.0658 21.6417 27.1284 21.7295 27.205 21.8061C27.3629 21.9645 28.2341 21.9999 28.2341 21.848C28.2341 21.7943 28.0589 21.7504 27.8447 21.7504C27.6305 21.7504 27.4553 21.7065 27.4553 21.6528C27.4553 21.5991 27.3676 21.5552 27.2605 21.5552C27.1535 21.5552 27.0658 21.5803 27.0658 21.6109ZM25.1186 22.1408C25.1186 22.2481 25.1625 22.336 25.216 22.336C25.2696 22.336 25.3134 22.2481 25.3134 22.1408C25.3134 22.0334 25.2696 21.9456 25.216 21.9456C25.1625 21.9456 25.1186 22.0334 25.1186 22.1408ZM26.0922 22.1408C26.0922 22.2481 26.1361 22.336 26.1896 22.336C26.2431 22.336 26.287 22.2481 26.287 22.1408C26.287 22.0334 26.2431 21.9456 26.1896 21.9456C26.1361 21.9456 26.0922 22.0334 26.0922 22.1408ZM22.9767 22.2384C22.9767 22.292 23.0644 22.336 23.1715 22.336C23.2786 22.336 23.3662 22.292 23.3662 22.2384C23.3662 22.1847 23.2786 22.1408 23.1715 22.1408C23.0644 22.1408 22.9767 22.1847 22.9767 22.2384ZM24.1451 22.2384C24.1451 22.292 24.1889 22.336 24.2424 22.336C24.296 22.336 24.3398 22.292 24.3398 22.2384C24.3398 22.1847 24.296 22.1408 24.2424 22.1408C24.1889 22.1408 24.1451 22.1847 24.1451 22.2384ZM16.1616 23.0191C16.1616 23.0728 16.2492 23.1167 16.3563 23.1167C16.4634 23.1167 16.551 23.0728 16.551 23.0191C16.551 22.9655 16.4634 22.9215 16.3563 22.9215C16.2492 22.9215 16.1616 22.9655 16.1616 23.0191ZM18.4982 23.2143C18.4982 23.268 18.542 23.3119 18.5956 23.3119C18.6491 23.3119 18.6929 23.268 18.6929 23.2143C18.6929 23.1607 18.6491 23.1167 18.5956 23.1167C18.542 23.1167 18.4982 23.1607 18.4982 23.2143ZM18.4982 23.7999C18.4982 23.8536 18.5859 23.8975 18.6929 23.8975C18.8 23.8975 18.8877 23.8536 18.8877 23.7999C18.8877 23.7462 18.8 23.7023 18.6929 23.7023C18.5859 23.7023 18.4982 23.7462 18.4982 23.7999ZM19.0824 23.9951C19.0824 24.2228 19.1256 24.2879 19.2771 24.2879C19.4286 24.2879 19.4718 24.2228 19.4718 23.9951C19.4718 23.7674 19.4286 23.7023 19.2771 23.7023C19.1256 23.7023 19.0824 23.7674 19.0824 23.9951ZM20.056 23.8894C20.056 23.9923 20.0013 24.096 19.9343 24.12C19.8635 24.1453 19.8487 24.1998 19.8989 24.2501C19.9492 24.3005 20.0035 24.2856 20.0287 24.2147C20.0527 24.1476 20.2 24.0927 20.3561 24.0927C20.5752 24.0927 20.6401 24.0481 20.6401 23.8975C20.6401 23.7456 20.5752 23.7023 20.3481 23.7023C20.1251 23.7023 20.056 23.7466 20.056 23.8894ZM21.8084 23.8975C21.8084 24.0049 21.8523 24.0927 21.9058 24.0927C21.9593 24.0927 22.0032 24.0049 22.0032 23.8975C22.0032 23.7902 21.9593 23.7023 21.9058 23.7023C21.8523 23.7023 21.8084 23.7902 21.8084 23.8975ZM22.5873 23.8975C22.5873 24.1128 22.434 24.1634 22.3653 23.9707C22.3415 23.9037 22.2888 23.8795 22.2483 23.9172C22.0709 24.0825 22.4934 24.2879 23.0103 24.2879C23.3426 24.2879 23.5662 24.3341 23.6015 24.4099C23.6469 24.5075 23.6697 24.5075 23.715 24.4099C23.785 24.2596 25.3134 24.2363 25.3134 24.3855C25.3134 24.4392 25.5324 24.4831 25.8002 24.4831C26.0679 24.4831 26.287 24.4392 26.287 24.3855C26.287 24.3259 26.7413 24.2879 27.4553 24.2879C28.1692 24.2879 28.6236 24.2499 28.6236 24.1903C28.6236 24.1366 28.4045 24.0927 28.1368 24.0927C27.869 24.0927 27.65 24.0488 27.65 23.9951C27.65 23.8539 27.286 23.875 27.2273 24.0195C27.1903 24.1113 27.1521 24.1053 27.0732 23.9951C26.9802 23.865 26.9577 23.865 26.8711 23.9951C26.7846 24.1252 26.7621 24.1252 26.669 23.9951C26.5901 23.8849 26.552 23.8789 26.5149 23.9707C26.4563 24.1152 25.7028 24.1379 25.7028 23.9951C25.7028 23.9414 25.4837 23.8975 25.216 23.8975C24.9483 23.8975 24.7292 23.8536 24.7292 23.7999C24.7292 23.7462 24.554 23.7023 24.3398 23.7023C24.1256 23.7023 23.9503 23.7462 23.9503 23.7999C23.9503 23.8536 23.8627 23.8975 23.7556 23.8975C23.6485 23.8975 23.5609 23.8536 23.5609 23.7999C23.5609 23.7462 23.3418 23.7023 23.0741 23.7023C22.6523 23.7023 22.5873 23.7284 22.5873 23.8975ZM17.3299 23.9951C17.3299 24.0488 17.4175 24.0927 17.5246 24.0927C17.6317 24.0927 17.7194 24.0488 17.7194 23.9951C17.7194 23.9414 17.6317 23.8975 17.5246 23.8975C17.4175 23.8975 17.3299 23.9414 17.3299 23.9951ZM20.8348 23.9735C20.8348 24.0154 20.9225 24.1129 21.0296 24.1903C21.1367 24.2677 21.2243 24.4091 21.2243 24.5047C21.2243 24.6001 21.2681 24.6783 21.3216 24.6783C21.3752 24.6783 21.419 24.5904 21.419 24.4831C21.419 24.3757 21.3752 24.2879 21.3216 24.2879C21.2681 24.2879 21.2243 24.2001 21.2243 24.0927C21.2243 23.9626 21.1593 23.8975 21.0296 23.8975C20.9225 23.8975 20.8348 23.9318 20.8348 23.9735ZM23.3662 23.9951C23.3662 24.0488 23.3224 24.0927 23.2688 24.0927C23.2153 24.0927 23.1715 24.0488 23.1715 23.9951C23.1715 23.9414 23.2153 23.8975 23.2688 23.8975C23.3224 23.8975 23.3662 23.9414 23.3662 23.9951ZM28.94 24.0435C28.76 24.2484 28.7875 24.2879 29.1104 24.2879C29.437 24.2879 29.4661 24.2402 29.2633 24.037C29.0959 23.869 29.0931 23.8691 28.94 24.0435ZM21.6137 24.4831C21.6137 24.5904 21.6575 24.6783 21.7111 24.6783C21.7646 24.6783 21.8084 24.5904 21.8084 24.4831C21.8084 24.3757 21.7646 24.2879 21.7111 24.2879C21.6575 24.2879 21.6137 24.3757 21.6137 24.4831ZM7.78873 30.8268C7.78873 30.8805 7.92016 30.9244 8.08081 30.9244C8.24145 30.9244 8.37288 30.8805 8.37288 30.8268C8.37288 30.7732 8.50432 30.7292 8.66496 30.7292C8.8256 30.7292 8.95704 30.7732 8.95704 30.8268C8.95704 30.8805 9.04466 30.9244 9.15176 30.9244C9.25885 30.9244 9.34647 30.9684 9.34647 31.022C9.34647 31.0757 9.4341 31.1196 9.54119 31.1196C9.64829 31.1196 9.73591 31.0757 9.73591 31.022C9.73591 30.9684 9.82353 30.9244 9.93063 30.9244C10.0377 30.9244 10.1253 30.8805 10.1253 30.8268C10.1253 30.7732 10.2568 30.7292 10.4174 30.7292C10.5781 30.7292 10.7095 30.7732 10.7095 30.8268C10.7095 30.8846 11.0638 30.9244 11.5777 30.9244C12.1809 30.9244 12.4608 30.9616 12.4952 31.0464C12.5323 31.1383 12.5704 31.1322 12.6493 31.022C12.7424 30.8919 12.7648 30.8919 12.8514 31.022C12.938 31.1521 12.9604 31.1521 13.0535 31.022C13.1324 30.9118 13.1705 30.9058 13.2076 30.9976C13.2348 31.0648 13.3374 31.1196 13.4356 31.1196C13.5337 31.1196 13.6396 31.0648 13.6709 30.9976C13.7162 30.9 13.739 30.9 13.7844 30.9976C13.8279 31.0909 14.48 31.1196 16.5591 31.1196C18.3062 31.1196 19.2771 31.1545 19.2771 31.2172C19.2771 31.2799 20.2183 31.3148 21.9058 31.3148C23.5933 31.3148 24.5345 31.3498 24.5345 31.4124C24.5345 31.4661 24.6659 31.51 24.8266 31.51C24.9872 31.51 25.1186 31.4661 25.1186 31.4124C25.1186 31.3494 26.222 31.3148 28.2341 31.3148C30.2463 31.3148 31.3496 31.3494 31.3496 31.4124C31.3496 31.4661 31.4811 31.51 31.6417 31.51C31.8024 31.51 31.9338 31.5539 31.9338 31.6076C31.9338 31.6613 32.0214 31.7052 32.1285 31.7052C32.2356 31.7052 32.3232 31.7491 32.3232 31.8028C32.3232 31.8565 32.437 31.9004 32.5763 31.9004C32.7318 31.9004 32.9343 32.0131 33.1021 32.1932C33.2521 32.3542 33.4237 32.486 33.4833 32.486C33.5429 32.486 33.9634 32.8587 34.4178 33.3142C35.0164 33.9141 35.244 34.2099 35.244 34.3877C35.244 34.5227 35.2878 34.6331 35.3414 34.6331C35.4822 34.6331 35.4612 34.998 35.317 35.0568C35.2251 35.094 35.231 35.1338 35.3414 35.2187C35.4517 35.3036 35.4576 35.3433 35.3657 35.3806C35.2987 35.4078 35.244 35.5582 35.244 35.7147C35.244 35.8714 35.2002 35.9994 35.1466 35.9994C35.0931 35.9994 35.0493 36.0673 35.0493 36.1502C35.0493 36.3455 34.6156 36.7802 34.4208 36.7802C34.3381 36.7802 34.2704 36.8241 34.2704 36.8778C34.2704 36.9315 34.1828 36.9754 34.0757 36.9754C33.9097 36.9754 33.881 37.0405 33.881 37.4164C33.881 37.8289 33.8402 37.8983 33.25 38.49L32.6189 39.1225H31.603C30.8814 39.1225 30.5727 39.1578 30.5376 39.2445C30.5004 39.3366 30.4607 39.3307 30.376 39.2201C30.2913 39.1095 30.2517 39.1036 30.2145 39.1957C30.1868 39.2641 29.9976 39.3177 29.7838 39.3177C29.574 39.3177 29.4024 39.3616 29.4024 39.4153C29.4024 39.4739 29.013 39.5129 28.4289 39.5129C27.8447 39.5129 27.4553 39.5519 27.4553 39.6105C27.4553 39.6642 27.3238 39.7081 27.1632 39.7081C27.0025 39.7081 26.8711 39.6642 26.8711 39.6105C26.8711 39.4697 26.5085 39.4902 26.4411 39.6349C26.3957 39.7325 26.3729 39.7325 26.3276 39.6349C26.2861 39.5459 25.9062 39.5129 24.9239 39.5129C23.9417 39.5129 23.5618 39.4799 23.5203 39.3909C23.4749 39.2933 23.4522 39.2933 23.4068 39.3909C23.338 39.5387 22.1979 39.5616 22.1979 39.4153C22.1979 39.3616 21.9788 39.3177 21.7111 39.3177C21.4433 39.3177 21.2243 39.2738 21.2243 39.2201C21.2243 39.1664 21.049 39.1225 20.8348 39.1225C20.6207 39.1225 20.4454 39.0786 20.4454 39.0249C20.4454 38.9712 20.2702 38.9273 20.056 38.9273C19.8418 38.9273 19.6665 38.8834 19.6665 38.8297C19.6665 38.776 19.4913 38.7321 19.2771 38.7321C18.9526 38.7321 18.8877 38.6996 18.8877 38.5369C18.8877 38.4068 18.8227 38.3417 18.6929 38.3417C18.5859 38.3417 18.4982 38.3857 18.4982 38.4393C18.4982 38.6159 18.1841 38.5412 17.9854 38.3173C17.8532 38.1684 17.7764 38.137 17.7468 38.2197C17.6949 38.3646 16.9405 38.3874 16.9405 38.2441C16.9405 38.1905 17.0719 38.1466 17.2326 38.1466C17.3932 38.1466 17.5246 38.1215 17.5246 38.0908C17.5246 37.9479 17.2217 37.7562 16.9961 37.7562C16.8584 37.7562 16.7458 37.7122 16.7458 37.6586C16.7458 37.5982 16.2266 37.561 15.3827 37.561C14.5389 37.561 14.0197 37.5238 14.0197 37.4634C14.0197 37.4097 13.8883 37.3658 13.7276 37.3658C13.567 37.3658 13.4356 37.3219 13.4356 37.2682C13.4356 37.2145 13.2165 37.1706 12.9488 37.1706C12.681 37.1706 12.462 37.1267 12.462 37.073C12.462 37.0193 12.2179 36.9754 11.9196 36.9754C11.3613 36.9754 11.0989 36.8372 11.0989 36.5431C11.0989 36.4378 11.0075 36.3898 10.8069 36.3898C10.6462 36.3898 10.5148 36.3459 10.5148 36.2922C10.5148 36.2385 10.3833 36.1946 10.2227 36.1946C10.0621 36.1946 9.93063 36.1507 9.93063 36.097C9.93063 36.0428 9.67097 35.9994 9.34647 35.9994C9.02198 35.9994 8.76232 35.9561 8.76232 35.9018C8.76232 35.8461 8.47024 35.8042 8.08081 35.8042C7.69137 35.8042 7.39929 35.7624 7.39929 35.7066C7.39929 35.653 7.2775 35.609 7.12873 35.609C6.96984 35.609 6.80024 35.5284 6.71778 35.4139C6.64057 35.3065 6.50914 35.2187 6.4257 35.2187C6.34226 35.2187 6.21083 35.1308 6.13362 35.0235C6.0385 34.8912 5.88156 34.8283 5.64683 34.8283C5.4121 34.8283 5.25515 34.7653 5.16003 34.6331C5.08283 34.5257 4.94175 34.4379 4.84644 34.4379C4.75122 34.4379 4.67324 34.394 4.67324 34.3403C4.67324 34.2866 4.71705 34.2427 4.7706 34.2427C4.91167 34.2427 4.89035 33.8766 4.74626 33.8248C4.6637 33.7951 4.69505 33.7181 4.84362 33.5856C5.10152 33.3556 5.11992 33.2667 4.90972 33.2667C4.76213 33.2667 4.47852 33.0467 4.47852 32.9321C4.47852 32.9014 4.80905 32.8764 5.21309 32.8764C5.87981 32.8764 5.97181 32.8522 6.2083 32.6152C6.37488 32.4482 6.42599 32.3397 6.34996 32.3143C6.08991 32.2273 6.25299 32.0956 6.62042 32.0956C6.97383 32.0956 7.00986 32.0724 7.00986 31.8447C7.00986 31.5245 7.21898 31.3148 7.53842 31.3148C7.67608 31.3148 7.78873 31.2709 7.78873 31.2172C7.78873 31.1635 7.74492 31.1196 7.69137 31.1196C7.63782 31.1196 7.59401 31.0318 7.59401 30.9244C7.59401 30.8171 7.63782 30.7292 7.69137 30.7292C7.74492 30.7292 7.78873 30.7732 7.78873 30.8268ZM10.9042 32.974C10.9042 33.0276 10.948 33.0715 11.0016 33.0715C11.0551 33.0715 11.0989 33.0276 11.0989 32.974C11.0989 32.9203 11.0551 32.8764 11.0016 32.8764C10.948 32.8764 10.9042 32.9203 10.9042 32.974ZM6.23098 33.4619C6.23098 33.6441 6.29592 33.6571 7.20457 33.6571C7.78873 33.6571 8.17816 33.6962 8.17816 33.7547C8.17816 33.8956 8.54083 33.8751 8.6082 33.7303C8.65357 33.6327 8.67635 33.6327 8.72172 33.7303C8.77644 33.8478 9.15176 33.9078 9.15176 33.7991C9.15176 33.7698 9.03454 33.6283 8.89122 33.4847C8.72464 33.3177 8.61638 33.2664 8.59106 33.3427C8.53898 33.4992 8.01596 33.497 7.94285 33.3399C7.89748 33.2423 7.8747 33.2423 7.82933 33.3399C7.76195 33.4847 7.39929 33.5052 7.39929 33.3643C7.39929 33.3101 7.13964 33.2667 6.81514 33.2667C6.29592 33.2667 6.23098 33.2884 6.23098 33.4619ZM15.5775 33.3225C15.5775 33.3532 15.6506 33.4516 15.74 33.5413C15.8582 33.6598 15.9135 33.6712 15.9428 33.5831C15.965 33.5164 16.0671 33.4619 16.1697 33.4619C16.2723 33.4619 16.3563 33.418 16.3563 33.3643C16.3563 33.3107 16.1811 33.2667 15.9669 33.2667C15.7527 33.2667 15.5775 33.2918 15.5775 33.3225ZM16.7458 33.3643C16.7458 33.418 16.8736 33.4619 17.0298 33.4619C17.1859 33.4619 17.3393 33.5169 17.3705 33.5839C17.4159 33.6815 17.4387 33.6815 17.484 33.5839C17.5153 33.5169 17.6248 33.4619 17.7274 33.4619C17.8301 33.4619 17.9141 33.418 17.9141 33.3643C17.9141 33.3101 17.6544 33.2667 17.3299 33.2667C17.0054 33.2667 16.7458 33.3101 16.7458 33.3643ZM18.1088 33.3225C18.1088 33.395 18.3703 33.6571 18.4426 33.6571C18.4732 33.6571 18.4982 33.5693 18.4982 33.4619C18.4982 33.3318 18.4333 33.2667 18.3035 33.2667C18.1964 33.2667 18.1088 33.2918 18.1088 33.3225ZM18.8877 33.4619C18.8877 33.5693 18.9315 33.6571 18.985 33.6571C19.0386 33.6571 19.0824 33.5693 19.0824 33.4619C19.0824 33.3546 19.0386 33.2667 18.985 33.2667C18.9315 33.2667 18.8877 33.3546 18.8877 33.4619ZM20.056 33.3643C20.056 33.418 20.0998 33.4619 20.1533 33.4619C20.2069 33.4619 20.2507 33.418 20.2507 33.3643C20.2507 33.3107 20.2069 33.2667 20.1533 33.2667C20.0998 33.2667 20.056 33.3107 20.056 33.3643ZM21.2243 33.4619C21.2243 33.592 21.2892 33.6571 21.419 33.6571C21.6496 33.6571 21.6633 33.5952 21.4746 33.4062C21.286 33.2171 21.2243 33.2307 21.2243 33.4619ZM9.54119 33.6571C9.54119 33.8741 9.6883 33.9199 9.77651 33.7303C9.82188 33.6327 9.84466 33.6327 9.89003 33.7303C9.95721 33.8745 10.7095 33.8969 10.7095 33.7547C10.7095 33.701 10.7971 33.6571 10.9042 33.6571C11.0113 33.6571 11.0989 33.6132 11.0989 33.5595C11.0989 33.5026 10.7744 33.4619 10.3201 33.4619C9.60613 33.4619 9.54119 33.4782 9.54119 33.6571ZM11.6831 33.5595C11.6831 33.6132 11.7269 33.6571 11.7805 33.6571C11.834 33.6571 11.8778 33.6132 11.8778 33.5595C11.8778 33.5059 11.834 33.4619 11.7805 33.4619C11.7269 33.4619 11.6831 33.5059 11.6831 33.5595ZM20.4454 33.5595C20.4454 33.6132 20.4892 33.6571 20.5428 33.6571C20.5963 33.6571 20.6401 33.6132 20.6401 33.5595C20.6401 33.5059 20.5963 33.4619 20.5428 33.4619C20.4892 33.4619 20.4454 33.5059 20.4454 33.5595ZM13.6303 33.9499C13.6303 34.0036 13.6741 34.0475 13.7276 34.0475C13.7812 34.0475 13.825 34.0914 13.825 34.1451C13.825 34.2037 13.4356 34.2427 12.8514 34.2427C12.2672 34.2427 11.8778 34.2037 11.8778 34.1451C11.8778 34.0845 11.34 34.0475 10.4592 34.0475C9.35942 34.0475 9.00922 34.0788 8.90145 34.187C8.82492 34.2636 8.76232 34.3514 8.76232 34.3822C8.76232 34.4128 9.15662 34.4379 9.63855 34.4379H10.5148V34.7307C10.5148 35.028 10.6466 35.1237 10.7501 34.9015C10.7955 34.8039 10.8183 34.8039 10.8636 34.9015C10.9309 35.0458 11.4884 35.0676 11.4884 34.9259C11.4884 34.8722 11.4446 34.8283 11.391 34.8283C11.3375 34.8283 11.2937 34.7844 11.2937 34.7307C11.2937 34.6721 11.6831 34.6331 12.2672 34.6331C12.8514 34.6331 13.2408 34.594 13.2408 34.5355C13.2408 34.4818 13.3723 34.4379 13.5329 34.4379C13.6936 34.4379 13.825 34.4818 13.825 34.5355C13.825 34.5892 13.9126 34.6331 14.0197 34.6331C14.1268 34.6331 14.2144 34.5892 14.2144 34.5355C14.2144 34.4818 14.3021 34.4379 14.4091 34.4379C14.5389 34.4379 14.6039 34.3728 14.6039 34.2427C14.6039 34.1353 14.6477 34.0475 14.7012 34.0475C14.7548 34.0475 14.7986 34.1353 14.7986 34.2427C14.7986 34.5185 15.2536 34.5028 15.5061 34.2183C15.6383 34.0694 15.7151 34.0379 15.7447 34.1207C15.7964 34.2652 16.1616 34.2865 16.1616 34.1451C16.1616 34.0914 16.293 34.0475 16.4537 34.0475C16.6143 34.0475 16.7458 34.0036 16.7458 33.9499C16.7458 33.797 14.0507 33.8208 13.9791 33.9743C13.9337 34.0719 13.911 34.0719 13.8656 33.9743C13.7978 33.8288 13.6303 33.8114 13.6303 33.9499ZM16.9405 33.9499C16.9405 34.0036 16.9843 34.0475 17.0378 34.0475C17.0914 34.0475 17.1352 34.0036 17.1352 33.9499C17.1352 33.8962 17.0914 33.8523 17.0378 33.8523C16.9843 33.8523 16.9405 33.8962 16.9405 33.9499ZM6.23098 34.1451C6.23098 34.1988 6.27479 34.2427 6.32834 34.2427C6.38189 34.2427 6.4257 34.1988 6.4257 34.1451C6.4257 34.0914 6.38189 34.0475 6.32834 34.0475C6.27479 34.0475 6.23098 34.0914 6.23098 34.1451ZM7.39929 34.1451C7.39929 34.1988 7.57454 34.2427 7.78873 34.2427C8.00292 34.2427 8.17816 34.2866 8.17816 34.3403C8.17816 34.394 8.26579 34.4379 8.37288 34.4379C8.50266 34.4379 8.5676 34.3728 8.5676 34.2427C8.5676 34.0692 8.50266 34.0475 7.98345 34.0475C7.65895 34.0475 7.39929 34.0908 7.39929 34.1451ZM19.6665 34.1451C19.6665 34.1988 19.5789 34.2427 19.4718 34.2427C19.342 34.2427 19.2771 34.3078 19.2771 34.4379C19.2771 34.5453 19.2429 34.6331 19.2013 34.6331C19.1595 34.6331 19.0622 34.5453 18.985 34.4379C18.8196 34.2079 18.6353 34.1889 18.4426 34.3822C18.205 34.6203 18.2725 34.8283 18.5875 34.8283C18.7437 34.8283 18.897 34.8832 18.9283 34.9503C18.9736 35.0479 18.9964 35.0479 19.0418 34.9503C19.1092 34.8055 19.4718 34.785 19.4718 34.9259C19.4718 34.9796 19.5594 35.0235 19.6665 35.0235C19.7736 35.0235 19.8613 34.9796 19.8613 34.9259C19.8613 34.785 20.2239 34.8055 20.2913 34.9503C20.3367 35.0479 20.3594 35.0479 20.4048 34.9503C20.439 34.877 20.6526 34.8283 20.9403 34.8283C21.4501 34.8283 21.569 34.6719 21.2799 34.3822C21.1198 34.2216 20.056 34.1852 20.056 34.3403C20.056 34.394 20.0122 34.4379 19.9586 34.4379C19.9051 34.4379 19.8613 34.3501 19.8613 34.2427C19.8613 34.1353 19.8174 34.0475 19.7639 34.0475C19.7104 34.0475 19.6665 34.0914 19.6665 34.1451ZM21.6137 34.2984C21.6137 34.4365 21.6763 34.6122 21.7528 34.6888C21.9262 34.8627 22.7436 34.8761 22.8226 34.7063C22.868 34.6087 22.8908 34.6087 22.9361 34.7063C23.0034 34.8506 23.5609 34.8724 23.5609 34.7307C23.5609 34.5899 23.9236 34.6103 23.9909 34.7551C24.0363 34.8527 24.0591 34.8527 24.1045 34.7551C24.1357 34.688 24.2416 34.6331 24.3398 34.6331C24.4379 34.6331 24.5438 34.688 24.5751 34.7551C24.6205 34.8527 24.6432 34.8527 24.6886 34.7551C24.756 34.6103 25.1186 34.5899 25.1186 34.7307C25.1186 34.7844 25.2063 34.8283 25.3134 34.8283C25.4205 34.8283 25.5081 34.8722 25.5081 34.9259C25.5081 34.9796 25.289 35.0235 25.0213 35.0235C24.7536 35.0235 24.5345 35.0674 24.5345 35.1211C24.5345 35.1747 24.6221 35.2187 24.7292 35.2187C24.8363 35.2187 24.9239 35.2626 24.9239 35.3163C24.9239 35.4574 25.2896 35.4365 25.3374 35.2927C25.3911 35.1315 25.7028 35.4371 25.7028 35.6509C25.7028 35.7391 25.7854 35.8042 25.8975 35.8042C26.0273 35.8042 26.0922 35.7391 26.0922 35.609C26.0922 35.4464 26.1572 35.4139 26.4817 35.4139C26.8062 35.4139 26.8711 35.4464 26.8711 35.609C26.8711 35.7717 26.9361 35.8042 27.2605 35.8042C27.4747 35.8042 27.65 35.8482 27.65 35.9018C27.65 35.9555 27.4747 35.9994 27.2605 35.9994C27.0464 35.9994 26.8711 36.0434 26.8711 36.097C26.8711 36.1507 27.0464 36.1946 27.2605 36.1946C27.4747 36.1946 27.65 36.2385 27.65 36.2922C27.65 36.3459 27.7376 36.3898 27.8447 36.3898C27.9518 36.3898 28.0394 36.3459 28.0394 36.2922C28.0394 36.2385 27.9956 36.1946 27.9421 36.1946C27.8885 36.1946 27.8447 36.1068 27.8447 35.9994C27.8447 35.8476 27.9096 35.8042 28.1368 35.8042C28.4711 35.8042 28.5282 35.5971 28.2663 35.3346C28.1481 35.216 28.0928 35.2046 28.0635 35.2927C27.9867 35.5238 27.8447 35.4124 27.8447 35.1211C27.8447 34.8608 27.8123 34.8283 27.5526 34.8283C27.392 34.8283 27.2605 34.8722 27.2605 34.9259C27.2605 35.0727 26.119 35.0494 26.059 34.9015C26.0218 34.8092 25.9855 34.8144 25.9103 34.923C25.8556 35.002 25.7813 35.037 25.7452 35.0009C25.7091 34.9647 25.7474 34.8672 25.8303 34.7842C25.9489 34.6652 26.2206 34.6331 27.1076 34.6331C27.7272 34.6331 28.2341 34.6734 28.2341 34.7226C28.2341 34.7718 28.1798 34.8301 28.1133 34.8524C27.9525 34.9062 28.2573 35.2187 28.4706 35.2187C28.5586 35.2187 28.6236 35.3014 28.6236 35.4139C28.6236 35.5212 28.6674 35.609 28.7209 35.609C28.7745 35.609 28.8183 35.4334 28.8183 35.2187V34.8283H29.2633C29.6541 34.8283 29.9866 34.9821 29.9866 35.1629C29.9866 35.1936 29.7675 35.2187 29.4998 35.2187C29.2321 35.2187 29.013 35.2626 29.013 35.3163C29.013 35.3699 29.0846 35.4139 29.172 35.4139C29.2594 35.4139 29.4186 35.5126 29.5258 35.6334C29.658 35.7824 29.7348 35.8138 29.7644 35.731C29.7926 35.6524 30.0099 35.609 30.376 35.609C30.7391 35.609 30.9618 35.565 30.9934 35.4871C31.0313 35.3935 31.0651 35.3972 31.1387 35.5029C31.2203 35.6203 31.2575 35.6177 31.3895 35.4855C31.4746 35.4001 31.5444 35.3051 31.5444 35.2744C31.5444 35.2437 31.2377 35.2187 30.8628 35.2187C30.4734 35.2187 30.1813 35.1768 30.1813 35.1211C30.1813 35.0674 30.2251 35.0235 30.2787 35.0235C30.3322 35.0235 30.376 34.8917 30.376 34.7307V34.4379H29.716C29.1677 34.4379 29.0323 34.4709 28.9157 34.6331C28.8384 34.7404 28.6974 34.8283 28.6021 34.8283C28.4938 34.8283 28.4289 34.7552 28.4289 34.6331C28.4289 34.4704 28.3639 34.4379 28.0394 34.4379C27.8252 34.4379 27.65 34.394 27.65 34.3403C27.65 34.2846 27.3579 34.2427 26.9685 34.2427C26.579 34.2427 26.287 34.2008 26.287 34.1451C26.287 34.0914 26.1993 34.0475 26.0922 34.0475C25.9851 34.0475 25.8975 34.0914 25.8975 34.1451C25.8975 34.1988 25.6785 34.2427 25.4107 34.2427C25.143 34.2427 24.9239 34.1988 24.9239 34.1451C24.9239 33.9686 24.6098 34.0432 24.4111 34.2671C24.2789 34.416 24.2021 34.4475 24.1725 34.3647C24.1477 34.2953 23.9644 34.2427 23.7475 34.2427C23.5377 34.2427 23.3662 34.1988 23.3662 34.1451C23.3662 34.0914 23.2348 34.0475 23.0741 34.0475C22.9135 34.0475 22.782 34.0914 22.782 34.1451C22.782 34.1988 22.563 34.2427 22.2952 34.2427C22.0275 34.2427 21.8084 34.1988 21.8084 34.1451C21.8084 34.0914 21.7646 34.0475 21.7111 34.0475C21.6575 34.0475 21.6137 34.1604 21.6137 34.2984ZM17.9141 34.3403C17.9141 34.394 17.9579 34.4379 18.0114 34.4379C18.065 34.4379 18.1088 34.394 18.1088 34.3403C18.1088 34.2866 18.065 34.2427 18.0114 34.2427C17.9579 34.2427 17.9141 34.2866 17.9141 34.3403ZM10.9042 34.5355C10.9042 34.5892 10.8604 34.6331 10.8069 34.6331C10.7533 34.6331 10.7095 34.5892 10.7095 34.5355C10.7095 34.4818 10.7533 34.4379 10.8069 34.4379C10.8604 34.4379 10.9042 34.4818 10.9042 34.5355ZM17.0622 34.5839C16.9164 34.7498 16.9013 35.0235 17.0378 35.0235C17.0914 35.0235 17.1352 34.9796 17.1352 34.9259C17.1352 34.7295 17.4537 34.8359 17.7194 35.1211C18.0458 35.4713 18.4982 35.528 18.4982 35.2187C18.4982 35.0741 18.4333 35.0235 18.2479 35.0235C17.9662 35.0235 17.7194 34.8216 17.7194 34.5912C17.7194 34.3949 17.233 34.3894 17.0622 34.5839ZM8.17816 34.7307C8.17816 34.7844 8.22198 34.8283 8.27552 34.8283C8.32907 34.8283 8.37288 34.7844 8.37288 34.7307C8.37288 34.677 8.32907 34.6331 8.27552 34.6331C8.22198 34.6331 8.17816 34.677 8.17816 34.7307ZM8.76232 34.7307C8.76232 34.7844 8.84994 34.8283 8.95704 34.8283C9.06413 34.8283 9.15176 34.7844 9.15176 34.7307C9.15176 34.677 9.06413 34.6331 8.95704 34.6331C8.84994 34.6331 8.76232 34.677 8.76232 34.7307ZM9.73591 34.7307C9.73591 34.7844 9.82353 34.8283 9.93063 34.8283C10.0377 34.8283 10.1253 34.7844 10.1253 34.7307C10.1253 34.677 10.0377 34.6331 9.93063 34.6331C9.82353 34.6331 9.73591 34.677 9.73591 34.7307ZM15.9669 34.7307C15.9669 34.7844 16.0107 34.8283 16.0643 34.8283C16.1178 34.8283 16.1616 34.7844 16.1616 34.7307C16.1616 34.677 16.1178 34.6331 16.0643 34.6331C16.0107 34.6331 15.9669 34.677 15.9669 34.7307ZM12.6567 35.0235C12.6567 35.1308 12.7005 35.2187 12.754 35.2187C12.8076 35.2187 12.8514 35.1747 12.8514 35.1211C12.8514 35.0674 12.939 35.0235 13.0461 35.0235C13.1532 35.0235 13.2408 35.0674 13.2408 35.1211C13.2408 35.1747 13.3285 35.2187 13.4356 35.2187C13.5653 35.2187 13.6303 35.1536 13.6303 35.0235C13.6303 34.8543 13.5653 34.8283 13.1435 34.8283C12.7216 34.8283 12.6567 34.8543 12.6567 35.0235ZM23.3905 35.0747C23.1313 35.3524 23.1193 35.4139 23.3244 35.4139C23.5212 35.4139 23.7556 35.1788 23.7556 34.9816C23.7556 34.7709 23.6489 34.7981 23.3905 35.0747ZM8.76232 35.2106C8.76232 35.3134 8.7076 35.4172 8.64062 35.4412C8.57373 35.4651 8.54969 35.5179 8.58727 35.5585C8.67879 35.6573 8.95704 35.37 8.95704 35.1768C8.95704 35.0925 8.91323 35.0235 8.85968 35.0235C8.80613 35.0235 8.76232 35.1077 8.76232 35.2106ZM15.5775 35.0792C15.5775 35.1938 15.8611 35.4139 16.0087 35.4139C16.1137 35.4139 16.1616 35.5055 16.1616 35.7066C16.1616 35.9343 16.2048 35.9994 16.3563 35.9994C16.4861 35.9994 16.551 35.9343 16.551 35.8042C16.551 35.6969 16.5072 35.609 16.4537 35.609C16.4001 35.609 16.3563 35.5651 16.3563 35.5115C16.3563 35.4578 16.444 35.4139 16.551 35.4139C16.6581 35.4139 16.7458 35.4578 16.7458 35.5115C16.7458 35.5651 16.8334 35.609 16.9405 35.609C17.0476 35.609 17.1352 35.5651 17.1352 35.5115C17.1352 35.4578 17.0476 35.4139 16.9405 35.4139C16.8334 35.4139 16.7458 35.3699 16.7458 35.3163C16.7458 35.2626 16.5267 35.2187 16.259 35.2187C15.9912 35.2187 15.7722 35.1747 15.7722 35.1211C15.7722 35.0674 15.7284 35.0235 15.6748 35.0235C15.6213 35.0235 15.5775 35.0486 15.5775 35.0792ZM17.3299 35.2187C17.3299 35.326 17.3737 35.4139 17.4273 35.4139C17.4808 35.4139 17.5246 35.326 17.5246 35.2187C17.5246 35.1113 17.4808 35.0235 17.4273 35.0235C17.3737 35.0235 17.3299 35.1113 17.3299 35.2187ZM21.6137 35.1971C21.6137 35.2926 21.7013 35.4341 21.8084 35.5115C21.9155 35.5888 22.0032 35.7303 22.0032 35.8258C22.0032 35.9343 22.0761 35.9994 22.1979 35.9994C22.305 35.9994 22.3926 35.9652 22.3926 35.9234C22.3926 35.8815 22.305 35.784 22.1979 35.7066C22.0908 35.6293 22.0032 35.5067 22.0032 35.4342C22.0032 35.3032 21.7758 35.0235 21.6693 35.0235C21.6387 35.0235 21.6137 35.1016 21.6137 35.1971ZM22.782 35.1211C22.782 35.1747 22.8258 35.2187 22.8794 35.2187C22.9329 35.2187 22.9767 35.1747 22.9767 35.1211C22.9767 35.0674 22.9329 35.0235 22.8794 35.0235C22.8258 35.0235 22.782 35.0674 22.782 35.1211ZM24.1451 35.2187C24.1451 35.326 24.1889 35.4139 24.2424 35.4139C24.296 35.4139 24.3398 35.326 24.3398 35.2187C24.3398 35.1113 24.296 35.0235 24.2424 35.0235C24.1889 35.0235 24.1451 35.1113 24.1451 35.2187ZM10.3201 35.4139C10.3201 35.5212 10.3639 35.609 10.4174 35.609C10.471 35.609 10.5148 35.5212 10.5148 35.4139C10.5148 35.3065 10.471 35.2187 10.4174 35.2187C10.3639 35.2187 10.3201 35.3065 10.3201 35.4139ZM11.8778 35.3163C11.8778 35.3699 11.9216 35.4139 11.9752 35.4139C12.0287 35.4139 12.0725 35.3699 12.0725 35.3163C12.0725 35.2626 12.0287 35.2187 11.9752 35.2187C11.9216 35.2187 11.8778 35.2626 11.8778 35.3163ZM14.4091 35.2744C14.4091 35.389 14.6928 35.609 14.8404 35.609C14.9245 35.609 14.9933 35.653 14.9933 35.7066C14.9933 35.7603 14.9495 35.8042 14.8959 35.8042C14.8424 35.8042 14.7986 35.8482 14.7986 35.9018C14.7986 35.9555 14.8862 35.9994 14.9933 35.9994C15.1231 35.9994 15.188 35.9343 15.188 35.8042C15.188 35.6969 15.1442 35.609 15.0907 35.609C15.0371 35.609 14.9933 35.5212 14.9933 35.4139C14.9933 35.262 14.9284 35.2187 14.7012 35.2187C14.5406 35.2187 14.4091 35.2437 14.4091 35.2744ZM27.65 35.3163C27.65 35.3699 27.5186 35.4139 27.3579 35.4139C27.1973 35.4139 27.0658 35.3699 27.0658 35.3163C27.0658 35.2626 27.1973 35.2187 27.3579 35.2187C27.5186 35.2187 27.65 35.2626 27.65 35.3163ZM12.2672 35.5115C12.2672 35.5651 12.3111 35.609 12.3646 35.609C12.4182 35.609 12.462 35.5651 12.462 35.5115C12.462 35.4578 12.4182 35.4139 12.3646 35.4139C12.3111 35.4139 12.2672 35.4578 12.2672 35.5115ZM23.4825 35.5656C23.3776 35.6848 23.3806 35.735 23.5 35.8547C23.6762 36.0313 23.9141 36.0424 23.9909 35.8774C24.0363 35.7798 24.0591 35.7798 24.1045 35.8774C24.1357 35.9446 24.3293 35.9994 24.5345 35.9994C24.7449 35.9994 24.9268 35.9462 24.9514 35.8774C24.981 35.7947 25.0578 35.8261 25.19 35.975C25.4482 36.266 25.5081 36.2522 25.5081 35.9018C25.5081 35.6046 25.3763 35.5088 25.2728 35.731C25.2274 35.8286 25.2046 35.8286 25.1592 35.731C25.1218 35.6507 24.8725 35.609 24.4291 35.609C24.045 35.609 23.7556 35.5671 23.7556 35.5115C23.7556 35.3724 23.6308 35.3972 23.4825 35.5656ZM14.2144 35.7066C14.2144 35.7603 14.2582 35.8042 14.3118 35.8042C14.3653 35.8042 14.4091 35.7603 14.4091 35.7066C14.4091 35.653 14.3653 35.609 14.3118 35.609C14.2582 35.609 14.2144 35.653 14.2144 35.7066ZM19.9627 35.7768C19.8579 35.8951 19.8515 35.9474 19.9384 35.9764C20.003 35.998 20.056 36.0999 20.056 36.2027C20.056 36.4259 20.1192 36.4379 20.3063 36.2504C20.5095 36.0468 20.488 35.6082 20.275 35.6128C20.1813 35.6148 20.0408 35.6886 19.9627 35.7768ZM20.6401 35.9994C20.6401 36.2141 20.6839 36.3898 20.7375 36.3898C20.791 36.3898 20.8348 36.302 20.8348 36.1946C20.8348 36.0873 20.8787 35.9994 20.9322 35.9994C20.9858 35.9994 21.0296 35.9116 21.0296 35.8042C21.0296 35.6741 20.9646 35.609 20.8348 35.609C20.6726 35.609 20.6401 35.6741 20.6401 35.9994ZM22.5873 35.8042C22.5873 35.9343 22.6523 35.9994 22.782 35.9994C22.8891 35.9994 22.9767 36.0434 22.9767 36.097C22.9767 36.1507 23.0206 36.1946 23.0741 36.1946C23.1277 36.1946 23.1715 36.0629 23.1715 35.9018C23.1715 35.6415 23.139 35.609 22.8794 35.609C22.6523 35.609 22.5873 35.6524 22.5873 35.8042ZM17.7194 35.9018C17.7194 35.9555 17.7632 35.9994 17.8167 35.9994C17.8703 35.9994 17.9141 35.9555 17.9141 35.9018C17.9141 35.8482 17.8703 35.8042 17.8167 35.8042C17.7632 35.8042 17.7194 35.8482 17.7194 35.9018ZM18.8877 35.9994C18.8877 36.1295 18.9526 36.1946 19.0824 36.1946C19.2122 36.1946 19.2771 36.1295 19.2771 35.9994C19.2771 35.8693 19.2122 35.8042 19.0824 35.8042C18.9526 35.8042 18.8877 35.8693 18.8877 35.9994ZM21.419 35.86C21.419 35.9325 21.6805 36.1946 21.7528 36.1946C21.7834 36.1946 21.8084 36.1068 21.8084 35.9994C21.8084 35.8693 21.7435 35.8042 21.6137 35.8042C21.5066 35.8042 21.419 35.8293 21.419 35.86ZM12.2672 36.097C12.2672 36.1507 12.3111 36.1946 12.3646 36.1946C12.4182 36.1946 12.462 36.1507 12.462 36.097C12.462 36.0434 12.4182 35.9994 12.3646 35.9994C12.3111 35.9994 12.2672 36.0434 12.2672 36.097ZM16.551 36.3898C16.551 36.5199 16.616 36.585 16.7458 36.585C16.8755 36.585 16.9405 36.5199 16.9405 36.3898C16.9405 36.2597 16.8755 36.1946 16.7458 36.1946C16.616 36.1946 16.551 36.2597 16.551 36.3898ZM25.1186 36.4455C25.1186 36.4763 25.1812 36.5641 25.2578 36.6407C25.4464 36.8299 25.5081 36.8162 25.5081 36.585C25.5081 36.4549 25.4431 36.3898 25.3134 36.3898C25.2063 36.3898 25.1186 36.4149 25.1186 36.4455ZM23.3662 36.7802C23.3662 37.0114 23.4279 37.0251 23.6165 36.8359C23.8052 36.6469 23.7915 36.585 23.5609 36.585C23.4311 36.585 23.3662 36.6501 23.3662 36.7802ZM17.9141 37.7562C17.9141 37.8863 17.979 37.9514 18.1088 37.9514C18.2386 37.9514 18.3035 37.8863 18.3035 37.7562C18.3035 37.6261 18.2386 37.561 18.1088 37.561C17.979 37.561 17.9141 37.6261 17.9141 37.7562ZM18.4982 37.7562C18.4982 37.9068 18.5632 37.9514 18.7822 37.9514C18.9384 37.9514 19.0917 37.8965 19.123 37.8294C19.1684 37.7318 19.1911 37.7318 19.2365 37.8294C19.2707 37.9027 19.4843 37.9514 19.772 37.9514C20.1858 37.9514 20.2507 37.9249 20.2507 37.7562C20.2507 37.5754 20.1858 37.561 19.3745 37.561C18.5632 37.561 18.4982 37.5754 18.4982 37.7562ZM23.7556 38.3417C23.7556 38.4491 23.7994 38.5369 23.853 38.5369C23.9065 38.5369 23.9503 38.4491 23.9503 38.3417C23.9503 38.2344 23.9065 38.1466 23.853 38.1466C23.7994 38.1466 23.7556 38.2344 23.7556 38.3417ZM24.4561 38.2983C24.3512 38.4175 24.3542 38.4677 24.4735 38.5874C24.6608 38.7751 26.0472 38.7941 26.1328 38.6101C26.1782 38.5125 26.201 38.5125 26.2464 38.6101C26.3159 38.7594 27.65 38.7826 27.65 38.6345C27.65 38.5776 27.9745 38.5369 28.4289 38.5369C28.8832 38.5369 29.2077 38.4962 29.2077 38.4393C29.2077 38.3857 29.4268 38.3417 29.6945 38.3417C29.9623 38.3417 30.1813 38.2978 30.1813 38.2441C30.1813 38.1845 29.7269 38.1466 29.013 38.1466C28.2991 38.1466 27.8447 38.1845 27.8447 38.2441C27.8447 38.2999 27.5526 38.3417 27.1632 38.3417C26.7738 38.3417 26.4817 38.2999 26.4817 38.2441C26.4817 38.099 25.5343 38.122 25.4749 38.2685C25.4378 38.3604 25.3996 38.3543 25.3208 38.2441C25.2277 38.1141 25.2043 38.1141 25.1113 38.2441C25.0324 38.3543 24.9942 38.3604 24.9571 38.2685C24.8905 38.1041 24.6126 38.1206 24.4561 38.2983ZM20.056 38.5369C20.056 38.6443 20.0998 38.7321 20.1533 38.7321C20.2069 38.7321 20.2507 38.6443 20.2507 38.5369C20.2507 38.4296 20.2069 38.3417 20.1533 38.3417C20.0998 38.3417 20.056 38.4296 20.056 38.5369ZM21.0296 38.4393C21.0296 38.493 21.0734 38.5369 21.1269 38.5369C21.1805 38.5369 21.2243 38.493 21.2243 38.4393C21.2243 38.3857 21.1805 38.3417 21.1269 38.3417C21.0734 38.3417 21.0296 38.3857 21.0296 38.4393ZM21.419 38.3949C21.419 38.4242 21.5291 38.5586 21.6637 38.6935C21.8802 38.9105 21.925 38.9221 22.0531 38.7936C22.2475 38.5987 22.2355 38.5369 22.0032 38.5369C21.8961 38.5369 21.8084 38.493 21.8084 38.4393C21.8084 38.3857 21.7208 38.3417 21.6137 38.3417C21.5066 38.3417 21.419 38.3657 21.419 38.3949ZM22.3926 38.5369C22.3926 38.667 22.4575 38.7321 22.5873 38.7321C22.6944 38.7321 22.782 38.6882 22.782 38.6345C22.782 38.5809 22.9135 38.5369 23.0741 38.5369C23.2348 38.5369 23.3662 38.493 23.3662 38.4393C23.3662 38.3857 23.1471 38.3417 22.8794 38.3417C22.4575 38.3417 22.3926 38.3678 22.3926 38.5369ZM23.5609 38.8297C23.5609 38.8834 23.6047 38.9273 23.6583 38.9273C23.7118 38.9273 23.7556 38.8834 23.7556 38.8297C23.7556 38.776 23.7118 38.7321 23.6583 38.7321C23.6047 38.7321 23.5609 38.776 23.5609 38.8297ZM23.9503 38.8297C23.9503 38.8834 24.038 38.9273 24.1451 38.9273C24.2522 38.9273 24.3398 38.8834 24.3398 38.8297C24.3398 38.776 24.2522 38.7321 24.1451 38.7321C24.038 38.7321 23.9503 38.776 23.9503 38.8297Z" fill="black"/>
<path d="M60.7435 7.08901L57.917 17.6513H56.2003L54.2617 11.2427L52.3231 17.6513H50.6065L47.7947 7.08901H49.9405L51.5684 13.7498L53.4922 7.08901H55.0312L56.9551 13.7498L58.5977 7.08901H60.7435Z" fill="black"/>
<path d="M69.2372 9.71474C69.3556 10.2982 69.4148 11.1834 69.4148 12.3701C69.4148 13.5569 69.3556 14.442 69.2372 15.0255C69.1188 15.609 68.8179 16.1431 68.3345 16.6277C67.5946 17.3694 66.6573 17.7403 65.5227 17.7403C64.3783 17.7403 63.4361 17.3694 62.6962 16.6277C62.2128 16.1431 61.9119 15.614 61.7935 15.0404C61.685 14.4569 61.6307 13.5668 61.6307 12.3701C61.6307 11.1735 61.685 10.2883 61.7935 9.71474C61.9119 9.13124 62.2128 8.59719 62.6962 8.1126C63.4361 7.37087 64.3783 7 65.5227 7C66.6573 7 67.5946 7.37087 68.3345 8.1126C68.8179 8.59719 69.1188 9.13124 69.2372 9.71474ZM67.3578 12.3701C67.3578 11.391 67.3183 10.7087 67.2394 10.323C67.1703 9.93726 67.0371 9.63067 66.8398 9.40321C66.5143 9.0274 66.0752 8.83949 65.5227 8.83949C64.9801 8.83949 64.5362 9.0274 64.1909 9.40321C63.9936 9.63067 63.8604 9.93726 63.7913 10.323C63.7223 10.7087 63.6877 11.391 63.6877 12.3701C63.6877 13.3492 63.7223 14.0316 63.7913 14.4173C63.8604 14.7931 63.9936 15.0948 64.1909 15.3222C64.546 15.7079 64.99 15.9008 65.5227 15.9008C66.0654 15.9008 66.5044 15.7079 66.8398 15.3222C67.0371 15.0849 67.1703 14.7783 67.2394 14.4025C67.3183 14.0168 67.3578 13.3393 67.3578 12.3701Z" fill="black"/>
<path d="M79.56 17.6513H77.1774L75.1204 13.4382H73.6406V17.6513H71.5836V7.08901H75.7124C76.7581 7.08901 77.5869 7.40054 78.1985 8.02359C78.8201 8.64664 79.1309 9.4131 79.1309 10.323C79.1309 11.0251 78.9483 11.6136 78.5833 12.0883C78.2183 12.563 77.7595 12.8992 77.207 13.097L79.56 17.6513ZM76.6595 11.3317C76.9357 11.0746 77.0739 10.7383 77.0739 10.323C77.0739 9.90759 76.9357 9.57134 76.6595 9.3142C76.3833 9.05707 76.0232 8.9285 75.5792 8.9285H73.6406V11.7174H75.5792C76.0232 11.7174 76.3833 11.5888 76.6595 11.3317Z" fill="black"/>
<path d="M88.1772 17.6513H81.3402V7.08901H83.3972V15.8118H88.1772V17.6513Z" fill="black"/>
<path d="M97.4588 10.0411C97.5377 10.5554 97.5772 11.3317 97.5772 12.3701C97.5772 13.4086 97.5377 14.1898 97.4588 14.714C97.3897 15.2283 97.2072 15.6931 96.9112 16.1085C96.1713 17.137 95.1107 17.6513 93.7295 17.6513H89.9263V7.08901H93.7295C95.1107 7.08901 96.1713 7.60328 96.9112 8.63181C97.2072 9.04718 97.3897 9.51694 97.4588 10.0411ZM95.4462 14.269C95.4955 13.8932 95.5202 13.2602 95.5202 12.3701C95.5202 11.4801 95.4955 10.8471 95.4462 10.4713C95.3969 10.0955 95.2785 9.7988 95.091 9.58123C94.7457 9.14608 94.2327 8.9285 93.552 8.9285H91.9833V15.8118H93.552C94.2327 15.8118 94.7457 15.5942 95.091 15.159C95.2785 14.9415 95.3969 14.6448 95.4462 14.269Z" fill="black"/>
<path d="M57.0734 33.657H54.9277L54.3061 31.7879H50.5621L49.9257 33.657H47.7799L51.6128 23.0948H53.2258L57.0734 33.657ZM53.7586 30.0522L52.4711 26.2101L51.1392 30.0522H53.7586Z" fill="black"/>
<path d="M66.5104 33.657H64.6754L60.5022 27.1743V33.657H58.4452V23.0948H60.2802L64.4534 29.5627V23.0948H66.5104V33.657Z" fill="black"/>
<path d="M75.8178 24.9343H73.0653V33.657H71.0083V24.9343H68.2557V23.0948H75.8178V24.9343Z" fill="black"/>
<path d="M79.6253 33.657H77.5683V23.0948H79.6253V33.657Z" fill="black"/>
<path d="M86.3541 30.3192H81.7961V28.5243H86.3541V30.3192Z" fill="black"/>
<path d="M96.0587 26.0469C96.1376 26.5611 96.1771 27.3375 96.1771 28.3759C96.1771 29.4143 96.1376 30.1956 96.0587 30.7198C95.9896 31.234 95.8071 31.6989 95.5112 32.1142C94.7712 33.1428 93.7107 33.657 92.3295 33.657H88.5262V23.0948H92.3295C93.7107 23.0948 94.7712 23.6091 95.5112 24.6376C95.8071 25.053 95.9896 25.5227 96.0587 26.0469ZM94.0461 30.2747C94.0954 29.8989 94.1201 29.266 94.1201 28.3759C94.1201 27.4858 94.0954 26.8529 94.0461 26.4771C93.9968 26.1013 93.8784 25.8046 93.6909 25.587C93.3456 25.1519 92.8326 24.9343 92.1519 24.9343H90.5832V31.8175H92.1519C92.8326 31.8175 93.3456 31.6 93.6909 31.1648C93.8784 30.9472 93.9968 30.6506 94.0461 30.2747Z" fill="black"/>
<path d="M105.606 25.7205C105.725 26.304 105.784 27.1891 105.784 28.3759C105.784 29.5627 105.725 30.4478 105.606 31.0313C105.488 31.6148 105.187 32.1489 104.704 32.6334C103.964 33.3752 103.027 33.746 101.892 33.746C100.748 33.746 99.8054 33.3752 99.0655 32.6334C98.5821 32.1489 98.2812 31.6197 98.1628 31.0461C98.0542 30.4626 98 29.5726 98 28.3759C98 27.1793 98.0542 26.2941 98.1628 25.7205C98.2812 25.137 98.5821 24.603 99.0655 24.1184C99.8054 23.3766 100.748 23.0058 101.892 23.0058C103.027 23.0058 103.964 23.3766 104.704 24.1184C105.187 24.603 105.488 25.137 105.606 25.7205ZM103.727 28.3759C103.727 27.3968 103.688 26.7144 103.609 26.3287C103.54 25.943 103.406 25.6365 103.209 25.409C102.884 25.0332 102.444 24.8453 101.892 24.8453C101.349 24.8453 100.905 25.0332 100.56 25.409C100.363 25.6365 100.23 25.943 100.161 26.3287C100.092 26.7144 100.057 27.3968 100.057 28.3759C100.057 29.355 100.092 30.0374 100.161 30.4231C100.23 30.7989 100.363 31.1005 100.56 31.328C100.915 31.7137 101.359 31.9066 101.892 31.9066C102.435 31.9066 102.874 31.7137 103.209 31.328C103.406 31.0906 103.54 30.7841 103.609 30.4083C103.688 30.0226 103.727 29.3451 103.727 28.3759Z" fill="black"/>
<path d="M114.568 24.0442C115.199 24.6771 115.515 25.4584 115.515 26.3881C115.515 27.3177 115.199 28.099 114.568 28.7319C113.946 29.3649 113.103 29.6814 112.037 29.6814H110.01V33.657H107.953V23.0948H112.037C113.103 23.0948 113.946 23.4113 114.568 24.0442ZM113.044 27.4413C113.32 27.1743 113.458 26.8232 113.458 26.3881C113.458 25.9529 113.32 25.6018 113.044 25.3348C112.767 25.0678 112.397 24.9343 111.934 24.9343H110.01V27.827H111.934C112.397 27.827 112.767 27.6985 113.044 27.4413Z" fill="black"/>
<path d="M119.376 33.657H117.319V23.0948H119.376V33.657Z" fill="black"/>
<path d="M129.967 33.657H128.132L123.959 27.1743V33.657H121.902V23.0948H123.737L127.91 29.5627V23.0948H129.967V33.657Z" fill="black"/>
<path d="M140 29.3253C140 30.1066 139.926 30.7396 139.778 31.2242C139.63 31.7088 139.369 32.1489 138.994 32.5444C138.234 33.3455 137.243 33.746 136.019 33.746C134.904 33.746 133.967 33.3752 133.207 32.6334C132.724 32.1489 132.423 31.6197 132.305 31.0461C132.196 30.4626 132.142 29.5726 132.142 28.3759C132.142 27.1793 132.196 26.2941 132.305 25.7205C132.423 25.137 132.724 24.603 133.207 24.1184C133.967 23.3766 134.904 23.0058 136.019 23.0058C137.173 23.0058 138.081 23.3272 138.742 23.97C139.413 24.6129 139.827 25.4189 139.985 26.3881H137.913C137.677 25.3595 137.045 24.8453 136.019 24.8453C135.486 24.8453 135.047 25.0332 134.702 25.409C134.505 25.6365 134.372 25.943 134.303 26.3287C134.233 26.7144 134.199 27.3968 134.199 28.3759C134.199 29.3649 134.233 30.0522 134.303 30.4379C134.372 30.8236 134.505 31.1302 134.702 31.3577C135.038 31.7236 135.477 31.9066 136.019 31.9066C136.651 31.9066 137.139 31.7088 137.484 31.3132C137.8 30.9571 137.958 30.4874 137.958 29.9039V29.5182H136.019V27.7825H140V29.3253Z" fill="black"/>
<path d="M57.0734 49.6628H54.9277L54.3061 47.7937H50.5621L49.9257 49.6628H47.7799L51.6128 39.1006H53.2258L57.0734 49.6628ZM53.7586 46.058L52.4711 42.2158L51.1392 46.058H53.7586Z" fill="black"/>
<path d="M65.8036 45.3311C65.8036 46.1124 65.7296 46.7453 65.5816 47.2299C65.4336 47.7145 65.1722 48.1546 64.7973 48.5502C64.0376 49.3513 63.0461 49.7518 61.8228 49.7518C60.7079 49.7518 59.7707 49.381 59.011 48.6392C58.5276 48.1546 58.2267 47.6255 58.1083 47.0519C57.9998 46.4684 57.9455 45.5784 57.9455 44.3817C57.9455 43.185 57.9998 42.2999 58.1083 41.7263C58.2267 41.1428 58.5276 40.6088 59.011 40.1242C59.7707 39.3824 60.7079 39.0116 61.8228 39.0116C62.977 39.0116 63.8847 39.333 64.5457 39.9758C65.2166 40.6186 65.6309 41.4247 65.7888 42.3939H63.717C63.4802 41.3653 62.8488 40.8511 61.8228 40.8511C61.29 40.8511 60.851 41.039 60.5057 41.4148C60.3084 41.6422 60.1752 41.9488 60.1061 42.3345C60.0371 42.7202 60.0025 43.4026 60.0025 44.3817C60.0025 45.3707 60.0371 46.058 60.1061 46.4437C60.1752 46.8294 60.3084 47.136 60.5057 47.3635C60.8411 47.7294 61.2801 47.9123 61.8228 47.9123C62.4542 47.9123 62.9425 47.7145 63.2878 47.3189C63.6035 46.9629 63.7614 46.4932 63.7614 45.9097V45.524H61.8228V43.7883H65.8036V45.3311Z" fill="black"/>
<path d="M74.9256 49.6628H67.9851V39.1006H74.9256V40.9401H70.0421V43.4174H74.2005V45.2569H70.0421V47.8233H74.9256V49.6628Z" fill="black"/>
<path d="M85.0844 49.6628H83.2494L79.0762 43.1801V49.6628H77.0192V39.1006H78.8542L83.0274 45.5685V39.1006H85.0844V49.6628Z" fill="black"/>
<path d="M95.0133 46.414C94.8259 47.492 94.3868 48.3178 93.6962 48.8914C93.0056 49.465 92.1572 49.7518 91.1509 49.7518C90.0262 49.7518 89.084 49.381 88.3244 48.6392C87.8409 48.1546 87.54 47.6255 87.4216 47.0519C87.3131 46.4684 87.2589 45.5784 87.2589 44.3817C87.2589 43.185 87.3131 42.2999 87.4216 41.7263C87.54 41.1428 87.8409 40.6088 88.3244 40.1242C89.084 39.3824 90.0262 39.0116 91.1509 39.0116C92.1572 39.0116 93.0056 39.2984 93.6962 39.872C94.3868 40.4456 94.8259 41.2714 95.0133 42.3493H92.9119C92.6751 41.3505 92.0881 40.8511 91.1509 40.8511C90.5885 40.8511 90.1495 41.034 89.8338 41.3999C89.6365 41.6274 89.4984 41.9389 89.4195 42.3345C89.3504 42.7202 89.3159 43.4026 89.3159 44.3817C89.3159 45.3608 89.3504 46.0481 89.4195 46.4437C89.4984 46.8294 89.6365 47.136 89.8338 47.3635C90.1495 47.7294 90.5885 47.9123 91.1509 47.9123C92.098 47.9123 92.6899 47.4129 92.9267 46.414H95.0133Z" fill="black"/>
<path d="M103.912 39.1006L100.746 45.3311V49.6628H98.7034V45.3311L95.5365 39.1006H97.7711L99.7393 43.3581L101.678 39.1006H103.912Z" fill="black"/>
<path d="M53.1678 63.7284C53.1678 65.1586 52.9089 66.1378 52.3909 66.6661C51.982 67.076 51.4232 67.2809 50.7144 67.2809C49.942 67.2809 49.3377 67.0168 48.9015 66.4885V70H47.5113V60.2716H48.8743V61.0094C49.3286 60.4629 49.9374 60.1896 50.7007 60.1896C51.4186 60.1896 51.982 60.3946 52.3909 60.8045C52.9089 61.3328 53.1678 62.3074 53.1678 63.7284ZM51.723 64.6166C51.7594 64.3706 51.7775 64.0746 51.7775 63.7284C51.7775 63.3823 51.7594 63.0863 51.723 62.8403C51.6958 62.5944 51.6321 62.3575 51.5322 62.1298C51.4413 61.9021 51.2959 61.729 51.096 61.6106C50.8961 61.4922 50.6462 61.433 50.3464 61.433C50.0374 61.433 49.783 61.4922 49.5831 61.6106C49.3832 61.729 49.2332 61.9021 49.1333 62.1298C49.0424 62.3575 48.9788 62.5944 48.9424 62.8403C48.9152 63.0863 48.9015 63.3823 48.9015 63.7284C48.9015 64.0746 48.9152 64.3706 48.9424 64.6166C48.9788 64.8625 49.0424 65.1039 49.1333 65.3407C49.2332 65.5685 49.3832 65.7415 49.5831 65.8599C49.7921 65.9784 50.0465 66.0376 50.3464 66.0376C50.6462 66.0376 50.8961 65.9784 51.096 65.8599C51.2959 65.7415 51.4413 65.5685 51.5322 65.3407C51.6321 65.1039 51.6958 64.8625 51.723 64.6166Z" fill="#78D477"/>
<path d="M57.7576 67.199H56.8989C56.2719 67.199 55.7994 67.0213 55.4814 66.6661C55.1633 66.3017 55.0043 65.8417 55.0043 65.2861V57.4706H56.3946V65.2041C56.3946 65.4774 56.4491 65.6823 56.5581 65.819C56.6763 65.9465 56.8716 66.0102 57.1442 66.0102H57.7576V67.199Z" fill="#78D477"/>
<path d="M64.3621 67.199H62.9991V66.5704C62.7447 66.8255 62.4766 67.0077 62.1949 67.117C61.9223 67.2263 61.577 67.2809 61.159 67.2809C60.3412 67.2809 59.7233 67.0714 59.3053 66.6524C58.9418 66.2699 58.7601 65.7734 58.7601 65.1631C58.7601 64.5619 58.9645 64.0791 59.3734 63.7148C59.7914 63.3504 60.3866 63.1682 61.159 63.1682H62.9718V62.6764C62.9718 62.23 62.8537 61.9021 62.6174 61.6926C62.3812 61.4831 61.995 61.3783 61.4589 61.3783C61.0954 61.3783 60.8001 61.433 60.5729 61.5423C60.3548 61.6425 60.1458 61.8156 59.9459 62.0615L59.0463 61.2007C59.3643 60.8272 59.7051 60.5676 60.0686 60.4219C60.4411 60.267 60.9227 60.1896 61.5134 60.1896C63.4125 60.1896 64.3621 60.9821 64.3621 62.5671V67.199ZM62.9718 64.6986V64.1384H61.3771C60.532 64.1384 60.1095 64.4708 60.1095 65.1358C60.1095 65.7916 60.5456 66.1196 61.418 66.1196C61.9723 66.1196 62.3903 65.9875 62.672 65.7233C62.8719 65.532 62.9718 65.1904 62.9718 64.6986Z" fill="#78D477"/>
<path d="M71.6596 60.2716L68.6065 68.579C68.4792 68.9433 68.3111 69.2303 68.1021 69.4398C67.7659 69.7768 67.2934 69.9453 66.6846 69.9453H66.1257V68.6883H66.4801C66.7709 68.6883 66.9845 68.6336 67.1208 68.5243C67.2571 68.4241 67.3752 68.2328 67.4751 67.9505L67.8568 66.871L65.4442 60.2716H66.9163L68.5656 65.1494L70.1739 60.2716H71.6596Z" fill="#78D477"/>
<path d="M78.9792 67.199H78.1478C77.5389 67.199 77.071 67.0122 76.7438 66.6388C76.4167 66.2653 76.2531 65.8099 76.2531 65.2724V61.3373H75.4626V60.2716H76.2531V58.2904H77.6434V60.2716H78.9792V61.3373H77.6434V65.2041C77.6434 65.7415 77.8979 66.0102 78.4067 66.0102H78.9792V67.199Z" fill="#78D477"/>
<path d="M85.6007 60.8455L84.5512 61.8975C84.2423 61.5878 83.897 61.433 83.5153 61.433C83.1246 61.433 82.7975 61.5787 82.5339 61.8702C82.2704 62.1526 82.1387 62.5261 82.1387 62.9906V67.199H80.7484V60.2716H82.1114V61.0231C82.2931 60.7771 82.5476 60.5767 82.8747 60.4219C83.2109 60.267 83.5698 60.1896 83.9515 60.1896C84.6148 60.1896 85.1646 60.4082 85.6007 60.8455Z" fill="#78D477"/>
<path d="M92.2721 67.199H90.9091V66.5021C90.4275 67.0213 89.8141 67.2809 89.069 67.2809C88.3693 67.2809 87.8014 67.0714 87.3652 66.6524C86.9018 66.197 86.6701 65.5457 86.6701 64.6986V60.2716H88.0604V64.4936C88.0604 65.0037 88.1876 65.3908 88.442 65.655C88.6964 65.91 89.0327 66.0376 89.4507 66.0376C89.8687 66.0376 90.2094 65.91 90.4729 65.655C90.7455 65.3908 90.8818 65.0037 90.8818 64.4936V60.2716H92.2721V67.199Z" fill="#78D477"/>
<path d="M99.9918 64.1384H95.5074C95.5074 64.7487 95.6573 65.2269 95.9572 65.573C96.2662 65.91 96.7023 66.0786 97.2657 66.0786C97.6383 66.0786 97.9472 66.0239 98.1926 65.9146C98.4379 65.8053 98.6878 65.6231 98.9422 65.3681L99.8282 66.2015C99.4556 66.575 99.074 66.8483 98.6833 67.0213C98.3016 67.1944 97.82 67.2809 97.2384 67.2809C96.2934 67.2809 95.5392 66.9986 94.9758 66.4338C94.4124 65.8691 94.1307 64.9673 94.1307 63.7284C94.1307 62.6172 94.3943 61.7518 94.9213 61.1324C95.4483 60.5039 96.1617 60.1896 97.0612 60.1896C97.979 60.1896 98.6969 60.4948 99.2148 61.1051C99.7328 61.7154 99.9918 62.5306 99.9918 63.5508V64.1384ZM98.6151 63.1682C98.5878 62.7583 98.5242 62.4441 98.4243 62.2255C98.1608 61.6425 97.7064 61.351 97.0612 61.351C96.407 61.351 95.9481 61.6425 95.6846 62.2255C95.5756 62.4623 95.5165 62.7766 95.5074 63.1682H98.6151Z" fill="#78D477"/>
</svg>
