<svg width="50" height="53" viewBox="0 0 50 53" fill="none" xmlns="http://www.w3.org/2000/svg">
<path d="M49.6575 14.3428L36.155 0.31241C35.9628 0.112832 35.6976 0 35.4206 0H15.2961C13.0439 0 11.2116 1.83161 11.2116 4.08286V18.3462H3.05588C1.37086 18.3462 0 19.7166 0 21.4012V36.695C0 38.3796 1.37086 39.75 3.05588 39.75H11.2116V48.9243C11.2116 51.1716 13.0439 53 15.2961 53H45.8578C48.11 53 49.9423 51.1726 49.9423 48.9266V15.0496C49.9423 14.7861 49.8402 14.5328 49.6575 14.3428ZM35.6731 2.75155L46.7575 14.2692H35.6731V2.75155ZM3.05588 37.7116C2.49483 37.7116 2.03853 37.2556 2.03853 36.695V21.4012C2.03853 20.8407 2.49493 20.3846 3.05588 20.3846H40.5787C41.1397 20.3846 41.5962 20.8407 41.5962 21.4012V36.695C41.5962 37.2556 41.1397 37.7116 40.5787 37.7116H3.05588ZM47.9038 48.9266C47.9038 50.0487 46.9859 50.9616 45.8577 50.9616H15.2961C14.1679 50.9616 13.25 50.0477 13.25 48.9244V39.75H40.5786C42.2637 39.75 43.6346 38.3796 43.6346 36.695V21.4012C43.6346 19.7166 42.2637 18.3462 40.5786 18.3462H13.25V4.08286C13.25 2.95547 14.1679 2.03843 15.2961 2.03843H33.6346V15.2884C33.6346 15.8513 34.091 16.3076 34.6538 16.3076H47.9038V48.9266Z" fill="#0E77B1"/>
<path d="M4.93945 34V24.7578H7.66895C8.48568 24.7578 9.20931 24.9398 9.83984 25.3037C10.4746 25.6676 10.9655 26.1839 11.3125 26.8525C11.6595 27.5212 11.833 28.2871 11.833 29.1504V29.6138C11.833 30.4897 11.6574 31.2599 11.3062 31.9243C10.9591 32.5887 10.4619 33.1007 9.81445 33.4604C9.17122 33.8201 8.43278 34 7.59912 34H4.93945ZM6.54541 26.0527V32.7178H7.59277C8.4349 32.7178 9.08024 32.4554 9.52881 31.9307C9.98161 31.4017 10.2122 30.6442 10.2207 29.6582V29.144C10.2207 28.1411 10.0028 27.3752 9.56689 26.8462C9.13102 26.3172 8.49837 26.0527 7.66895 26.0527H6.54541Z" fill="#0E77B1"/>
<path d="M20.8086 29.6201C20.8086 30.5257 20.652 31.3213 20.3389 32.0068C20.0257 32.6882 19.5771 33.2129 18.9932 33.5811C18.4134 33.945 17.7448 34.127 16.9873 34.127C16.2383 34.127 15.5697 33.945 14.9814 33.5811C14.3975 33.2129 13.9447 32.6903 13.623 32.0132C13.3057 31.3361 13.1449 30.5553 13.1406 29.6709V29.1504C13.1406 28.249 13.2993 27.4535 13.6167 26.7637C13.9383 26.0739 14.389 25.547 14.9688 25.1831C15.5527 24.8149 16.2214 24.6309 16.9746 24.6309C17.7279 24.6309 18.3944 24.8128 18.9741 25.1768C19.5581 25.5365 20.0088 26.057 20.3262 26.7383C20.6436 27.4154 20.8044 28.2046 20.8086 29.106V29.6201ZM19.2026 29.1377C19.2026 28.1136 19.008 27.3286 18.6187 26.7827C18.2336 26.2368 17.6855 25.9639 16.9746 25.9639C16.2806 25.9639 15.7368 26.2368 15.3433 26.7827C14.9539 27.3244 14.755 28.0924 14.7466 29.0869V29.6201C14.7466 30.6357 14.9434 31.4207 15.3369 31.9751C15.7347 32.5295 16.2848 32.8066 16.9873 32.8066C17.6982 32.8066 18.2441 32.5358 18.625 31.9941C19.0101 31.4525 19.2026 30.6611 19.2026 29.6201V29.1377Z" fill="#0E77B1"/>
<path d="M29.4604 30.9912C29.3674 31.9772 29.0034 32.7474 28.3687 33.3018C27.7339 33.8519 26.8896 34.127 25.8359 34.127C25.0996 34.127 24.45 33.9535 23.8872 33.6064C23.3286 33.2552 22.897 32.758 22.5923 32.1147C22.2876 31.4715 22.1289 30.7246 22.1162 29.874V29.0107C22.1162 28.139 22.2707 27.3709 22.5796 26.7065C22.8885 26.0422 23.3307 25.5301 23.9062 25.1704C24.486 24.8107 25.1546 24.6309 25.9121 24.6309C26.932 24.6309 27.7529 24.908 28.375 25.4624C28.9971 26.0168 29.3589 26.7996 29.4604 27.811H27.8608C27.7847 27.1466 27.59 26.6685 27.2769 26.3765C26.9679 26.0802 26.513 25.9321 25.9121 25.9321C25.2139 25.9321 24.6764 26.1882 24.2998 26.7002C23.9274 27.208 23.737 27.9549 23.7285 28.9409V29.7598C23.7285 30.7585 23.9062 31.5202 24.2617 32.0449C24.6214 32.5697 25.1462 32.832 25.8359 32.832C26.4665 32.832 26.9404 32.6903 27.2578 32.4067C27.5752 32.1232 27.7762 31.6514 27.8608 30.9912H29.4604Z" fill="#0E77B1"/>
<path d="M34.0815 28.0967L36.0239 24.7578H37.8774L35.0845 29.3408L37.9409 34H36.0684L34.0815 30.6104L32.0884 34H30.2222L33.085 29.3408L30.2856 24.7578H32.1392L34.0815 28.0967Z" fill="#0E77B1"/>
</svg>
