<svg width="50" height="53" viewBox="0 0 50 53" fill="none" xmlns="http://www.w3.org/2000/svg">
<path d="M49.6575 14.3428L36.155 0.31241C35.9628 0.112832 35.6976 0 35.4206 0H15.2961C13.0439 0 11.2116 1.83161 11.2116 4.08286V18.3462H3.05588C1.37086 18.3462 0 19.7166 0 21.4012V36.695C0 38.3796 1.37086 39.75 3.05588 39.75H11.2116V48.9243C11.2116 51.1716 13.0439 53 15.2961 53H45.8578C48.11 53 49.9423 51.1726 49.9423 48.9266V15.0496C49.9423 14.7861 49.8402 14.5328 49.6575 14.3428ZM35.6731 2.75155L46.7575 14.2692H35.6731V2.75155ZM3.05588 37.7116C2.49483 37.7116 2.03853 37.2556 2.03853 36.695V21.4012C2.03853 20.8407 2.49493 20.3846 3.05588 20.3846H40.5787C41.1397 20.3846 41.5962 20.8407 41.5962 21.4012V36.695C41.5962 37.2556 41.1397 37.7116 40.5787 37.7116H3.05588ZM47.9038 48.9266C47.9038 50.0487 46.9859 50.9616 45.8577 50.9616H15.2961C14.1679 50.9616 13.25 50.0477 13.25 48.9244V39.75H40.5786C42.2637 39.75 43.6346 38.3796 43.6346 36.695V21.4012C43.6346 19.7166 42.2637 18.3462 40.5786 18.3462H13.25V4.08286C13.25 2.95547 14.1679 2.03843 15.2961 2.03843H33.6346V15.2884C33.6346 15.8513 34.091 16.3076 34.6538 16.3076H47.9038V48.9266Z" fill="#0E77B1"/>
<path d="M5.50795 30.625V33.8797H4V25.1203H7.31987C8.2894 25.1203 9.05828 25.375 9.62649 25.8844C10.1987 26.3937 10.4848 27.0675 10.4848 27.9057C10.4848 28.764 10.2046 29.4318 9.64437 29.9091C9.08808 30.3864 8.30728 30.625 7.30199 30.625H5.50795ZM5.50795 29.4037H7.31987C7.85629 29.4037 8.26556 29.2774 8.54768 29.0247C8.8298 28.768 8.97086 28.3991 8.97086 27.9178C8.97086 27.4445 8.82781 27.0675 8.54172 26.7868C8.25563 26.502 7.86225 26.3556 7.36159 26.3476H5.50795V29.4037Z" fill="#0E77B1"/>
<path d="M15.6046 31.8402H12.243L11.5397 33.8797H9.97219L13.2503 25.1203H14.6033L17.8874 33.8797H16.3139L15.6046 31.8402ZM12.6662 30.613H15.1815L13.9238 26.9793L12.6662 30.613Z" fill="#0E77B1"/>
<path d="M25.3974 32.7426C25.0834 33.1557 24.6483 33.4686 24.0921 33.6811C23.5358 33.8937 22.904 34 22.1967 34C21.4695 34 20.8258 33.8336 20.2656 33.5007C19.7053 33.1678 19.2722 32.6925 18.9662 32.0749C18.6642 31.4532 18.5073 30.7293 18.4954 29.9031V29.2172C18.4954 27.8937 18.8093 26.861 19.4371 26.119C20.0649 25.373 20.9411 25 22.0656 25C23.0311 25 23.798 25.2406 24.3662 25.7219C24.9344 26.2032 25.2762 26.8971 25.3914 27.8035H23.9132C23.7464 26.7487 23.1404 26.2213 22.0954 26.2213C21.4199 26.2213 20.9053 26.4679 20.5517 26.9612C20.202 27.4505 20.0212 28.1705 20.0093 29.121V29.7948C20.0093 30.7413 20.206 31.4773 20.5993 32.0027C20.9967 32.5241 21.547 32.7848 22.2503 32.7848C23.0212 32.7848 23.5695 32.6083 23.8954 32.2553V30.5408H22.1073V29.3857H25.3974V32.7426Z" fill="#0E77B1"/>
<path d="M32.1265 29.9693H28.5623V32.6644H32.7285V33.8797H27.0543V25.1203H32.6868V26.3476H28.5623V28.766H32.1265V29.9693Z" fill="#0E77B1"/>
<path d="M38.4921 31.6237C38.4921 31.2386 38.357 30.9418 38.0868 30.7333C37.8205 30.5247 37.3377 30.3142 36.6384 30.1016C35.9391 29.889 35.3828 29.6524 34.9695 29.3917C34.1788 28.8904 33.7834 28.2366 33.7834 27.4305C33.7834 26.7246 34.0676 26.143 34.6358 25.6858C35.2079 25.2286 35.949 25 36.8589 25C37.4629 25 38.0013 25.1123 38.4742 25.3369C38.947 25.5615 39.3185 25.8824 39.5887 26.2995C39.8589 26.7126 39.994 27.1718 39.994 27.6771H38.4921C38.4921 27.2199 38.349 26.863 38.0629 26.6063C37.7808 26.3456 37.3755 26.2152 36.847 26.2152C36.3543 26.2152 35.9709 26.3215 35.6967 26.5341C35.4265 26.7467 35.2914 27.0434 35.2914 27.4245C35.2914 27.7453 35.4384 28.014 35.7325 28.2306C36.0265 28.4432 36.5113 28.6517 37.1868 28.8563C37.8623 29.0568 38.4046 29.2874 38.8139 29.5481C39.2232 29.8048 39.5232 30.1016 39.7139 30.4385C39.9046 30.7714 40 31.1624 40 31.6116C40 32.3416 39.7219 32.9231 39.1656 33.3563C38.6132 33.7854 37.8623 34 36.9126 34C36.2848 34 35.7066 33.8837 35.1781 33.6511C34.6536 33.4144 34.2444 33.0896 33.9503 32.6765C33.6603 32.2634 33.5152 31.7821 33.5152 31.2326H35.0232C35.0232 31.7299 35.1861 32.115 35.5119 32.3877C35.8377 32.6604 36.3046 32.7968 36.9126 32.7968C37.4371 32.7968 37.8305 32.6905 38.0927 32.4779C38.3589 32.2614 38.4921 31.9766 38.4921 31.6237Z" fill="#0E77B1"/>
</svg>
