<svg width="30" height="28" viewBox="0 0 30 28" fill="none" xmlns="http://www.w3.org/2000/svg">
<path d="M28.9732 7.57734L21.3303 0.165047C21.2215 0.0596094 21.0714 0 20.9146 0H9.5234C8.24857 0 7.21141 0.967641 7.21141 2.15698V9.69232H2.59498C1.64119 9.69232 0.865234 10.4163 0.865234 11.3063V19.3861C0.865234 20.276 1.64119 21 2.59498 21H7.21141V25.8468C7.21141 27.0341 8.24857 28 9.5234 28H26.8225C28.0973 28 29.1345 27.0346 29.1345 25.848V7.95074C29.1345 7.81151 29.0767 7.67769 28.9732 7.57734ZM21.0576 1.45365L27.3317 7.53845H21.0576V1.45365ZM2.59498 19.9231C2.2774 19.9231 2.01912 19.6822 2.01912 19.3861V11.3063C2.01912 11.0102 2.27746 10.7692 2.59498 10.7692H18.174C18.4916 10.7692 18.7499 11.0102 18.7499 11.3063V19.3861C18.7499 19.6822 18.4915 19.9231 18.174 19.9231H2.59498ZM27.9806 25.848C27.9806 26.4408 27.4611 26.9231 26.8224 26.9231H9.5234C8.88478 26.9231 8.36523 26.4403 8.36523 25.8468V21H18.174C19.1278 21 19.9037 20.276 19.9037 19.3861V11.3063C19.9037 10.4163 19.1278 9.69232 18.174 9.69232H8.36523V2.15698C8.36523 1.56138 8.88478 1.07691 9.5234 1.07691H19.9037V8.07691C19.9037 8.3743 20.162 8.61536 20.4806 8.61536H27.9806V25.848Z" fill="#FF3D00"/>
<path d="M7.76279 13.666C7.57125 13.4336 7.33348 13.2827 7.04953 13.2133C6.86473 13.167 6.4681 13.1439 5.85961 13.1439H4.25391V17.7692H5.25451V16.0244H5.90695C6.35994 16.0244 6.70588 16.0023 6.94476 15.9581C7.12055 15.9224 7.29351 15.8493 7.46367 15.7388C7.63383 15.6284 7.7741 15.4764 7.88455 15.283C7.995 15.0895 8.05019 14.8507 8.05019 14.5668C8.05014 14.1987 7.95433 13.8984 7.76279 13.666ZM6.90586 14.9391C6.83039 15.0422 6.72615 15.1179 6.59314 15.1663C6.46014 15.2147 6.19652 15.2388 5.80213 15.2388H5.25451V13.9263H5.73791C6.0985 13.9263 6.3385 13.9368 6.45791 13.9579C6.62016 13.9852 6.75428 14.0536 6.86016 14.163C6.96609 14.2723 7.01906 14.4112 7.01906 14.5794C7.01912 14.7161 6.98133 14.836 6.90586 14.9391Z" fill="#FF3D00"/>
<path d="M12.8602 14.4075C12.752 14.1119 12.5942 13.8622 12.3869 13.6581C12.1796 13.4541 11.9306 13.3121 11.6399 13.2322C11.4235 13.1733 11.1091 13.1439 10.6967 13.1439H8.86792V17.7692H10.7508C11.1204 17.7692 11.4156 17.7366 11.6365 17.6713C11.9317 17.583 12.1661 17.46 12.3396 17.3022C12.5695 17.0939 12.7464 16.8216 12.8703 16.485C12.9718 16.2095 13.0224 15.8813 13.0224 15.5007C13.0224 15.0674 12.9684 14.703 12.8602 14.4075ZM11.8866 16.3068C11.819 16.514 11.7317 16.6628 11.6246 16.7532C11.5176 16.8437 11.3829 16.9078 11.2207 16.9457C11.0968 16.9752 10.895 16.9899 10.6156 16.9899H9.86853V13.9263H10.3181C10.726 13.9263 10.9999 13.941 11.1395 13.9705C11.3266 14.0084 11.481 14.0809 11.6027 14.1882C11.7244 14.2955 11.819 14.4448 11.8866 14.6362C11.9542 14.8276 11.988 15.1021 11.988 15.4597C11.988 15.8173 11.9542 16.0996 11.8866 16.3068Z" fill="#FF3D00"/>
<path d="M17.275 13.9263V13.1439H13.8777V17.7692H14.8783V15.8036H16.9471V15.0211H14.8783V13.9263H17.275Z" fill="#FF3D00"/>
</svg>
