<svg width="53" height="53" viewBox="0 0 53 53" fill="none" xmlns="http://www.w3.org/2000/svg">
<path d="M51.1859 14.3428L37.6834 0.31241C37.4912 0.112832 37.226 0 36.949 0H16.8245C14.5723 0 12.74 1.83161 12.74 4.08286V18.3462H4.58433C2.8993 18.3462 1.52844 19.7166 1.52844 21.4012V36.695C1.52844 38.3796 2.8993 39.75 4.58433 39.75H12.74V48.9243C12.74 51.1716 14.5723 53 16.8245 53H47.3863C49.6385 53 51.4708 51.1726 51.4708 48.9266V15.0496C51.4708 14.7861 51.3686 14.5328 51.1859 14.3428ZM37.2016 2.75155L48.2859 14.2692H37.2016V2.75155ZM4.58433 37.7116C4.02327 37.7116 3.56698 37.2556 3.56698 36.695V21.4012C3.56698 20.8407 4.02338 20.3846 4.58433 20.3846H32.1073C32.6683 20.3846 33.1246 20.8407 33.1246 21.4012V36.695C33.1246 37.2556 32.6682 37.7116 32.1073 37.7116H4.58433ZM49.4323 48.9266C49.4323 50.0487 48.5144 50.9616 47.3862 50.9616H16.8245C15.6963 50.9616 14.7784 50.0477 14.7784 48.9244V39.75H32.1073C33.7923 39.75 35.1632 38.3796 35.1632 36.695V21.4012C35.1632 19.7166 33.7923 18.3462 32.1073 18.3462H14.7784V4.08286C14.7784 2.95547 15.6963 2.03843 16.8245 2.03843H35.163V15.2884C35.163 15.8513 35.6194 16.3076 36.1823 16.3076H49.4323V48.9266Z" fill="#F7931E"/>
<path d="M11.1581 32.4702H15.8173V34H8.77771V32.8828L13.348 26.3003H8.78406V24.7578H15.7157V25.8496L11.1581 32.4702Z" fill="#F7931E"/>
<path d="M19.6982 34H17.7939V24.7578H19.6982V34Z" fill="#F7931E"/>
<path d="M24.0235 30.7437V34H22.1192V24.7578H25.7247C26.4187 24.7578 27.0281 24.8848 27.5528 25.1387C28.0818 25.3926 28.488 25.7544 28.7716 26.2241C29.0551 26.6896 29.1969 27.2207 29.1969 27.8174C29.1969 28.723 28.8858 29.4382 28.2637 29.9629C27.6459 30.4834 26.789 30.7437 25.6929 30.7437H24.0235ZM24.0235 29.2012H25.7247C26.2283 29.2012 26.6112 29.0827 26.8736 28.8457C27.1402 28.6087 27.2735 28.2702 27.2735 27.8301C27.2735 27.3773 27.1402 27.0112 26.8736 26.7319C26.607 26.4526 26.2388 26.3088 25.7691 26.3003H24.0235V29.2012Z" fill="#F7931E"/>
</svg>
