<svg width="23" height="22" viewBox="0 0 23 22" fill="none" xmlns="http://www.w3.org/2000/svg">
<path fill-rule="evenodd" clip-rule="evenodd" d="M10.1347 0H12.1197V2.05493C16.2601 2.51608 19.5476 5.82838 20.0053 10H22.0448V12H20.0053C19.5476 16.1716 16.2601 19.4839 12.1197 19.9451V22H10.1347V19.9451C5.9943 19.4839 2.7068 16.1716 2.2491 12H0.210388V10H2.2491C2.7068 5.82838 5.9943 2.51608 10.1347 2.05493V0ZM4.24997 12H6.16547V10H4.24997C4.6852 6.93431 7.09195 4.5094 10.1347 4.07089V6H12.1197V4.07089C15.1625 4.5094 17.5692 6.93431 18.0044 10H16.0898V12H18.0044C17.5692 15.0657 15.1625 17.4906 12.1197 17.9291V16H10.1347V17.9291C7.09195 17.4906 4.6852 15.0657 4.24997 12ZM9.14217 11C9.14217 12.1046 10.0309 13 11.1272 13C12.2235 13 13.1122 12.1046 13.1122 11C13.1122 9.89543 12.2235 9 11.1272 9C10.0309 9 9.14217 9.89543 9.14217 11Z" fill="#485562"/>
</svg>
