<svg width="28" height="30" viewBox="0 0 28 30" fill="none" xmlns="http://www.w3.org/2000/svg">
<path d="M6.4322 21.4774C6.4322 25.6504 9.8271 29.0455 14.0002 29.0455C18.1733 29.0455 21.5683 25.6505 21.5683 21.4774C21.5683 17.3043 18.1732 13.9095 14.0002 13.9095C9.82719 13.9095 6.4322 17.3044 6.4322 21.4774Z" fill="#7E7E7E"/>
<path d="M8.7397 12.2055L13.146 5.79046L9.86167 1.05879C9.67442 0.788867 9.36671 0.62793 9.03823 0.62793H1.00236C0.629391 0.62793 0.287136 0.835082 0.114238 1.16566C-0.0587549 1.49615 -0.0337818 1.89543 0.179015 2.2019L7.17405 12.2799C6.80836 12.4294 6.55011 12.7883 6.55011 13.2078C6.55011 13.7614 6.99886 14.2102 7.55248 14.2102H8.74611C10.2238 13.1389 12.0393 12.5061 14 12.5061C15.9607 12.5061 17.7762 13.1389 19.2539 14.2102H20.4476C21.0011 14.2102 21.4499 13.7615 21.4499 13.2078C21.4499 12.7883 21.1919 12.4293 20.8261 12.2799L27.821 2.2019C28.0338 1.89543 28.0587 1.49615 27.8858 1.16566C27.7129 0.835082 27.3706 0.62793 26.9977 0.62793H18.9619C18.6333 0.62793 18.3257 0.788867 18.1385 1.05879L10.4017 12.2055H8.7397Z" fill="#7E7E7E"/>
</svg>
