<svg width="20" height="20" viewBox="0 0 20 20" fill="none" xmlns="http://www.w3.org/2000/svg">
<g id="24 / time / calendar-dates">
<path id="icon" fill-rule="evenodd" clip-rule="evenodd" d="M6.66602 5.00033H4.99935V4.16699H3.33268V6.66699H16.666V4.16699H14.9993V5.00033H13.3327V4.16699H6.66602V5.00033ZM16.666 8.33366H3.33268V16.667H16.666V8.33366ZM13.3327 2.50033H6.66602V1.66699H4.99935V2.50033H3.33268C2.41221 2.50033 1.66602 3.24652 1.66602 4.16699V16.667C1.66602 17.5875 2.41221 18.3337 3.33268 18.3337H16.666C17.5865 18.3337 18.3327 17.5875 18.3327 16.667V4.16699C18.3327 3.24652 17.5865 2.50033 16.666 2.50033H14.9993V1.66699H13.3327V2.50033ZM7.49935 11.667H5.83268V10.0003H7.49935V11.667ZM9.16602 11.667H10.8327V10.0003H9.16602V11.667ZM14.166 11.667H12.4993V10.0003H14.166V11.667ZM5.83268 15.0003H7.49935V13.3337H5.83268V15.0003ZM10.8327 15.0003H9.16602V13.3337H10.8327V15.0003Z" fill="#0E77B1"/>
</g>
</svg>
