<svg width="20" height="20" viewBox="0 0 20 20" fill="none" xmlns="http://www.w3.org/2000/svg">
<g id="24 / basic / list">
<path id="icon" fill-rule="evenodd" clip-rule="evenodd" d="M1.66602 4.99967C1.66602 5.92015 2.41221 6.66634 3.33268 6.66634C4.25316 6.66634 4.99935 5.92015 4.99935 4.99967C4.99935 4.0792 4.25316 3.33301 3.33268 3.33301C2.41221 3.33301 1.66602 4.0792 1.66602 4.99967ZM18.3327 4.16634V5.83301H6.66602V4.16634H18.3327ZM18.3327 10.833V9.16634H6.66602V10.833H18.3327ZM6.66602 15.833H18.3327V14.1663H6.66602V15.833ZM1.66602 14.9997C1.66602 15.9201 2.41221 16.6663 3.33268 16.6663C4.25316 16.6663 4.99935 15.9201 4.99935 14.9997C4.99935 14.0792 4.25316 13.333 3.33268 13.333C2.41221 13.333 1.66602 14.0792 1.66602 14.9997ZM3.33268 11.6663C2.41221 11.6663 1.66602 10.9201 1.66602 9.99967C1.66602 9.0792 2.41221 8.33301 3.33268 8.33301C4.25316 8.33301 4.99935 9.0792 4.99935 9.99967C4.99935 10.9201 4.25316 11.6663 3.33268 11.6663Z" fill="#0E77B1"/>
</g>
</svg>
