<svg width="20" height="20" viewBox="0 0 20 20" fill="none" xmlns="http://www.w3.org/2000/svg">
<path fill-rule="evenodd" clip-rule="evenodd" d="M10.8327 9.16667C9.27948 9.16667 7.9744 8.10436 7.60436 6.66667H1.66602V5H7.60436C7.9744 3.56231 9.27948 2.5 10.8327 2.5C12.6736 2.5 14.166 3.99238 14.166 5.83333C14.166 7.67428 12.6736 9.16667 10.8327 9.16667ZM15.8327 5H18.3327V6.66667H15.8327V5ZM6.66602 17.5C5.11282 17.5 3.80773 16.4377 3.4377 15H1.66602V13.3333H3.4377C3.80773 11.8956 5.11282 10.8333 6.66602 10.8333C8.50696 10.8333 9.99935 12.3257 9.99935 14.1667C9.99935 16.0076 8.50696 17.5 6.66602 17.5ZM11.666 15H18.3327V13.3333H11.666V15ZM8.33268 14.1667C8.33268 15.0871 7.58649 15.8333 6.66602 15.8333C5.74554 15.8333 4.99935 15.0871 4.99935 14.1667C4.99935 13.2462 5.74554 12.5 6.66602 12.5C7.58649 12.5 8.33268 13.2462 8.33268 14.1667ZM12.4993 5.83333C12.4993 6.75381 11.7532 7.5 10.8327 7.5C9.91221 7.5 9.16602 6.75381 9.16602 5.83333C9.16602 4.91286 9.91221 4.16667 10.8327 4.16667C11.7532 4.16667 12.4993 4.91286 12.4993 5.83333Z" fill="#0E77B1"/>
</svg>
