<svg width="48" height="48" viewBox="0 0 48 48" fill="none" xmlns="http://www.w3.org/2000/svg">
<circle cx="24" cy="24" r="24" fill="#2A3A43"/>
<path fill-rule="evenodd" clip-rule="evenodd" d="M25.2333 35.0667V33.3889C28.3407 32.9445 31.028 31.1973 32.724 28.7183C36.9761 28.1325 39.3333 24.4492 39.3333 19.4V14.7C39.3333 12.9695 37.9305 11.5667 36.2 11.5667H34.2141C33.6724 10.6301 32.6597 10 31.5 10H15.8333C14.6735 10 13.6609 10.6301 13.1191 11.5667H11.1333C9.40284 11.5667 8 12.9695 8 14.7V19.4C8 24.4491 10.3572 28.1324 14.6092 28.7183C16.3052 31.1973 18.9925 32.9445 22.0999 33.3889V35.0667H20.5333C18.8028 35.0667 17.3999 36.4695 17.3999 38.2H29.9333C29.9333 36.4695 28.5304 35.0667 26.8 35.0667H25.2333ZM11.1333 14.7H12.6999V22.5333C12.6999 23.2505 12.7688 23.9515 12.9002 24.6303C11.7447 23.5902 11.1333 21.799 11.1333 19.4V14.7ZM34.6333 14.7V22.5333C34.6333 23.2505 34.5644 23.9516 34.433 24.6304C35.5885 23.5904 36.2 21.7991 36.2 19.4V14.7H34.6333ZM15.8333 22.5333V13.1333H31.5V22.5333C31.5 26.8596 27.9929 30.3667 23.6667 30.3667C19.3404 30.3667 15.8333 26.8596 15.8333 22.5333Z" fill="white"/>
</svg>
