<svg width="38" height="36" viewBox="0 0 38 36" fill="none" xmlns="http://www.w3.org/2000/svg">
<path d="M36.5158 9.74229L26.8832 0.212203C26.7461 0.0766406 26.5569 0 26.3593 0H12.0025C10.3958 0 9.08864 1.24411 9.08864 2.77327V12.4616H3.27039C2.0683 12.4616 1.09033 13.3924 1.09033 14.5367V24.9249C1.09033 26.0691 2.0683 27 3.27039 27H9.08864V33.2316C9.08864 34.7581 10.3958 36 12.0025 36H33.8052C35.4119 36 36.7191 34.7588 36.7191 33.2331V10.2224C36.7191 10.0434 36.6462 9.87131 36.5158 9.74229ZM26.5395 1.86898L34.447 9.6923H26.5395V1.86898ZM3.27039 25.6154C2.87014 25.6154 2.54462 25.3057 2.54462 24.9249V14.5367C2.54462 14.1559 2.87021 13.8461 3.27039 13.8461H22.9052C23.3054 13.8461 23.631 14.1559 23.631 14.5367V24.9249C23.631 25.3057 23.3054 25.6154 22.9052 25.6154H3.27039ZM35.2648 33.2331C35.2648 33.9953 34.61 34.6154 33.8051 34.6154H12.0025C11.1977 34.6154 10.5428 33.9947 10.5428 33.2317V27H22.9052C24.1073 27 25.0852 26.0691 25.0852 24.9249V14.5367C25.0852 13.3924 24.1073 12.4616 22.9052 12.4616H10.5428V2.77327C10.5428 2.00749 11.1977 1.38459 12.0025 1.38459H25.0852V10.3846C25.0852 10.767 25.4108 11.0769 25.8123 11.0769H35.2648V33.2331Z" fill="#FF3D00"/>
<path d="M9.78358 17.5706C9.54217 17.2718 9.2425 17.0777 8.88463 16.9885C8.65171 16.929 8.15184 16.8993 7.38493 16.8993H5.36121V22.8461H6.6223V20.6029H7.4446C8.01552 20.6029 8.45151 20.5745 8.75259 20.5176C8.97413 20.4717 9.19213 20.3777 9.40659 20.2357C9.62104 20.0937 9.79783 19.8983 9.93703 19.6496C10.0762 19.4008 10.1458 19.0938 10.1458 18.7287C10.1457 18.2555 10.025 17.8695 9.78358 17.5706ZM8.70356 19.2074C8.60844 19.34 8.47706 19.4373 8.30943 19.4995C8.1418 19.5617 7.80955 19.5928 7.31248 19.5928H6.6223V17.9053H7.23155C7.68601 17.9053 7.98849 17.9188 8.13899 17.9459C8.34347 17.981 8.51251 18.0689 8.64595 18.2096C8.77947 18.3502 8.84623 18.5287 8.84623 18.745C8.8463 18.9208 8.79867 19.0749 8.70356 19.2074Z" fill="#FF3D00"/>
<path d="M16.2083 18.5239C16.0719 18.144 15.8731 17.8228 15.6118 17.5605C15.3505 17.2982 15.0366 17.1156 14.6702 17.0128C14.3976 16.9371 14.0013 16.8993 13.4816 16.8993H11.1766V22.8461H13.5497C14.0156 22.8461 14.3876 22.8042 14.6659 22.7203C15.0381 22.6068 15.3335 22.4486 15.5521 22.2457C15.8418 21.978 16.0648 21.6278 16.221 21.1951C16.3489 20.8408 16.4127 20.4189 16.4127 19.9295C16.4127 19.3724 16.3446 18.9039 16.2083 18.5239ZM14.9812 20.966C14.896 21.2324 14.7859 21.4237 14.651 21.5399C14.5161 21.6562 14.3464 21.7387 14.1419 21.7873C13.9857 21.8252 13.7315 21.8442 13.3793 21.8442H12.4377V17.9053H13.0044C13.5184 17.9053 13.8636 17.9242 14.0396 17.9621C14.2754 18.0108 14.47 18.1041 14.6233 18.242C14.7767 18.38 14.896 18.572 14.9812 18.818C15.0664 19.0641 15.109 19.417 15.109 19.8768C15.109 20.3365 15.0664 20.6995 14.9812 20.966Z" fill="#FF3D00"/>
<path d="M21.7724 17.9053V16.8993H17.4906V22.8461H18.7517V20.3189H21.3591V19.3129H18.7517V17.9053H21.7724Z" fill="#FF3D00"/>
</svg>
