<svg width="51" height="53" viewBox="0 0 51 53" fill="none" xmlns="http://www.w3.org/2000/svg">
<path d="M50.1864 14.3428L36.6839 0.31241C36.4917 0.112832 36.2265 0 35.9495 0H15.825C13.5728 0 11.7405 1.83161 11.7405 4.08286V18.3462H3.58482C1.89979 18.3462 0.528931 19.7166 0.528931 21.4012V36.695C0.528931 38.3796 1.89979 39.75 3.58482 39.75H11.7405V48.9243C11.7405 51.1716 13.5728 53 15.825 53H46.3868C48.639 53 50.4713 51.1726 50.4713 48.9266V15.0496C50.4713 14.7861 50.3691 14.5328 50.1864 14.3428ZM36.2021 2.75155L47.2864 14.2692H36.2021V2.75155ZM3.58482 37.7116C3.02376 37.7116 2.56746 37.2556 2.56746 36.695V21.4012C2.56746 20.8407 3.02386 20.3846 3.58482 20.3846H31.1076C31.6686 20.3846 32.1251 20.8407 32.1251 21.4012V36.695C32.1251 37.2556 31.6686 37.7116 31.1076 37.7116H3.58482ZM48.4327 48.9266C48.4327 50.0487 47.5149 50.9616 46.3867 50.9616H15.825C14.6968 50.9616 13.7789 50.0477 13.7789 48.9244V39.75H31.1075C32.7927 39.75 34.1635 38.3796 34.1635 36.695V21.4012C34.1635 19.7166 32.7927 18.3462 31.1075 18.3462H13.7789V4.08286C13.7789 2.95547 14.6968 2.03843 15.825 2.03843H34.1635V15.2884C34.1635 15.8513 34.6199 16.3076 35.1827 16.3076H48.4327V48.9266Z" fill="#006C0B"/>
<path d="M28.4649 29.6903C28.2319 29.3139 27.9094 29.0174 27.4974 28.8003C27.0853 28.5834 26.4494 28.3735 25.5894 28.1704C24.7294 27.9673 24.188 27.7722 23.965 27.5851C23.7897 27.4378 23.7021 27.2604 23.7021 27.0536C23.7021 26.8266 23.7956 26.6453 23.9829 26.51C24.2736 26.299 24.6758 26.1936 25.1892 26.1936C25.6868 26.1936 26.0602 26.2922 26.309 26.4891C26.5578 26.6861 26.72 27.0097 26.7957 27.4597L28.5633 27.3819C28.5356 26.5777 28.2441 25.9347 27.6886 25.4531C27.133 24.9712 26.306 24.7305 25.2073 24.7305C24.5344 24.7305 23.9601 24.8318 23.4843 25.035C23.0085 25.2381 22.6442 25.5336 22.3914 25.9217C22.1386 26.31 22.012 26.7272 22.012 27.1731C22.012 27.8656 22.2808 28.453 22.8185 28.9349C23.2007 29.2771 23.8655 29.5658 24.8131 29.8007C25.5495 29.9839 26.0215 30.1113 26.2283 30.1828C26.5311 30.2904 26.743 30.4168 26.8643 30.562C26.9858 30.7076 27.0465 30.8835 27.0465 31.0908C27.0465 31.4131 26.9022 31.6949 26.6136 31.9357C26.3249 32.1765 25.896 32.2969 25.3266 32.2969C24.7891 32.2969 24.3621 32.1616 24.0457 31.8907C23.7292 31.6202 23.5193 31.1962 23.4156 30.6187L21.6956 30.7859C21.811 31.7654 22.1654 32.511 22.7587 33.0226C23.3519 33.534 24.2019 33.7898 25.3088 33.7898C26.0691 33.7898 26.7044 33.6833 27.214 33.4703C27.7236 33.2576 28.1175 32.9319 28.3962 32.4938C28.675 32.0561 28.8144 31.5862 28.8144 31.0845C28.8142 30.5312 28.6978 30.0664 28.4649 29.6903Z" fill="#006C0B"/>
<path d="M16.4886 32.1594V24.9512H14.7207V33.6345H20.8841V32.1594H16.4886Z" fill="#006C0B"/>
<path d="M10.7728 29.1315L13.4962 24.8795H11.4479L9.72795 27.6923L7.97201 24.8795H5.90584L8.61691 29.0658L5.625 33.6345H7.745L9.69203 30.6065L11.6328 33.6345H13.7648L10.7728 29.1315Z" fill="#006C0B"/>
</svg>
