<svg width="14" height="14" viewBox="0 0 14 14" fill="none" xmlns="http://www.w3.org/2000/svg">
<path fill-rule="evenodd" clip-rule="evenodd" d="M0.583984 7.58301H1.78269C2.0517 10.0165 3.98387 11.9486 6.41732 12.2176V13.4163H7.58398V12.2176C10.0174 11.9486 11.9496 10.0165 12.2186 7.58301H13.4173V6.41634H12.2186C11.9496 3.9829 10.0174 2.05072 7.58398 1.78172V0.583008H6.41732V1.78172C3.98387 2.05072 2.0517 3.9829 1.78269 6.41634H0.583984V7.58301ZM2.91702 6.99963C2.91702 4.74447 4.74519 2.91629 7.00035 2.91629C9.25551 2.91629 11.0837 4.74447 11.0837 6.99963C11.0837 9.25479 9.25551 11.083 7.00035 11.083C4.74519 11.083 2.91702 9.25479 2.91702 6.99963ZM7.00062 4.66632C8.28929 4.66632 9.33396 5.71099 9.33396 6.99965C9.33396 8.28832 8.28929 9.33299 7.00062 9.33299C5.71196 9.33299 4.66729 8.28832 4.66729 6.99965C4.66729 5.71099 5.71196 4.66632 7.00062 4.66632ZM5.83397 6.99962C5.83397 6.35529 6.35631 5.83296 7.00064 5.83296C7.64497 5.83296 8.1673 6.35529 8.1673 6.99962C8.1673 7.64396 7.64497 8.16629 7.00064 8.16629C6.35631 8.16629 5.83397 7.64396 5.83397 6.99962Z" fill="white"/>
</svg>
