<svg width="41" height="34" viewBox="0 0 41 34" fill="none" xmlns="http://www.w3.org/2000/svg">
<path d="M40.2963 5.03704C40.2963 0.62963 36.9794 0 32.1111 0C29.5038 0 28.6482 3.75294e-08 25.5 3.75294e-08C22.3519 3.75294e-08 20.1159 3.75294e-08 17 3.75294e-08C7.61116 3.75294e-08 0 7.61116 0 17C0 26.3888 7.61116 34 17 34C26.3888 34 30.2222 26.1296 34 19.8333C39.1831 11.1949 40.2963 10.6956 40.2963 5.03704Z" fill="white"/>
<path fill-rule="evenodd" clip-rule="evenodd" d="M31.8605 10.7281V10.2388C32.7669 10.1091 33.5507 9.59952 34.0453 8.87649C35.2854 8.70554 35.9729 7.63128 35.9729 6.15868V4.78784C35.9729 4.28312 35.5637 3.87395 35.059 3.87395H34.4799C34.3219 3.60078 34.0266 3.41699 33.6883 3.41699H29.1189C28.7806 3.41699 28.4852 3.60078 28.3272 3.87395H27.7479C27.2431 3.87395 26.834 4.28312 26.834 4.78784V6.15868C26.834 7.63141 27.5216 8.70573 28.7619 8.87654C29.2565 9.59955 30.0403 10.1091 30.9466 10.2388V10.7281H30.4897C29.985 10.7281 29.5758 11.1373 29.5758 11.642H33.2314C33.2314 11.1373 32.8222 10.7281 32.3175 10.7281H31.8605ZM27.7479 4.78784H28.205V7.07255C28.205 7.28178 28.2251 7.48633 28.2634 7.68435C27.9263 7.38104 27.7479 6.85851 27.7479 6.15868V4.78784ZM34.6022 4.78784V7.07255C34.6022 7.28167 34.5821 7.4861 34.5438 7.68402C34.8807 7.38066 35.059 6.85826 35.059 6.15868V4.78784H34.6022ZM29.1187 7.07254V4.33087H33.6881V7.07254C33.6881 8.33436 32.6652 9.35726 31.4034 9.35726C30.1416 9.35726 29.1187 8.33436 29.1187 7.07254Z" fill="#282828"/>
</svg>
