<svg width="124" height="41" viewBox="0 0 124 41" fill="none" xmlns="http://www.w3.org/2000/svg">
<path d="M124 35.4576C124 38.5183 121.547 40.9976 118.519 40.9976H5.4809C2.45523 41 0 38.5183 0 35.4576V5.54002C0 2.48172 2.45523 0 5.4809 0H118.519C121.545 0 124 2.48172 124 5.54002V35.4576Z" fill="black"/>
<path d="M32.3359 27.0997C31.6799 28.57 31.3661 29.2259 30.52 30.5256C29.3411 32.3395 27.6774 34.6002 25.619 34.6194C23.7889 34.6362 23.3183 33.4158 20.8346 33.4302C18.3508 33.4446 17.8327 34.641 16.0025 34.6242C13.9442 34.605 12.3684 32.5653 11.1895 30.749C7.89051 25.6751 7.54825 19.7195 9.58041 16.5555C11.0255 14.3068 13.3049 12.9902 15.4487 12.9902C17.6306 12.9902 19.0044 14.2011 20.8084 14.2011C22.5601 14.2011 23.6273 12.9902 26.1491 12.9902C28.0576 12.9902 30.0779 14.0401 31.5183 15.8563C26.8003 18.4678 27.568 25.2787 32.3359 27.0997Z" fill="white"/>
<path d="M24.2359 10.9603C25.1533 9.77107 25.8498 8.08936 25.5954 6.37402C24.098 6.47733 22.3463 7.44071 21.3219 8.69718C20.3926 9.83834 19.6273 11.5273 19.9244 13.1705C21.562 13.2234 23.2543 12.236 24.2359 10.9603Z" fill="white"/>
<path d="M42.3833 16.4785L37.6582 30.5328H39.8211L41.2305 26.218H45.8035L47.2533 30.5328H49.4757L44.7316 16.4785H42.3833ZM43.5028 18.7897C43.662 19.4167 43.8355 20.0678 44.0565 20.7717L45.3305 24.4979H41.7083L42.9632 20.7476C43.1534 20.1398 43.334 19.484 43.5028 18.7897Z" fill="white"/>
<path d="M55.5908 20.123C54.1576 20.123 53.0096 20.6828 52.2467 21.7447L52.1635 20.3465H50.2383L50.2502 20.5243C50.3072 21.3963 50.331 22.3549 50.331 23.7291V34.5617H52.4344V29.507C53.0881 30.2974 54.1291 30.7562 55.3104 30.7562C56.5392 30.7562 57.6729 30.2685 58.4977 29.3868C59.4199 28.4018 59.9047 26.9868 59.9047 25.2955C59.9047 23.8012 59.4816 22.5087 58.683 21.5597C57.9011 20.6348 56.803 20.123 55.5908 20.123ZM55.0679 21.884C56.9432 21.884 57.7822 23.6402 57.7822 25.3796C57.7822 27.6235 56.7103 29.0193 54.9871 29.0193C53.8106 29.0193 52.7933 28.2097 52.5081 27.0469C52.4582 26.8667 52.4344 26.6288 52.4344 26.3574V24.6468C52.4344 24.4931 52.4677 24.3033 52.501 24.1231C52.5105 24.0654 52.5224 24.0078 52.5319 23.9501C52.8456 22.7321 53.8867 21.884 55.0679 21.884Z" fill="white"/>
<path d="M66.4244 20.123C64.9912 20.123 63.8432 20.6828 63.0802 21.7447L62.9971 20.3465H61.0742L61.0837 20.5243C61.1408 21.3963 61.1645 22.3549 61.1645 23.7291V34.5617H63.268V29.507C63.9216 30.2974 64.9627 30.7562 66.1439 30.7562C67.3727 30.7562 68.5065 30.2685 69.3336 29.3868C70.2534 28.4018 70.7407 26.9868 70.7407 25.2955C70.7407 23.8012 70.3176 22.5087 69.5166 21.5597C68.7347 20.6348 67.6366 20.123 66.4244 20.123ZM65.9015 21.884C67.7768 21.884 68.6158 23.6402 68.6158 25.3796C68.6158 27.6235 67.5439 29.0193 65.8207 29.0193C64.6442 29.0193 63.6245 28.2097 63.3417 27.0469C63.2918 26.8667 63.268 26.6288 63.268 26.3574V24.6468C63.268 24.4907 63.3013 24.3033 63.3346 24.1207C63.3441 24.063 63.356 24.0054 63.3655 23.9501C63.6792 22.7321 64.7202 21.884 65.9015 21.884Z" fill="white"/>
<path d="M79.9981 22.4339C78.0349 21.6652 77.4051 21.0622 77.4051 19.945C77.4051 19.0057 78.1442 18.0567 79.7961 18.0567C81.158 18.0567 82.0303 18.5348 82.2656 18.6837L82.4439 18.7943L83.0381 17.0189L82.9216 16.9492C82.5698 16.7402 81.5645 16.2549 79.8579 16.2549C77.1745 16.2549 75.3016 17.8549 75.3016 20.1468C75.3016 21.9943 76.4757 23.2868 78.9951 24.2118C80.7801 24.8868 81.4456 25.5763 81.4456 26.7607C81.4456 28.1013 80.4212 28.9325 78.7717 28.9325C77.6974 28.9325 76.5922 28.6154 75.7389 28.0629L75.5559 27.9451L74.9902 29.7614L75.0948 29.8311C75.8887 30.3668 77.3837 30.756 78.6505 30.756C82.2656 30.756 83.5491 28.5265 83.5491 26.619C83.5467 24.6538 82.5176 23.4406 79.9981 22.4339Z" fill="white"/>
<path d="M87.3325 17.9248L85.2695 18.5807V20.3465H83.7578V22.045H85.2695V27.2511C85.2695 28.5099 85.5071 29.3916 85.9968 29.949C86.4674 30.4703 87.1899 30.7562 88.0313 30.7562C88.8275 30.7562 89.3908 30.5977 89.657 30.5016L89.7759 30.4583L89.676 28.755L89.474 28.8175C89.2078 28.8991 88.9345 28.9328 88.4948 28.9328C87.6795 28.9328 87.3325 28.4114 87.3325 27.1886V22.0474H89.8709V20.3489H87.3325V17.9248Z" fill="white"/>
<path d="M95.0843 20.123C92.1419 20.123 90.0859 22.3429 90.0859 25.5213C90.0859 28.6037 92.0753 30.7586 94.9251 30.7586H94.9441C97.3518 30.7586 99.9425 29.0625 99.9425 25.3387C99.9425 23.8252 99.479 22.5255 98.602 21.5765C97.7202 20.6276 96.5033 20.123 95.0843 20.123ZM95.0249 21.8024C96.9169 21.8024 97.7796 23.6666 97.7796 25.4012C97.7796 27.5322 96.6031 29.0793 94.9845 29.0793H94.9631C93.3683 29.0793 92.2084 27.5586 92.2084 25.4613C92.2108 23.6402 93.0807 21.8024 95.0249 21.8024Z" fill="white"/>
<path d="M106.386 20.2215L106.261 20.1903C106.075 20.1447 105.923 20.123 105.738 20.123C104.637 20.123 103.648 20.7789 103.099 21.836L103.038 20.3489H101.15L101.162 20.5267C101.219 21.3675 101.241 22.3141 101.241 23.5898L101.222 30.5376H103.325V25.1177C103.325 24.8222 103.344 24.5435 103.382 24.2937C103.62 22.9916 104.487 22.1507 105.595 22.1507C105.811 22.1507 105.98 22.1675 106.161 22.1867L106.386 22.2108V20.2215Z" fill="white"/>
<path d="M111.115 20.1035C108.315 20.1035 106.359 22.3642 106.359 25.6051C106.359 28.7235 108.306 30.7391 111.317 30.7391C112.9 30.7391 114.003 30.3883 114.647 30.0928L114.773 30.0352L114.369 28.4496L114.193 28.5217C113.621 28.7571 112.858 28.9973 111.557 28.9973C110.642 28.9973 108.537 28.6922 108.406 25.915L115.196 25.9366L115.225 25.7997C115.268 25.5835 115.289 25.2928 115.289 24.9132C115.289 22.6933 114.196 20.1035 111.115 20.1035ZM110.975 21.7204C111.617 21.7204 112.135 21.9198 112.52 22.3162C113.126 22.9384 113.231 23.8561 113.245 24.2958H108.446C108.643 23.0681 109.402 21.7204 110.975 21.7204Z" fill="white"/>
<path d="M37.6586 6.87815C38.2457 6.79887 38.9278 6.74121 39.6765 6.74121C41.0337 6.74121 41.9987 7.01749 42.638 7.56044C43.2988 8.10339 43.6791 8.88178 43.6791 9.95807C43.6791 11.044 43.2988 11.9305 42.6261 12.5431C41.9321 13.1653 40.8031 13.5017 39.3818 13.5017C38.6973 13.5017 38.1459 13.4824 37.6562 13.4224V6.87815H37.6586ZM38.6141 12.7713C38.8518 12.8098 39.1988 12.8098 39.5696 12.8098C41.5875 12.8194 42.6832 11.7839 42.6832 9.9869C42.6951 8.39889 41.7182 7.4211 39.7217 7.4211C39.2344 7.4211 38.8637 7.46194 38.6141 7.50999V12.7713Z" fill="white"/>
<path d="M47.0639 13.5494C45.6521 13.5494 44.5469 12.6028 44.5469 11.0917C44.5469 9.49164 45.7068 8.55469 47.1495 8.55469C48.6587 8.55469 49.6784 9.5517 49.6784 11.0028C49.6784 12.7782 48.3212 13.5494 47.0758 13.5494H47.0639ZM47.0972 12.8983C48.0075 12.8983 48.692 12.1175 48.692 11.034C48.692 10.2244 48.2476 9.20815 47.1186 9.20815C46.0015 9.20815 45.5119 10.1547 45.5119 11.0628C45.5119 12.1079 46.1631 12.8983 47.0853 12.8983H47.0972Z" fill="white"/>
<path d="M51.1893 8.66504L51.8952 11.0843C52.0355 11.6176 52.1781 12.1197 52.2755 12.6146H52.3088C52.4276 12.1318 52.6011 11.6176 52.7747 11.0939L53.6327 8.66504H54.436L55.2489 11.0531C55.4438 11.6152 55.5959 12.1294 55.7148 12.6122H55.748C55.836 12.1294 55.9762 11.6248 56.1497 11.0627L56.8984 8.66504H57.842L56.1497 13.4411H55.2822L54.4788 11.1612C54.2934 10.6182 54.1413 10.1449 54.013 9.58277H53.9916C53.8609 10.1546 53.6992 10.6591 53.5138 11.1708L52.6677 13.4411H51.8002L50.2148 8.66504H51.1893Z" fill="white"/>
<path d="M58.7947 9.95824C58.7947 9.45373 58.7829 9.05973 58.752 8.66573H59.5981L59.6528 9.44652H59.6741C59.9356 9.00207 60.5417 8.55762 61.4092 8.55762C62.1365 8.55762 63.2655 8.95162 63.2655 10.5901V13.4418H62.3124V10.6886C62.3124 9.9198 61.9963 9.26874 61.0978 9.26874C60.4799 9.26874 59.9903 9.67235 59.8168 10.1576C59.774 10.2657 59.7526 10.4243 59.7526 10.5612V13.4442H58.7971V9.95824H58.7947Z" fill="white"/>
<path d="M64.8164 6.43359H65.7719V13.4415H64.8164V6.43359Z" fill="white"/>
<path d="M69.4936 13.5494C68.0842 13.5494 66.9766 12.6028 66.9766 11.0917C66.9766 9.49164 68.1364 8.55469 69.5815 8.55469C71.0884 8.55469 72.1081 9.5517 72.1081 11.0028C72.1081 12.7782 70.7509 13.5494 69.5031 13.5494H69.4936ZM69.5269 12.8983C70.4372 12.8983 71.1217 12.1175 71.1217 11.034C71.1217 10.2244 70.6772 9.20815 69.5483 9.20815C68.4312 9.20815 67.9415 10.1547 67.9415 11.0628C67.9415 12.1079 68.5928 12.8983 69.515 12.8983H69.5269Z" fill="white"/>
<path d="M77.0127 12.2958C77.0127 12.709 77.0341 13.115 77.0887 13.4394H76.2307L76.1428 12.8388H76.1119C75.829 13.2135 75.2538 13.5499 74.5052 13.5499C73.4427 13.5499 72.8984 12.87 72.8984 12.1781C72.8984 11.0225 74.0274 10.3907 76.0548 10.4027V10.3042C76.0548 9.91019 75.936 9.18946 74.8617 9.19907C74.3625 9.19907 73.8515 9.3264 73.4831 9.55463L73.2668 8.97324C73.7018 8.72579 74.3412 8.55762 75.0019 8.55762C76.6181 8.55762 77.0079 9.55463 77.0079 10.5108V12.2958H77.0127ZM76.0786 11.0033C75.0376 10.9841 73.8539 11.1522 73.8539 12.0796C73.8539 12.6514 74.2651 12.9084 74.7428 12.9084C75.4369 12.9084 75.8813 12.5144 76.0334 12.1084C76.0667 12.0195 76.0762 11.921 76.0762 11.8321V11.0033H76.0786Z" fill="white"/>
<path d="M83.0759 6.43359V12.2067C83.0759 12.6319 83.0878 13.1148 83.1187 13.4415H82.2607L82.2179 12.6127H82.1965C81.9041 13.146 81.2743 13.5496 80.4163 13.5496C79.147 13.5496 78.1583 12.5718 78.1583 11.1208C78.1464 9.52073 79.2445 8.55495 80.5137 8.55495C81.329 8.55495 81.8709 8.9009 82.099 9.27568H82.1204V6.43359H83.0759ZM82.1228 10.609C82.1228 10.4913 82.1133 10.352 82.08 10.2343C81.9398 9.6913 81.4193 9.23724 80.7015 9.23724C79.7151 9.23724 79.128 10.0276 79.128 11.0727C79.128 12.0505 79.6604 12.8481 80.6801 12.8481C81.3194 12.8481 81.9065 12.4541 82.08 11.8127C82.1133 11.6949 82.1228 11.5748 82.1228 11.4379V10.609Z" fill="white"/>
<path d="M89.0991 13.5494C87.6896 13.5494 86.582 12.6028 86.582 11.0917C86.582 9.49164 87.7443 8.55469 89.187 8.55469C90.6963 8.55469 91.7159 9.5517 91.7159 11.0028C91.7159 12.7782 90.3588 13.5494 89.1133 13.5494H89.0991ZM89.1323 12.8983C90.0427 12.8983 90.7272 12.1175 90.7272 11.034C90.7272 10.2244 90.2827 9.20815 89.1537 9.20815C88.0366 9.20815 87.547 10.1547 87.547 11.0628C87.547 12.1079 88.1983 12.8983 89.1205 12.8983H89.1323Z" fill="white"/>
<path d="M92.9197 9.95824C92.9197 9.45373 92.9079 9.05973 92.877 8.66573H93.7231L93.7778 9.44652H93.7992C94.0606 9.00207 94.6667 8.55762 95.5342 8.55762C96.2615 8.55762 97.3905 8.95162 97.3905 10.5901V13.4418H96.435V10.6886C96.435 9.9198 96.1213 9.26874 95.2205 9.26874C94.6025 9.26874 94.1129 9.67235 93.9394 10.1576C93.8966 10.2657 93.8752 10.4243 93.8752 10.5612V13.4442H92.9197V9.95824Z" fill="white"/>
<path d="M102.391 7.51953V8.66309H103.758V9.32376H102.391V11.8992C102.391 12.4902 102.577 12.8265 103.107 12.8265C103.366 12.8265 103.518 12.8073 103.661 12.7665L103.703 13.4271C103.518 13.4872 103.226 13.5448 102.857 13.5448C102.413 13.5448 102.054 13.4055 101.826 13.1797C101.564 12.913 101.457 12.4878 101.457 11.9256V9.32616H100.645V8.66549H101.457V7.7862L102.391 7.51953Z" fill="white"/>
<path d="M104.832 6.43359H105.788V9.41502H105.809C105.961 9.16757 106.199 8.94174 106.494 8.8024C106.777 8.64384 107.112 8.55495 107.471 8.55495C108.174 8.55495 109.303 8.94895 109.303 10.597V13.4391H108.348V10.6979C108.348 9.91713 108.034 9.27568 107.133 9.27568C106.515 9.27568 106.037 9.66968 105.852 10.1454C105.797 10.2631 105.786 10.3928 105.786 10.561V13.4439H104.83V6.43359H104.832Z" fill="white"/>
<path d="M111.397 11.1996C111.419 12.3744 112.234 12.8573 113.187 12.8573C113.871 12.8573 114.295 12.7492 114.642 12.6195L114.815 13.2321C114.478 13.3714 113.893 13.5372 113.056 13.5372C111.45 13.5372 110.473 12.5594 110.473 11.1299C110.473 9.67887 111.416 8.54492 112.947 8.54492C114.661 8.54492 115.105 9.91671 115.105 10.796C115.105 10.9738 115.096 11.1107 115.074 11.2092L111.397 11.1996ZM114.188 10.5798C114.197 10.0368 113.938 9.16715 112.873 9.16715C111.896 9.16715 111.485 9.97677 111.409 10.5798H114.188Z" fill="white"/>
</svg>
