<svg width="125" height="41" viewBox="0 0 125 41" fill="none" xmlns="http://www.w3.org/2000/svg">
<path d="M125 35.4593C125 38.5201 122.527 41 119.474 41H5.52563C2.47322 41 0 38.5201 0 35.4593V5.54067C0 2.4824 2.47322 0 5.52563 0H119.474C122.524 0 125 2.4824 125 5.54067V35.4593Z" fill="black"/>
<path d="M9.375 7.89355V21.7759V35.6582L23.3394 21.7759L9.375 7.89355Z" fill="url(#paint0_linear)"/>
<path d="M27.0883 18.0485L21.4527 14.7844L9.375 7.79297V7.89344L23.3394 21.7758L27.0883 18.0485Z" fill="url(#paint1_linear)"/>
<path d="M9.375 35.6577V35.7606L21.4527 28.7668L27.0883 25.5051L23.3394 21.7754L9.375 35.6577Z" fill="url(#paint2_linear)"/>
<path d="M27.0888 18.0488L23.3398 21.7761L27.0888 25.5058L33.5309 21.7761L27.0888 18.0488Z" fill="url(#paint3_linear)"/>
<path d="M97.2821 27.2036C96.7567 27.2036 96.2801 27.1055 95.8451 26.9119C95.4126 26.7184 95.0484 26.4194 94.7527 26.0175H94.6647C94.7234 26.488 94.7527 26.9365 94.7527 27.3579V30.6809H93.5332V18.982H94.5254L94.6941 20.0872H94.7527C95.0655 19.6461 95.4321 19.3251 95.8476 19.129C96.263 18.933 96.742 18.835 97.2797 18.835C98.3477 18.835 99.1713 19.2001 99.7529 19.9328C100.335 20.6655 100.623 21.6923 100.623 23.0131C100.623 24.3389 100.327 25.3706 99.7382 26.1033C99.1493 26.836 98.3306 27.2036 97.2821 27.2036ZM97.1062 19.874C96.2826 19.874 95.6887 20.1019 95.3221 20.5601C94.9555 21.0159 94.7649 21.7438 94.7551 22.7411V23.0131C94.7551 24.1477 94.9433 24.9589 95.3221 25.449C95.6985 25.9366 96.3046 26.1817 97.1355 26.1817C97.832 26.1817 98.377 25.8999 98.7705 25.3338C99.1639 24.7702 99.3619 23.9909 99.3619 22.9984C99.3619 21.9913 99.1639 21.2193 98.7705 20.6802C98.3745 20.1411 97.8198 19.874 97.1062 19.874Z" fill="#F9F9F9"/>
<path d="M103.448 27.0564H102.229V15.5928H103.448V27.0564Z" fill="#F9F9F9"/>
<path d="M110.461 27.056L110.219 25.9067H110.161C109.76 26.4139 109.359 26.7546 108.958 26.9334C108.56 27.1123 108.061 27.203 107.463 27.203C106.663 27.203 106.038 26.9972 105.586 26.583C105.134 26.1713 104.906 25.5832 104.906 24.8235C104.906 23.1939 106.206 22.3387 108.807 22.2603L110.173 22.2162V21.7162C110.173 21.0816 110.036 20.6135 109.765 20.3121C109.493 20.0107 109.058 19.8587 108.46 19.8587C107.788 19.8587 107.03 20.0646 106.182 20.4787L105.808 19.5426C106.206 19.327 106.639 19.1579 107.113 19.0354C107.585 18.9128 108.059 18.8516 108.535 18.8516C109.496 18.8516 110.207 19.0648 110.669 19.4936C111.131 19.92 111.363 20.6062 111.363 21.5496V27.0609H110.461V27.056ZM107.704 26.1934C108.465 26.1934 109.058 25.9851 109.493 25.5685C109.926 25.1519 110.143 24.5662 110.143 23.8139V23.0836L108.924 23.1351C107.954 23.1694 107.255 23.3213 106.827 23.5885C106.399 23.8556 106.184 24.2722 106.184 24.8382C106.184 25.2793 106.316 25.6175 106.585 25.8479C106.852 26.0782 107.225 26.1934 107.704 26.1934Z" fill="#F9F9F9"/>
<path d="M112.072 18.9814H113.38L115.144 23.586C115.53 24.6373 115.772 25.397 115.865 25.8626H115.924C115.987 25.6126 116.122 25.1838 116.325 24.576C116.527 23.9683 117.192 22.1059 118.319 18.9814H119.626L116.166 28.1759C115.824 29.085 115.423 29.7295 114.963 30.1094C114.506 30.4892 113.944 30.6803 113.277 30.6803C112.906 30.6803 112.537 30.6387 112.175 30.5553V29.5751C112.444 29.6339 112.747 29.6634 113.079 29.6634C113.917 29.6634 114.514 29.1928 114.873 28.2494L115.32 27.1001L112.072 18.9814Z" fill="#F9F9F9"/>
<path d="M74.6875 19.7318C75.0737 20.0528 75.8826 20.7291 75.8826 22.0132C75.8826 23.263 75.1763 23.8536 74.4676 24.4123C74.2476 24.6304 73.9959 24.8681 73.9959 25.2406C73.9959 25.6106 74.2476 25.814 74.4334 25.9659L75.0395 26.4389C75.78 27.0638 76.4545 27.6397 76.4545 28.8037C76.4545 30.3916 74.9222 31.9943 72.0261 31.9943C69.5823 31.9943 68.4043 30.8303 68.4043 29.578C68.4043 28.9703 68.7073 28.1102 69.702 27.5171C70.7455 26.8751 72.1606 26.7918 72.9182 26.7403C72.6811 26.4364 72.4123 26.1154 72.4123 25.5935C72.4123 25.3067 72.4978 25.1377 72.5809 24.9343C72.3952 24.9514 72.2094 24.9686 72.0408 24.9686C70.2568 24.9686 69.245 23.633 69.245 22.3171C69.245 21.5403 69.5994 20.6777 70.3228 20.0528C71.2832 19.2588 72.4294 19.124 73.3385 19.124H76.8064L75.7286 19.7318H74.6875ZM73.49 27.2304C73.3556 27.2133 73.2701 27.2133 73.1039 27.2133C72.9524 27.2133 72.0408 27.2476 71.3345 27.4853C70.9631 27.6201 69.8853 28.0244 69.8853 29.2252C69.8853 30.4235 71.0486 31.2861 72.8497 31.2861C74.4651 31.2861 75.3254 30.5068 75.3254 29.4604C75.3278 28.5978 74.7706 28.1445 73.49 27.2304ZM73.9788 24.0227C74.3649 23.633 74.3992 23.0939 74.3992 22.79C74.3992 21.5746 73.6758 19.6827 72.2779 19.6827C71.8404 19.6827 71.3687 19.9008 71.0975 20.2415C70.8115 20.5968 70.726 21.0526 70.726 21.4912C70.726 22.6234 71.3834 24.4981 72.8326 24.4981C73.2554 24.4956 73.71 24.2922 73.9788 24.0227Z" fill="#F9F9F9"/>
<path d="M64.0838 26.9608C61.4101 26.9608 59.9805 24.8705 59.9805 22.9811C59.9805 20.7732 61.7792 18.8838 64.3355 18.8838C66.8062 18.8838 68.3532 20.8222 68.3532 22.8635C68.3557 24.8533 66.8258 26.9608 64.0838 26.9608ZM66.1855 25.5958C66.5887 25.0567 66.6914 24.3804 66.6914 23.7236C66.6914 22.2386 65.9851 19.4058 63.9005 19.4058C63.3457 19.4058 62.7909 19.6263 62.3877 19.9792C61.7327 20.5698 61.613 21.3098 61.613 22.0376C61.613 23.7065 62.4366 26.4535 64.4723 26.4535C65.1273 26.4535 65.7994 26.1349 66.1855 25.5958Z" fill="#F9F9F9"/>
<path d="M54.9705 26.9608C52.2969 26.9608 50.8672 24.8705 50.8672 22.9811C50.8672 20.7732 52.6659 18.8838 55.2222 18.8838C57.693 18.8838 59.24 20.8222 59.24 22.8635C59.24 24.8533 57.7101 26.9608 54.9705 26.9608ZM57.0722 25.5958C57.4755 25.0567 57.5781 24.3804 57.5781 23.7236C57.5781 22.2386 56.8718 19.4058 54.7872 19.4058C54.2324 19.4058 53.6777 19.6263 53.2744 19.9792C52.6195 20.5698 52.4997 21.3098 52.4997 22.0376C52.4997 23.7065 53.3233 26.4535 55.3591 26.4535C56.0116 26.4535 56.6836 26.1349 57.0722 25.5958Z" fill="#F9F9F9"/>
<path d="M49.5812 26.6957L47.1642 27.2544C46.1842 27.4063 45.3044 27.5411 44.3757 27.5411C39.7079 27.5411 37.9336 24.1006 37.9336 21.405C37.9336 18.1164 40.4532 15.0654 44.7643 15.0654C45.6783 15.0654 46.5556 15.2002 47.3499 15.4208C48.6183 15.7761 49.2097 16.2172 49.5812 16.472L48.1784 17.81L47.587 17.9448L48.0097 17.266C47.4354 16.7073 46.387 15.6732 44.3928 15.6732C41.7216 15.6732 39.7103 17.7071 39.7103 20.6747C39.7103 23.8604 42.01 26.8623 45.6954 26.8623C46.778 26.8623 47.3352 26.6418 47.8436 26.4384V23.7134L45.2921 23.8482L46.6436 23.1179H50.2288L49.7889 23.5418C49.6691 23.6448 49.6545 23.6791 49.6203 23.8139C49.6032 23.9658 49.5861 24.4583 49.5861 24.6274V26.6957H49.5812Z" fill="#F9F9F9"/>
<path d="M80.0295 26.2085C79.4723 26.157 79.355 26.0565 79.355 25.3949V25.2087V15.7986C79.3575 15.7618 79.3599 15.7251 79.3648 15.6883C79.4332 15.0953 79.6018 14.9948 80.1273 14.6885H77.7078L76.4395 15.2987H77.7323V15.306V15.2987V25.2037V25.7649C77.7323 26.1031 77.6663 26.1546 77.2753 26.6618H80.269L80.8947 26.2893C80.6063 26.2575 80.3179 26.2428 80.0295 26.2085Z" fill="#F9F9F9"/>
<path d="M86.91 26.3628C86.7267 26.4633 86.541 26.5834 86.3577 26.6667C85.8029 26.9191 85.2311 26.9877 84.7276 26.9877C84.1924 26.9877 83.3517 26.9534 82.4939 26.331C81.3038 25.488 80.7832 24.0397 80.7832 22.7777C80.7832 20.1679 82.8996 18.8887 84.6274 18.8887C85.2311 18.8887 85.8543 19.0406 86.3577 19.3592C87.196 19.913 87.4159 20.6384 87.5308 21.0255L83.5863 22.6257L82.2935 22.7262C82.7114 24.8631 84.1558 26.108 85.7516 26.108C86.607 26.108 87.2302 25.8065 87.7996 25.5198L86.91 26.3628ZM85.3337 21.3466C85.6514 21.2289 85.8201 21.1285 85.8201 20.8932C85.8201 20.2193 85.0649 19.4449 84.1582 19.4449C83.4861 19.4449 82.2275 19.9669 82.2275 21.7852C82.2275 22.0719 82.2618 22.3733 82.2789 22.6772L85.3337 21.3466Z" fill="#F9F9F9"/>
<path d="M88.5323 19.0038V20.1139H88.3978V19.0038H88.0312V18.8887H88.8988V19.0038H88.5323Z" fill="#F9F9F9"/>
<path d="M90.0434 20.1139V18.9916H90.0361L89.6939 20.1139H89.5889L89.2443 18.9916H89.2394V20.1139H89.1172V18.8887H89.3274L89.6377 19.8787H89.6426L89.9481 18.8887H90.1607V20.1139H90.0434Z" fill="#F9F9F9"/>
<path d="M41.2895 11.7652H40.4488C40.4488 11.65 40.3682 11.3217 40.2093 10.7801H38.9971C38.8334 11.3119 38.7503 11.6402 38.7503 11.7652H37.9609C37.9609 11.6966 38.1662 11.1354 38.5744 10.0792C38.9825 9.02552 39.1878 8.44474 39.1878 8.33691H40.18C40.18 8.43739 40.3657 9.00836 40.7348 10.0547C41.1062 11.1011 41.2895 11.6721 41.2895 11.7652ZM40.0773 10.2802C39.7792 9.37349 39.6277 8.88583 39.6277 8.81232H39.5861C39.5861 8.88093 39.4322 9.37104 39.1218 10.2802H40.0773Z" fill="#FCFCFD"/>
<path d="M44.6762 11.7652H44.0286C44.0286 11.6942 43.7891 11.3143 43.3076 10.6257C42.8042 9.90036 42.5158 9.40535 42.4474 9.13824H42.4058C42.4498 9.52298 42.4718 9.87095 42.4718 10.1797C42.4718 10.6135 42.484 11.1403 42.5085 11.7652H41.8633C41.8902 11.2212 41.9024 10.6233 41.9024 9.97142C41.9024 9.33183 41.8902 8.78536 41.8633 8.33691H42.6429C42.6429 8.43003 42.8579 8.80007 43.2905 9.44946C43.75 10.1381 44.0139 10.6061 44.0823 10.8536H44.1214C44.0799 10.4615 44.0579 10.1111 44.0579 9.79989C44.0579 9.32448 44.0457 8.83682 44.0212 8.33691H44.6786C44.6542 8.77311 44.642 9.31713 44.642 9.97142C44.6395 10.6331 44.6518 11.231 44.6762 11.7652Z" fill="#FCFCFD"/>
<path d="M48.4824 9.93422C48.4824 10.4317 48.3236 10.8679 48.0034 11.2404C47.6857 11.6128 47.2385 11.7991 46.6642 11.7991C46.4051 11.7991 46.0483 11.7893 45.5938 11.7672C45.6157 11.2379 45.628 10.64 45.628 9.97343C45.628 9.33384 45.6157 8.78982 45.5938 8.33892H46.0532C46.129 8.33892 46.2414 8.33647 46.3905 8.33157C46.5395 8.32667 46.6373 8.32422 46.6813 8.32422C47.3118 8.32422 47.7713 8.48105 48.0547 8.79717C48.3382 9.11329 48.4824 9.49068 48.4824 9.93422ZM47.7639 10.0469C47.7639 9.70877 47.6662 9.42696 47.4707 9.19416C47.2751 8.96381 46.9745 8.84863 46.5738 8.84863C46.498 8.84863 46.3953 8.85599 46.2634 8.87314C46.2805 9.22357 46.2903 9.59115 46.2903 9.97343C46.2903 10.3925 46.3 10.8091 46.3171 11.2208C46.432 11.2428 46.5444 11.2551 46.6593 11.2551C47.0356 11.2551 47.3142 11.1374 47.4951 10.9046C47.6735 10.6694 47.7639 10.3851 47.7639 10.0469Z" fill="#FCFCFD"/>
<path d="M51.9891 11.7648H51.212C51.0091 11.1423 50.8527 10.7601 50.7452 10.6155C50.6377 10.4709 50.4617 10.3974 50.2198 10.3974C50.1171 10.3974 50.0218 10.3974 49.9289 10.3998C49.9289 10.8507 49.9363 11.3065 49.9534 11.7672H49.2227C49.2447 11.2379 49.2569 10.64 49.2569 9.97343C49.2569 9.33384 49.2447 8.78982 49.2227 8.33892H49.6772C49.7285 8.33892 49.8385 8.33647 50.0071 8.33157C50.1733 8.32667 50.3297 8.32422 50.4715 8.32422C51.2755 8.32422 51.6763 8.59868 51.6763 9.15005C51.6763 9.58625 51.4466 9.89256 50.9896 10.0641V10.1033C51.1655 10.1523 51.322 10.2896 51.4539 10.5175C51.5834 10.7429 51.7643 11.1595 51.9891 11.7648ZM51.0042 9.34364C51.0042 8.99567 50.7794 8.81923 50.3322 8.81923C50.1684 8.81923 50.0218 8.83148 49.8972 8.85599C49.9167 9.128 49.9265 9.48332 49.9265 9.91952C50.0218 9.92197 50.1049 9.92442 50.1709 9.92442C50.7256 9.92687 51.0042 9.73083 51.0042 9.34364Z" fill="#FCFCFD"/>
<path d="M55.7514 9.98837C55.7514 10.5275 55.5877 10.9735 55.2578 11.3288C54.9278 11.6841 54.5222 11.8606 54.0358 11.8606C53.5739 11.8606 53.1878 11.6989 52.875 11.3729C52.5646 11.047 52.4082 10.6329 52.4082 10.133C52.4082 9.59384 52.5719 9.14784 52.9019 8.79251C53.2318 8.43718 53.6375 8.26074 54.1238 8.26074C54.5857 8.26074 54.9718 8.42248 55.2847 8.7484C55.595 9.07187 55.7514 9.48601 55.7514 9.98837ZM55.028 10.0668C55.028 9.69921 54.9352 9.40269 54.747 9.17479C54.5588 8.94689 54.3291 8.83172 54.0529 8.83172C53.7963 8.83172 53.5813 8.94689 53.4029 9.17725C53.2245 9.4076 53.134 9.69676 53.134 10.0496C53.134 10.4148 53.2269 10.7113 53.4151 10.9416C53.6033 11.1695 53.833 11.2847 54.1067 11.2847C54.3633 11.2847 54.5784 11.1695 54.7568 10.9392C54.9376 10.7039 55.028 10.4148 55.028 10.0668Z" fill="#FCFCFD"/>
<path d="M57.2351 11.7652H56.4922C56.5142 11.2212 56.5264 10.6233 56.5264 9.97142C56.5264 9.33183 56.5142 8.78536 56.4922 8.33691H57.2351C57.2131 8.77801 57.2009 9.32448 57.2009 9.97142C57.2009 10.6355 57.2131 11.2335 57.2351 11.7652Z" fill="#FCFCFD"/>
<path d="M61.041 9.93422C61.041 10.4317 60.8822 10.8679 60.562 11.2404C60.2443 11.6128 59.7971 11.7991 59.2228 11.7991C58.9637 11.7991 58.6069 11.7893 58.1523 11.7672C58.1743 11.2379 58.1866 10.64 58.1866 9.97343C58.1866 9.33384 58.1743 8.78982 58.1523 8.33892H58.6118C58.6876 8.33892 58.8 8.33647 58.9491 8.33157C59.0981 8.32667 59.1959 8.32422 59.2399 8.32422C59.8704 8.32422 60.3299 8.48105 60.6133 8.79717C60.8993 9.11329 61.041 9.49068 61.041 9.93422ZM60.325 10.0469C60.325 9.70877 60.2272 9.42696 60.0317 9.19416C59.8362 8.96381 59.5356 8.84863 59.1348 8.84863C59.059 8.84863 58.9564 8.85599 58.8244 8.87314C58.8415 9.22357 58.8513 9.59115 58.8513 9.97343C58.8513 10.3925 58.8611 10.8091 58.8782 11.2208C58.993 11.2428 59.1055 11.2551 59.2203 11.2551C59.5967 11.2551 59.8753 11.1374 60.0561 10.9046C60.2345 10.6694 60.325 10.3851 60.325 10.0469Z" fill="#FCFCFD"/>
<path d="M66.0903 11.7652H65.2496C65.2496 11.65 65.1689 11.3217 65.0101 10.7801H63.7979C63.6342 11.3119 63.5511 11.6402 63.5511 11.7652H62.7617C62.7617 11.6966 62.967 11.1354 63.3751 10.0792C63.7833 9.02552 63.9885 8.44474 63.9885 8.33691H64.9808C64.9808 8.43739 65.1665 9.00836 65.5355 10.0547C65.9046 11.1011 66.0903 11.6721 66.0903 11.7652ZM64.8781 10.2802C64.58 9.37349 64.4285 8.88583 64.4285 8.81232H64.3869C64.3869 8.88093 64.2329 9.37104 63.9226 10.2802H64.8781Z" fill="#FCFCFD"/>
<path d="M69.1515 9.23632C69.1515 9.65536 68.995 9.96658 68.6847 10.1651C68.3743 10.366 67.9931 10.464 67.5409 10.464C67.4578 10.464 67.3992 10.4616 67.365 10.4591C67.365 10.79 67.3747 11.2237 67.3943 11.7653H66.6562C66.6782 11.258 66.6905 10.6601 66.6905 9.97148C66.6905 9.33924 66.6782 8.79522 66.6562 8.33697H67.1133C67.1768 8.33697 67.3014 8.33452 67.4872 8.32962C67.6705 8.32472 67.8293 8.32227 67.9662 8.32227C68.2985 8.32227 68.5796 8.39823 68.8093 8.54772C69.0366 8.69965 69.1515 8.93 69.1515 9.23632ZM68.4745 9.3809C68.4745 9.00597 68.2252 8.81728 67.7291 8.81728C67.6045 8.81728 67.4725 8.82953 67.3356 8.85648C67.3552 9.18731 67.365 9.56469 67.365 9.98373C67.409 9.98618 67.4603 9.98863 67.5165 9.98863C68.1543 9.98863 68.4745 9.78769 68.4745 9.3809Z" fill="#FCFCFD"/>
<path d="M72.2999 9.23632C72.2999 9.65536 72.1435 9.96658 71.8331 10.1651C71.5227 10.366 71.1415 10.464 70.6894 10.464C70.6063 10.464 70.5476 10.4616 70.5134 10.4591C70.5134 10.79 70.5232 11.2237 70.5427 11.7653H69.8047C69.8267 11.258 69.8389 10.6601 69.8389 9.97148C69.8389 9.33924 69.8267 8.79522 69.8047 8.33697H70.2617C70.3252 8.33697 70.4499 8.33452 70.6356 8.32962C70.8189 8.32472 70.9777 8.32227 71.1146 8.32227C71.447 8.32227 71.728 8.39823 71.9577 8.54772C72.1875 8.69965 72.2999 8.93 72.2999 9.23632ZM71.6229 9.3809C71.6229 9.00597 71.3737 8.81728 70.8775 8.81728C70.7529 8.81728 70.6209 8.82953 70.4841 8.85648C70.5036 9.18731 70.5134 9.56469 70.5134 9.98373C70.5574 9.98618 70.6087 9.98863 70.6649 9.98863C71.3052 9.98863 71.6229 9.78769 71.6229 9.3809Z" fill="#FCFCFD"/>
<path d="M77.4487 9.98837C77.4487 10.5275 77.285 10.9735 76.955 11.3288C76.6251 11.6841 76.2194 11.8606 75.7331 11.8606C75.2712 11.8606 74.8851 11.6989 74.5723 11.3729C74.2619 11.047 74.1055 10.6329 74.1055 10.133C74.1055 9.59384 74.2692 9.14784 74.5991 8.79251C74.9291 8.43718 75.3347 8.26074 75.8211 8.26074C76.283 8.26074 76.6691 8.42248 76.9819 8.7484C77.2923 9.07187 77.4487 9.48601 77.4487 9.98837ZM76.7229 10.0668C76.7229 9.69921 76.63 9.40269 76.4418 9.17479C76.2536 8.94689 76.0239 8.83172 75.7478 8.83172C75.4912 8.83172 75.2761 8.94689 75.0977 9.17725C74.9193 9.4076 74.8289 9.69676 74.8289 10.0496C74.8289 10.4148 74.9217 10.7113 75.1123 10.9416C75.3005 11.1695 75.5302 11.2847 75.804 11.2847C76.0606 11.2847 76.2756 11.1695 76.454 10.9392C76.6349 10.7039 76.7229 10.4148 76.7229 10.0668Z" fill="#FCFCFD"/>
<path d="M81.0082 11.7652H80.3606C80.3606 11.6942 80.1211 11.3143 79.6397 10.6257C79.1362 9.90036 78.8478 9.40535 78.7794 9.13824H78.7379C78.7818 9.52298 78.8038 9.87095 78.8038 10.1797C78.8038 10.6135 78.8161 11.1403 78.8405 11.7652H78.1953C78.2222 11.2212 78.2344 10.6233 78.2344 9.97142C78.2344 9.33183 78.2222 8.78536 78.1953 8.33691H78.9749C78.9749 8.43003 79.19 8.80007 79.6225 9.44946C80.082 10.1381 80.3459 10.6061 80.4144 10.8536H80.4535C80.4119 10.4615 80.3899 10.1111 80.3899 9.79989C80.3899 9.32448 80.3777 8.83682 80.3533 8.33691H81.0107C80.9862 8.77311 80.974 9.31713 80.974 9.97142C80.9716 10.6331 80.9838 11.231 81.0082 11.7652Z" fill="#FCFCFD"/>
<defs>
<linearGradient id="paint0_linear" x1="16.3576" y1="7.8938" x2="16.3576" y2="35.6591" gradientUnits="userSpaceOnUse">
<stop stop-color="#2079B0"/>
<stop offset="0.2863" stop-color="#4A93B8"/>
<stop offset="0.767" stop-color="#83BEBF"/>
<stop offset="1" stop-color="#97CFBF"/>
</linearGradient>
<linearGradient id="paint1_linear" x1="9.37617" y1="14.7846" x2="27.0894" y2="14.7846" gradientUnits="userSpaceOnUse">
<stop stop-color="#5ABCAB"/>
<stop offset="1" stop-color="#E6E99A"/>
</linearGradient>
<linearGradient id="paint2_linear" x1="18.2326" y1="21.7762" x2="18.2326" y2="35.7596" gradientUnits="userSpaceOnUse">
<stop stop-color="#E53432"/>
<stop offset="0.1668" stop-color="#D73948"/>
<stop offset="0.5748" stop-color="#B33F72"/>
<stop offset="0.8619" stop-color="#9A4189"/>
<stop offset="1" stop-color="#904192"/>
</linearGradient>
<linearGradient id="paint3_linear" x1="28.4352" y1="18.048" x2="28.4352" y2="25.5054" gradientUnits="userSpaceOnUse">
<stop stop-color="#F18779"/>
<stop offset="0.1194" stop-color="#F2917A"/>
<stop offset="0.7128" stop-color="#FABC77"/>
<stop offset="1" stop-color="#FDCB73"/>
</linearGradient>
</defs>
</svg>
