<svg width="27" height="27" viewBox="0 0 27 27" fill="none" xmlns="http://www.w3.org/2000/svg">
<path d="M0 13.5C0 6.04416 6.04416 0 13.5 0C20.9558 0 27 6.04416 27 13.5C27 20.9558 20.9558 27 13.5 27C6.04416 27 0 20.9558 0 13.5Z" fill="white"/>
<mask id="mask0" mask-type="alpha" maskUnits="userSpaceOnUse" x="0" y="0" width="27" height="27">
<path d="M0 13.5C0 6.04416 6.04416 0 13.5 0C20.9558 0 27 6.04416 27 13.5C27 20.9558 20.9558 27 13.5 27C6.04416 27 0 20.9558 0 13.5Z" fill="white"/>
<path d="M0 13.5C0 6.04416 6.04416 0 13.5 0C20.9558 0 27 6.04416 27 13.5C27 20.9558 20.9558 27 13.5 27C6.04416 27 0 20.9558 0 13.5Z" stroke="white"/>
</mask>
<g mask="url(#mask0)">
<path fill-rule="evenodd" clip-rule="evenodd" d="M13.5015 6.2998C11.546 6.2998 11.3006 6.30835 10.5326 6.34331C9.76612 6.37841 9.24291 6.49976 8.78511 6.67781C8.31155 6.86171 7.90985 7.10771 7.50964 7.50807C7.10914 7.90827 6.86314 8.30998 6.67864 8.78338C6.50013 9.24134 6.37863 9.76469 6.34413 10.5309C6.30978 11.2989 6.30078 11.5445 6.30078 13.4999C6.30078 15.4553 6.30948 15.7 6.34428 16.468C6.37953 17.2345 6.50088 17.7577 6.67879 18.2155C6.86284 18.689 7.10884 19.0907 7.50919 19.4909C7.90925 19.8914 8.31095 20.1381 8.78421 20.322C9.24231 20.5 9.76567 20.6214 10.532 20.6565C11.3 20.6914 11.5453 20.7 13.5006 20.7C15.4561 20.7 15.7008 20.6914 16.4688 20.6565C17.2353 20.6214 17.7591 20.5 18.2172 20.322C18.6906 20.1381 19.0917 19.8914 19.4918 19.4909C19.8923 19.0907 20.1383 18.689 20.3228 18.2156C20.4998 17.7577 20.6213 17.2343 20.6573 16.4681C20.6918 15.7001 20.7008 15.4553 20.7008 13.4999C20.7008 11.5445 20.6918 11.2991 20.6573 10.531C20.6213 9.76454 20.4998 9.24134 20.3228 8.78353C20.1383 8.30998 19.8923 7.90827 19.4918 7.50807C19.0913 7.10756 18.6908 6.86156 18.2168 6.67781C17.7577 6.49976 17.2342 6.37841 16.4677 6.34331C15.6997 6.30835 15.4552 6.2998 13.4992 6.2998H13.5015ZM13.2615 7.59715H13.2615L13.5015 7.59722C15.4239 7.59722 15.6517 7.60412 16.4109 7.63862C17.1129 7.67072 17.4939 7.78802 17.7477 7.88658C18.0837 8.01708 18.3233 8.17308 18.5751 8.42508C18.8271 8.67708 18.9831 8.91709 19.1139 9.25309C19.2125 9.50659 19.3299 9.8876 19.3619 10.5896C19.3964 11.3486 19.4039 11.5766 19.4039 13.4981C19.4039 15.4197 19.3964 15.6477 19.3619 16.4067C19.3298 17.1087 19.2125 17.4897 19.1139 17.7432C18.9834 18.0792 18.8271 18.3184 18.5751 18.5703C18.3231 18.8223 18.0839 18.9783 17.7477 19.1088C17.4942 19.2078 17.1129 19.3248 16.4109 19.3569C15.6519 19.3914 15.4239 19.3989 13.5015 19.3989C11.5789 19.3989 11.351 19.3914 10.592 19.3569C9.89003 19.3245 9.50902 19.2072 9.25507 19.1086C8.91907 18.9781 8.67906 18.8221 8.42706 18.5701C8.17506 18.3181 8.01906 18.0787 7.88826 17.7426C7.78971 17.4891 7.67225 17.1081 7.6403 16.4061C7.6058 15.6471 7.5989 15.4191 7.5989 13.4963C7.5989 11.5736 7.6058 11.3468 7.6403 10.5878C7.6724 9.8858 7.78971 9.50479 7.88826 9.25099C8.01876 8.91499 8.17506 8.67498 8.42706 8.42298C8.67906 8.17098 8.91907 8.01498 9.25507 7.88418C9.50887 7.78517 9.89003 7.66817 10.592 7.63592C11.2562 7.60592 11.5136 7.59692 12.8556 7.59542V7.59722C12.9809 7.59703 13.1158 7.59709 13.2614 7.59715H13.2614H13.2615ZM16.4808 9.65648C16.4808 9.17933 16.8678 8.79277 17.3448 8.79277V8.79247C17.8218 8.79247 18.2088 9.17948 18.2088 9.65648C18.2088 10.1335 17.8218 10.5205 17.3448 10.5205C16.8678 10.5205 16.4808 10.1335 16.4808 9.65648ZM13.5013 9.80241C11.4594 9.8025 9.80392 11.458 9.80392 13.5C9.80392 15.5419 11.4595 17.1967 13.5015 17.1967C15.5434 17.1967 17.1984 15.5419 17.1984 13.5C17.1984 11.458 15.5433 9.80241 13.5013 9.80241ZM15.9015 13.5C15.9015 12.1744 14.8269 11.1 13.5015 11.1C12.1759 11.1 11.1014 12.1744 11.1014 13.5C11.1014 14.8254 12.1759 15.9 13.5015 15.9C14.8269 15.9 15.9015 14.8254 15.9015 13.5Z" fill="#3F3F3F"/>
</g>
</svg>
