<svg width="40" height="33" viewBox="0 0 40 33" fill="none" xmlns="http://www.w3.org/2000/svg">
<path opacity="0.5" fill-rule="evenodd" clip-rule="evenodd" d="M20.2773 20.5546C17.3627 20.5546 15 18.1918 15 15.2773C15 12.3627 17.3627 10 20.2773 10C23.1918 10 25.5546 12.3627 25.5546 15.2773C25.5546 16.4968 25.1409 17.6197 24.4462 18.5133L28 22.0671L27.0671 23L23.5133 19.4462C22.6197 20.1409 21.4968 20.5546 20.2773 20.5546ZM24.2352 15.2773C24.2352 17.4632 22.4632 19.2352 20.2773 19.2352C18.0914 19.2352 16.3193 17.4632 16.3193 15.2773C16.3193 13.0914 18.0914 11.3193 20.2773 11.3193C22.4632 11.3193 24.2352 13.0914 24.2352 15.2773Z" fill="#17282D"/>
</svg>
