<svg width="27" height="27" viewBox="0 0 27 27" fill="none" xmlns="http://www.w3.org/2000/svg">
<path d="M0 13.5C0 6.04416 6.04416 0 13.5 0C20.9558 0 27 6.04416 27 13.5C27 20.9558 20.9558 27 13.5 27C6.04416 27 0 20.9558 0 13.5Z" fill="white"/>
<path d="M13.0957 10.9726L13.124 11.4397L12.6519 11.3825C10.9332 11.1632 9.4318 10.4196 8.157 9.17079L7.53377 8.55113L7.37324 9.00872C7.03329 10.0288 7.25048 11.106 7.9587 11.8306C8.33642 12.231 8.25143 12.2882 7.59987 12.0498C7.37324 11.9736 7.17493 11.9164 7.15605 11.945C7.08995 12.0117 7.31658 12.8792 7.49599 13.2224C7.74151 13.6991 8.24199 14.1662 8.78968 14.4427L9.25239 14.662L8.70469 14.6715C8.17589 14.6715 8.157 14.681 8.21366 14.8812C8.40252 15.5009 9.14851 16.1587 9.9795 16.4447L10.565 16.6449L10.055 16.9499C9.2996 17.3885 8.41196 17.6363 7.52432 17.6554C7.09939 17.6649 6.75 17.7031 6.75 17.7317C6.75 17.827 7.90204 18.3609 8.57249 18.5706C10.5838 19.1903 12.9729 18.9233 14.7671 17.8651C16.0419 17.112 17.3167 15.6153 17.9116 14.1662C18.2327 13.394 18.5537 11.9831 18.5537 11.3062C18.5537 10.8677 18.582 10.8105 19.1108 10.2862C19.4225 9.98112 19.7152 9.64745 19.7719 9.55212C19.8663 9.37099 19.8568 9.37099 19.3753 9.53305C18.5726 9.81905 18.4593 9.78092 18.8559 9.35192C19.1486 9.04686 19.498 8.49393 19.498 8.33186C19.498 8.30326 19.3564 8.35093 19.1958 8.43673C19.0259 8.53206 18.6481 8.67506 18.3649 8.76086L17.8549 8.92292L17.3922 8.60833C17.1373 8.43673 16.7784 8.24606 16.5896 8.18886C16.108 8.0554 15.3714 8.07446 14.9371 8.227C13.7567 8.65599 13.0107 9.76185 13.0957 10.9726Z" fill="#007EC5"/>
</svg>
