<svg width="27" height="27" viewBox="0 0 27 27" fill="none" xmlns="http://www.w3.org/2000/svg">
<path d="M0 13.5C0 6.04416 6.04416 0 13.5 0C20.9558 0 27 6.04416 27 13.5C27 20.9558 20.9558 27 13.5 27C6.04416 27 0 20.9558 0 13.5Z" fill="white"/>
<path d="M20.3999 10.166C20.2343 9.5298 19.7463 9.02883 19.1267 8.8588C18.0038 8.5498 13.5008 8.5498 13.5008 8.5498C13.5008 8.5498 8.99775 8.5498 7.8748 8.8588C7.25519 9.02883 6.76723 9.5298 6.60163 10.166C6.30078 11.319 6.30078 13.7248 6.30078 13.7248C6.30078 13.7248 6.30078 16.1305 6.60163 17.2836C6.76723 17.9198 7.25519 18.4208 7.8748 18.5909C8.99775 18.8998 13.5008 18.8998 13.5008 18.8998C13.5008 18.8998 18.0038 18.8998 19.1267 18.5909C19.7463 18.4208 20.2343 17.9198 20.3999 17.2836C20.7008 16.1305 20.7008 13.7248 20.7008 13.7248C20.7008 13.7248 20.7008 11.319 20.3999 10.166Z" fill="#FF0000"/>
<path d="M12.1504 16.2002V11.7002L15.7504 13.9503L12.1504 16.2002Z" fill="white"/>
</svg>
