<?xml version="1.0" standalone="no"?>
<!DOCTYPE svg PUBLIC "-//W3C//DTD SVG 1.1//EN" "http://www.w3.org/Graphics/SVG/1.1/DTD/svg11.dtd" >
<svg>
<metadata>
Created by FontForge 20110222 at Tue May 20 07:47:55 2014
 By Orthosie Webhosting
Copyright 2010 ISSF.  All rights reserved.  Confidential.
</metadata>
<defs>
<font id="ISSFFontBlack" horiz-adv-x="500" >
  <font-face 
    font-family="ISSFFontBlack"
    font-weight="900"
    font-stretch="normal"
    units-per-em="1000"
    panose-1="0 0 9 0 0 0 0 0 0 0"
    ascent="800"
    descent="-200"
    x-height="531"
    cap-height="719"
    bbox="-167 -237 1478 963"
    underline-thickness="145"
    underline-position="-48"
    unicode-range="U+0020-F002"
  />
<missing-glyph 
d="M63 0v766h375v-766h-375zM125 63h250v641h-250v-641z" />
    <glyph glyph-name=".notdef" 
d="M63 0v766h375v-766h-375zM125 63h250v641h-250v-641z" />
    <glyph glyph-name=".null" horiz-adv-x="0" 
 />
    <glyph glyph-name="nonmarkingreturn" horiz-adv-x="329" 
 />
    <glyph glyph-name="space" unicode=" " horiz-adv-x="329" 
 />
    <glyph glyph-name="exclam" unicode="!" horiz-adv-x="375" 
d="M82 0v198h211v-198h-211zM129 257l-49 282v180h215v-180l-49 -282h-117z" />
    <glyph glyph-name="quotedbl" unicode="&#x22;" horiz-adv-x="370" 
d="M159 703v-275h-126v275h126zM337 703v-275h-127v275h127z" />
    <glyph glyph-name="numbersign" unicode="#" horiz-adv-x="769" 
d="M458 718l-63 -179h111l63 179h141l-63 -179h125l-49 -132h-123l-37 -104h126l-49 -132h-124l-64 -179h-141l64 179h-111l-64 -179h-141l64 179h-126l49 132h124l36 104h-126l48 132h126l63 179h141zM462 407h-117l-38 -104h117z" />
    <glyph glyph-name="dollar" unicode="$" horiz-adv-x="657" 
d="M359 122q95 0 95 66q0 30 -21.5 46.5t-73.5 30.5v-143zM289 -94v83q-125 5 -194 67t-70 172h180q3 -55 21.5 -80t59.5 -26v161q-130 29 -190.5 79.5t-60.5 136.5q0 93 70 151t191 60v63h78v-62q115 -3 178.5 -59t67.5 -156h-171q-5 87 -77 89v-148q138 -33 197 -83
q62 -53 62 -145q0 -206 -267 -221v-82h-75zM301 454v133h-4q-85 0 -85 -65q0 -46 89 -68z" />
    <glyph glyph-name="percent" unicode="%" horiz-adv-x="1019" 
d="M23 504q0 92 63 154.5t154 62.5q89 0 152.5 -63.5t63.5 -153.5q0 -89 -63.5 -153t-152.5 -64q-91 0 -154 63t-63 154zM157 504q0 -35 24 -59t59 -24q34 0 58 24.5t24 58.5q0 35 -24 59t-58 24t-58.5 -24t-24.5 -59zM259 -20l401 741h99l-401 -741h-99zM562 197
q0 92 62.5 154.5t153.5 62.5q89 0 153 -63.5t64 -153.5q0 -89 -64 -153t-153 -64q-91 0 -153.5 62.5t-62.5 154.5zM696 197q0 -35 23.5 -59t58.5 -24q34 0 58.5 24.5t24.5 58.5q0 35 -24 59t-59 24q-34 0 -58 -24t-24 -59z" />
    <glyph glyph-name="ampersand" unicode="&#x26;" horiz-adv-x="845" 
d="M600 0l-60 62q-107 -82 -250 -82q-116 0 -179.5 57t-63.5 158q0 143 154 219q-66 60 -66 137q0 88 63.5 138t179.5 50q115 0 180.5 -55t65.5 -149q0 -116 -119 -181l61 -64q27 23 51 63h189q-43 -98 -126 -181l166 -172h-246zM424 182l-104 108q-73 -34 -73 -89
q0 -60 72 -60q55 0 105 41zM378 468q79 28 79 82q0 28 -20 45t-53 17q-67 0 -67 -59q0 -45 61 -85z" />
    <glyph glyph-name="quotesingle" unicode="'" horiz-adv-x="192" 
d="M159 703v-275h-126v275h126z" />
    <glyph glyph-name="parenleft" unicode="(" horiz-adv-x="412" 
d="M379 718q-91 -239 -91 -447q0 -210 91 -448h-175q-108 246 -108 448q0 187 108 447h175z" />
    <glyph glyph-name="parenright" unicode=")" horiz-adv-x="412" 
d="M37 719h175q108 -249 108 -448t-108 -448h-175q91 238 91 448q0 209 -91 448z" />
    <glyph glyph-name="asterisk" unicode="*" 
d="M249 410l-84 -122l-99 72l92 116l-132 37l38 116l127 -45v135h116v-135l127 44l38 -116l-133 -35l93 -117l-100 -70z" />
    <glyph glyph-name="plus" unicode="+" horiz-adv-x="833" 
d="M485 596v-231h224v-133h-224v-232h-137v232h-224v133h224v231h137z" />
    <glyph glyph-name="comma" unicode="," horiz-adv-x="329" 
d="M58 -179v93q98 14 98 93h-98v209h212v-212q0 -79 -55 -126.5t-157 -56.5z" />
    <glyph glyph-name="hyphen" unicode="-" horiz-adv-x="350" 
d="M49 175v188h252v-188h-252z" />
    <glyph glyph-name="hyphen" unicode="&#x2010;" horiz-adv-x="350" 
d="M49 175v188h252v-188h-252z" />
    <glyph glyph-name="period" unicode="." horiz-adv-x="329" 
d="M58 0v216h212v-216h-212z" />
    <glyph glyph-name="slash" unicode="/" horiz-adv-x="338" 
d="M86 -93h-90l266 831h90z" />
    <glyph glyph-name="zero" unicode="0" horiz-adv-x="657" 
d="M21 351q0 370 307 370q309 0 309 -370q0 -371 -309 -371q-151 0 -229 94.5t-78 276.5zM424 351q0 110 -20 157q-22 51 -76 51t-76 -51q-20 -46 -20 -157t20 -157q21 -50 76 -50q54 0 76 50q20 47 20 157z" />
    <glyph glyph-name="one" unicode="1" horiz-adv-x="657" 
d="M259 0v408h-158v146q97 2 144 35t60 112h159v-701h-205z" />
    <glyph glyph-name="two" unicode="2" horiz-adv-x="657" 
d="M27 0v9q-1 5 -1 8q0 77 49 145q46 65 145 135q68 45 136 91q53 40 53 86q0 89 -85 89q-98 0 -98 -127v-12h-186v10q-1 7 -1 10q0 130 79 203.5t217 73.5q128 0 203 -62.5t75 -164.5q0 -75 -38 -124q-30 -38 -111 -88q-40 -24 -80 -47q-50 -32 -87 -63h314v-172h-584z" />
    <glyph glyph-name="three" unicode="3" horiz-adv-x="657" 
d="M33 248h192q3 -103 99 -103q88 0 88 82q0 77 -114 77h-17v121h14q112 0 112 72q0 65 -78 65q-86 0 -90 -77h-189q2 107 79.5 171.5t204.5 64.5q123 0 195 -56.5t72 -147.5q0 -95 -77 -137q95 -37 95 -157q0 -113 -79 -178t-222 -65q-131 0 -208 69t-77 185v14z" />
    <glyph glyph-name="four" unicode="4" horiz-adv-x="657" 
d="M347 0v146h-322v170l327 385h195v-396h83v-159h-83v-146h-200zM183 305h169v205z" />
    <glyph glyph-name="five" unicode="5" horiz-adv-x="657" 
d="M21 186l203 20q24 -64 94 -64q46 0 72 25t26 69q0 45 -26 72t-67 27q-51 0 -82 -39l-191 16l69 389h446v-169h-304l-20 -100q58 33 144 33q106 0 171 -61.5t65 -162.5q0 -122 -80 -191.5t-225 -69.5q-120 0 -197 54.5t-98 151.5z" />
    <glyph glyph-name="six" unicode="6" horiz-adv-x="657" 
d="M236 412q56 51 156 51q110 0 176 -62.5t66 -167.5q0 -116 -77 -184t-212 -68q-316 0 -316 368q0 176 84 273.5t232 97.5q112 0 184.5 -51.5t92.5 -143.5l-194 -7q-17 57 -81 57q-103 0 -111 -163zM242 234q0 -44 25 -69.5t69 -25.5q43 0 67.5 25.5t24.5 68.5
q0 45 -24.5 70t-66.5 25q-43 0 -69 -25.5t-26 -68.5z" />
    <glyph glyph-name="seven" unicode="7" horiz-adv-x="657" 
d="M155 0q22 294 232 528h-342v173h561v-153q-198 -200 -214 -548h-237z" />
    <glyph glyph-name="eight" unicode="8" horiz-adv-x="657" 
d="M138 371q-91 47 -91 144q0 94 74 149.5t206 55.5t206 -55.5t74 -149.5q0 -97 -91 -144q113 -45 113 -163q0 -107 -78.5 -166.5t-223.5 -59.5t-223.5 59.5t-78.5 166.5q0 118 113 163zM237 502q0 -77 90 -77q89 0 89 77q0 31 -24.5 52t-64.5 21t-65 -21t-25 -52zM231 220
q0 -86 96 -86t96 86q0 42 -25.5 66t-70.5 24q-96 0 -96 -90z" />
    <glyph glyph-name="nine" unicode="9" horiz-adv-x="657" 
d="M417 290q-56 -51 -156 -51q-110 0 -176 62.5t-66 167.5q0 116 77 183.5t212 67.5q317 0 317 -367q0 -176 -84 -273.5t-233 -97.5q-112 0 -184 51.5t-92 143.5l192 7q18 -57 82 -57q103 0 111 163zM410 468q0 44 -25 69.5t-68 25.5t-67.5 -25.5t-24.5 -68.5
q0 -45 24.5 -70t66.5 -25q43 0 68.5 25.5t25.5 68.5z" />
    <glyph glyph-name="colon" unicode=":" horiz-adv-x="352" 
d="M70 0v216h212v-216h-212zM70 316v215h212v-215h-212z" />
    <glyph glyph-name="semicolon" unicode=";" horiz-adv-x="352" 
d="M70 -179v93q98 14 98 93h-98v209h212v-212q0 -79 -55 -126.5t-157 -56.5zM70 316v215h212v-215h-212z" />
    <glyph glyph-name="less" unicode="&#x3c;" horiz-adv-x="833" 
d="M704 458l-391 -160l391 -160v-146l-575 238v137l575 238v-147z" />
    <glyph glyph-name="equal" unicode="=" horiz-adv-x="833" 
d="M709 480v-133h-585v133h585zM709 250v-133h-585v133h585z" />
    <glyph glyph-name="greater" unicode="&#x3e;" horiz-adv-x="833" 
d="M704 367v-137l-575 -238v146l391 160l-391 160v147z" />
    <glyph glyph-name="question" unicode="?" horiz-adv-x="627" 
d="M201 0v198h210v-198h-210zM214 256q-1 13 -1 37q0 104 67 143q36 18 73 36q32 19 32 50q0 27 -18.5 44t-50.5 17q-75 0 -75 -83v-3h-210q6 116 80.5 178.5t207.5 62.5q127 0 202 -58.5t75 -150.5q0 -66 -37 -108q-19 -22 -55 -42q-31 -17 -63 -34q-25 -14 -33.5 -28
t-8.5 -42q0 -3 1 -9v-10h-186z" />
    <glyph glyph-name="at" unicode="@" horiz-adv-x="1000" 
d="M550 241l23 95q-8 70 -65 70q-47 0 -82 -57t-35 -134q0 -74 57 -74q35 0 63 26.5t39 73.5zM606 445l24 40h118l-76 -306q-2 -8 -2 -15q0 -24 23 -24q61 0 112 68.5t51 162.5q0 114 -84.5 185.5t-226.5 71.5q-167 0 -279 -100q-118 -105 -118 -271q0 -144 97 -229t262 -85
q157 0 286 91l56 -78q-157 -117 -353 -117q-189 0 -317 103q-145 116 -145 312q0 174 107 301q151 179 402 179q189 0 306 -101t117 -260q0 -172 -129 -272q-71 -55 -160 -55q-105 0 -114 75q-55 -74 -141 -74q-168 0 -168 171q0 121 70.5 201t173.5 80q74 0 108 -54z" />
    <glyph glyph-name="A" unicode="A" horiz-adv-x="735" 
d="M-3 0l253 719h234l253 -719h-229l-27 95h-229l-28 -95h-227zM294 246h145l-72 249z" />
    <glyph glyph-name="B" unicode="B" horiz-adv-x="758" 
d="M68 0v719h295q156 0 213 -21q113 -41 113 -169q0 -98 -87 -145q112 -41 112 -168q0 -132 -104 -184q-43 -22 -103 -28q-37 -4 -121 -4h-318zM292 432h95q46 0 66.5 13.5t20.5 48.5q0 40 -27 52q-22 10 -91 10h-64v-124zM292 168h107q52 0 75 15t23 52t-23.5 51.5
t-76.5 14.5h-105v-133z" />
    <glyph glyph-name="C" unicode="C" horiz-adv-x="782" 
d="M534 279h219q-10 -142 -100 -220.5t-245 -78.5q-173 0 -272 101.5t-99 277.5t98.5 277.5t267.5 101.5q156 0 245.5 -75.5t100.5 -215.5h-221q-11 111 -122 111q-136 0 -136 -199t142 -199q111 0 122 119z" />
    <glyph glyph-name="D" unicode="D" horiz-adv-x="784" 
d="M68 0v719h279q92 0 138 -6q66 -9 111 -35q150 -87 150 -319q0 -246 -184 -329q-67 -30 -258 -30h-236zM299 182h62q86 0 119.5 38.5t33.5 138.5q0 97 -34 137.5t-116 40.5h-65v-355z" />
    <glyph glyph-name="E" unicode="E" horiz-adv-x="697" 
d="M68 0v719h575v-172h-344v-96h291v-165h-291v-111h358v-175h-589z" />
    <glyph glyph-name="F" unicode="F" horiz-adv-x="632" 
d="M68 0v719h544v-181h-313v-111h249v-174h-249v-253h-231z" />
    <glyph glyph-name="G" unicode="G" horiz-adv-x="815" 
d="M603 0l-11 62q-78 -82 -223 -82q-153 0 -242.5 101t-89.5 278q0 180 99 279.5t278 99.5q141 0 227 -70.5t102 -196.5h-219q-27 88 -116 88q-138 0 -138 -212q0 -194 140 -194q51 0 86.5 24t43.5 63h-104v154h316v-394h-149z" />
    <glyph glyph-name="H" unicode="H" horiz-adv-x="813" 
d="M68 0v719h231v-244h215v244h231v-719h-231v279h-215v-279h-231z" />
    <glyph glyph-name="I" unicode="I" horiz-adv-x="380" 
d="M72 0v719h235v-719h-235z" />
    <glyph glyph-name="J" unicode="J" horiz-adv-x="641" 
d="M21 310h204v-67q0 -81 59 -81q40 0 53 31q8 19 8 66v460h231v-484q0 -125 -72.5 -190t-211.5 -65q-273 0 -273 279q0 15 2 51z" />
    <glyph glyph-name="K" unicode="K" horiz-adv-x="780" 
d="M68 0v719h229v-238l207 238h268l-257 -265l290 -454h-275l-176 288l-57 -59v-229h-229z" />
    <glyph glyph-name="L" unicode="L" horiz-adv-x="639" 
d="M68 0v719h231v-528h314v-191h-545z" />
    <glyph glyph-name="M" unicode="M" horiz-adv-x="947" 
d="M277 0h-209v719h281l100 -359q5 -22 24 -105q14 71 23 104l102 360h281v-719h-209l2 354q0 31 1 126q-13 -59 -30 -128l-89 -352h-161l-90 344q-11 41 -29 136q3 -93 3 -133v-347z" />
    <glyph glyph-name="N" unicode="N" horiz-adv-x="814" 
d="M68 0v719h219l202 -334q19 -32 42 -103q-6 37 -6 98v339h220v-719h-220l-202 332q-19 31 -42 103q6 -36 6 -98v-337h-219z" />
    <glyph glyph-name="O" unicode="O" horiz-adv-x="822" 
d="M37 359q0 176 100.5 277.5t273.5 101.5t273 -101.5t100 -277.5t-100 -277.5t-273 -101.5t-273.5 101.5t-100.5 277.5zM270 359q0 -198 141 -198q73 0 106.5 48t33.5 150t-33.5 150t-106.5 48q-141 0 -141 -198z" />
    <glyph glyph-name="P" unicode="P" horiz-adv-x="738" 
d="M68 0v719h296q179 0 251 -48q99 -66 99 -202q0 -120 -71 -184.5t-206 -64.5h-138v-220h-231zM299 396h74q59 0 81 8q40 16 40 65q0 51 -39 66q-21 8 -82 8h-74v-147z" />
    <glyph glyph-name="Q" unicode="Q" horiz-adv-x="822" 
d="M454 159l-89 92l99 95l82 -86q11 46 11 88q0 113 -33.5 165t-112.5 52q-147 0 -147 -206q0 -106 35.5 -156t112.5 -50q23 0 42 6zM678 -78l-93 97q-72 -39 -179 -39q-168 0 -268.5 102.5t-100.5 272.5q0 177 100 280t274 103q173 0 273 -101.5t100 -277.5
q0 -142 -83 -251l83 -85z" />
    <glyph glyph-name="R" unicode="R" horiz-adv-x="763" 
d="M68 0v719h344q158 0 227 -46q73 -48 73 -161q0 -128 -116 -178q60 -13 87 -50t30 -110l4 -100q1 -27 3 -34q4 -12 18 -13v-27h-233q-13 53 -13 75v72q0 56 -22 78.5t-76 22.5h-98v-248h-228zM296 410h105q52 0 74.5 14t22.5 53q0 45 -32 59q-20 9 -71 9h-99v-135z" />
    <glyph glyph-name="S" unicode="S" horiz-adv-x="713" 
d="M34 224h225q17 -73 106 -73q87 0 87 52q0 30 -32 44q-11 5 -95 27q-154 40 -195 69q-83 59 -83 166q0 105 80 167t222 62q139 0 218.5 -58.5t89.5 -167.5h-219q-10 63 -93 63q-73 0 -73 -49q0 -26 27 -39q15 -7 80 -24q111 -29 119 -31q57 -17 87 -37q92 -62 92 -168
q0 -118 -83 -182.5t-239 -64.5q-144 0 -227 64t-94 180z" />
    <glyph glyph-name="T" unicode="T" horiz-adv-x="664" 
d="M219 0v530h-207v189h641v-189h-203v-530h-231z" />
    <glyph glyph-name="U" unicode="U" horiz-adv-x="815" 
d="M66 719h231v-443q0 -60 25 -87t86 -27t85 26.5t24 87.5v443h231v-461q0 -135 -87 -206.5t-253 -71.5t-254 71.5t-88 206.5v461z" />
    <glyph glyph-name="V" unicode="V" horiz-adv-x="733" 
d="M9 719h236l121 -464l130 464h227l-242 -719h-230z" />
    <glyph glyph-name="W" unicode="W" horiz-adv-x="985" 
d="M182 0l-173 719h225l78 -464l91 464h191l87 -464l76 464h219l-171 -719h-229l-82 431l-79 -431h-233z" />
    <glyph glyph-name="X" unicode="X" horiz-adv-x="731" 
d="M-7 0l247 374l-225 345h260l96 -182l105 182h254l-233 -345l241 -374h-261l-109 195l-109 -195h-266z" />
    <glyph glyph-name="Y" unicode="Y" horiz-adv-x="736" 
d="M256 0v266l-265 453h256l124 -245l125 245h249l-258 -453v-266h-231z" />
    <glyph glyph-name="Z" unicode="Z" horiz-adv-x="705" 
d="M34 0v173l333 360h-322v186h606v-171l-337 -363h355v-185h-635z" />
    <glyph glyph-name="bracketleft" unicode="[" horiz-adv-x="431" 
d="M104 719h316v-152h-129v-595h129v-147h-316v894z" />
    <glyph glyph-name="backslash" unicode="\" horiz-adv-x="338" 
d="M262 -93l-266 831h90l266 -831h-90z" />
    <glyph glyph-name="bracketright" unicode="]" horiz-adv-x="431" 
d="M326 719v-894h-316v147h129v595h-129v152h316z" />
    <glyph glyph-name="asciicircum" unicode="^" horiz-adv-x="1000" 
d="M582 714l216 -276h-148l-150 151l-151 -151h-148l216 276h165z" />
    <glyph glyph-name="underscore" unicode="_" 
d="M500 -98v-138h-500v138h500z" />
    <glyph glyph-name="grave" unicode="`" 
d="M101 775h140l94 -181h-75z" />
    <glyph glyph-name="a" unicode="a" horiz-adv-x="689" 
d="M435 0l-13 51q-79 -70 -193 -70q-90 0 -139 44t-49 125q0 84 57 122q49 33 174 49q106 13 111 15q35 10 35 42q0 44 -76 44q-65 0 -71 -53h-206q3 181 284 181q140 0 207 -45q40 -27 55 -62q13 -31 13 -87v-296q0 -30 23 -45v-15h-212zM416 237q-58 -18 -117 -35
q-43 -15 -43 -46q0 -48 60 -48q101 0 101 102q0 18 -1 27z" />
    <glyph glyph-name="b" unicode="b" horiz-adv-x="676" 
d="M57 0v719h206v-244q63 71 152 71q104 0 167.5 -77t63.5 -206q0 -128 -63 -205t-165 -77q-106 0 -174 84v-65h-187zM261 260q0 -59 23.5 -91t63.5 -32q86 0 86 123t-86 123q-87 0 -87 -123z" />
    <glyph glyph-name="c" unicode="c" horiz-adv-x="652" 
d="M411 207h211q-7 -105 -83.5 -165.5t-204.5 -60.5q-142 0 -223.5 77t-81.5 208q0 132 81 208t222 76q129 0 206.5 -60.5t81.5 -160.5h-211q-6 74 -78 74q-89 0 -89 -137q0 -138 87 -138q74 0 82 79z" />
    <glyph glyph-name="d" unicode="d" horiz-adv-x="677" 
d="M329 137q40 0 63.5 32t23.5 91q0 123 -87 123q-86 0 -86 -123t86 -123zM620 0h-187v65q-68 -84 -174 -84q-102 0 -165 77t-63 205t63.5 206t162.5 78q94 0 157 -73v245h206v-719z" />
    <glyph glyph-name="e" unicode="e" horiz-adv-x="666" 
d="M417 157h202q-44 -176 -293 -176q-137 0 -217 76t-80 204q0 134 81.5 211.5t223.5 77.5q141 0 221.5 -84t80.5 -234v-13h-396q3 -106 98 -106q63 0 79 44zM240 325h188q-6 99 -96 99q-87 0 -92 -99z" />
    <glyph glyph-name="f" unicode="f" horiz-adv-x="384" 
d="M77 0v411h-66v120h66v33q0 173 182 173h118v-133q-4 0 -11 1h-11q-38 0 -53.5 -12.5t-15.5 -45.5q0 -2 1 -8v-8h90v-120h-90v-411h-210z" />
    <glyph glyph-name="g" unicode="g" horiz-adv-x="677" 
d="M67 -57h209q7 -36 62 -36q54 0 70 32q9 20 9 79v29q-53 -52 -148 -52q-107 0 -172 73.5t-65 195.5q0 130 62.5 205.5t164.5 75.5q113 0 174 -83v69h187v-490q0 -139 -68 -197t-229 -58q-113 0 -179 41.5t-77 115.5zM242 269q0 -126 85 -126q89 0 89 125q0 121 -89 121
q-85 0 -85 -120z" />
    <glyph glyph-name="h" unicode="h" horiz-adv-x="683" 
d="M57 0v719h211v-245q65 71 163 71q102 0 155 -64q28 -33 37 -86q7 -39 7 -119v-276h-211v275q0 57 -15 81.5t-57 24.5q-79 0 -79 -107v-274h-211z" />
    <glyph glyph-name="i" unicode="i" horiz-adv-x="338" 
d="M62 0v531h213v-531h-213zM62 585v152h213v-152h-213z" />
    <glyph glyph-name="j" unicode="j" horiz-adv-x="343" 
d="M284 531v-539q0 -110 -42 -158t-140 -48h-119v157h19q42 0 55.5 14t13.5 59v515h213zM71 585v152h213v-152h-213z" />
    <glyph glyph-name="k" unicode="k" horiz-adv-x="671" 
d="M57 0v719h211v-351l139 163h237l-197 -196l224 -335h-251l-116 190l-36 -37v-153h-211z" />
    <glyph glyph-name="l" unicode="l" horiz-adv-x="338" 
d="M62 0v719h213v-719h-213z" />
    <glyph glyph-name="m" unicode="m" horiz-adv-x="1024" 
d="M57 0v531h192v-78q69 92 180 92q101 0 158 -92q75 93 188 93q94 0 145.5 -48.5t51.5 -135.5v-362h-208v284q0 95 -71 95q-75 0 -75 -97v-282h-207v277q0 54 -17 78t-57 24q-72 0 -72 -94v-285h-208z" />
    <glyph glyph-name="n" unicode="n" horiz-adv-x="683" 
d="M57 0v531h192v-78q73 92 186 92q98 0 151 -64q28 -34 37 -86q7 -38 7 -119v-276h-211v275q0 57 -15 81.5t-57 24.5q-79 0 -79 -107v-274h-211z" />
    <glyph glyph-name="o" unicode="o" horiz-adv-x="658" 
d="M29 266q0 132 80 208t220 76t220 -76t80 -208t-80 -208.5t-220 -76.5t-220 76.5t-80 208.5zM242 266q0 -72 20 -105t67 -33t67.5 33t20.5 105t-20.5 104.5t-67.5 32.5t-67 -32.5t-20 -104.5z" />
    <glyph glyph-name="p" unicode="p" horiz-adv-x="677" 
d="M58 -213v744h187v-68q60 82 172 82q102 0 166.5 -77t64.5 -204q0 -129 -64 -205.5t-171 -76.5q-96 0 -150 68v-263h-205zM437 264q0 123 -85 123q-89 0 -89 -123q0 -120 87 -120t87 120z" />
    <glyph glyph-name="q" unicode="q" horiz-adv-x="677" 
d="M620 531v-744h-205v265q-58 -70 -154 -70q-103 0 -166.5 77t-63.5 205q0 129 64 205.5t168 76.5q103 0 170 -84v69h187zM416 266q0 59 -23.5 91t-63.5 32q-87 0 -87 -123q0 -122 87 -122t87 122z" />
    <glyph glyph-name="r" unicode="r" horiz-adv-x="457" 
d="M58 0v531h195v-97q40 111 165 111h19v-211q-24 3 -43 3q-124 0 -124 -119v-218h-212z" />
    <glyph glyph-name="s" unicode="s" horiz-adv-x="612" 
d="M31 167h205q0 -67 69 -67t69 44q0 26 -22 37q-13 6 -67 18q-135 29 -181 59q-59 38 -59 117q0 175 261 175q239 0 259 -167h-190q-5 52 -67 52q-57 0 -57 -37q0 -25 26 -35q4 -2 75 -18q130 -30 175 -60q56 -39 56 -120q0 -184 -281 -184q-257 0 -271 186z" />
    <glyph glyph-name="t" unicode="t" horiz-adv-x="429" 
d="M301 197q0 -28 16 -38.5t55 -10.5q19 0 30 1v-153q-77 -5 -131 -5q-99 0 -139.5 33.5t-40.5 118.5v266h-75v122h75v164h210v-164h99v-122h-99v-212z" />
    <glyph glyph-name="u" unicode="u" horiz-adv-x="683" 
d="M626 531v-531h-193v78q-73 -92 -186 -92q-98 0 -151 64q-28 34 -37 87q-6 37 -6 119v275h211v-274q0 -58 14 -81q16 -26 58 -26q79 0 79 108v273h211z" />
    <glyph glyph-name="v" unicode="v" horiz-adv-x="581" 
d="M179 0l-185 531h210l92 -319l90 319h201l-172 -531h-236z" />
    <glyph glyph-name="w" unicode="w" horiz-adv-x="932" 
d="M186 0l-175 531h209l79 -324l82 324h178l82 -324l79 324h201l-167 -531h-207l-77 307l-77 -307h-207z" />
    <glyph glyph-name="x" unicode="x" horiz-adv-x="597" 
d="M-11 0l188 279l-173 252h230l68 -126l70 126h230l-178 -250l184 -281h-235l-78 147l-74 -147h-232z" />
    <glyph glyph-name="y" unicode="y" horiz-adv-x="587" 
d="M65 -209v157h60q58 0 58 45q0 22 -11 52l-178 486h214l93 -322l90 322h199l-172 -528q-45 -139 -79 -172q-28 -28 -71 -37q-31 -7 -96 -7q-46 0 -107 4z" />
    <glyph glyph-name="z" unicode="z" horiz-adv-x="535" 
d="M13 0v143l242 233h-221v155h470v-142l-236 -234h248v-155h-503z" />
    <glyph glyph-name="braceleft" unicode="{" 
d="M442 582q-4 0 -11 1h-10q-45 0 -58.5 -15.5t-13.5 -61.5v-117q0 -63 -21.5 -91t-84.5 -39q63 -12 84.5 -39.5t21.5 -89.5v-118q0 -45 13.5 -60.5t57.5 -15.5h11q7 1 11 1v-139h-39q-119 0 -162 22q-33 17 -44 50q-9 25 -9 82v126q0 61 -22.5 87t-77.5 26h-8q-6 -1 -9 -1
v138h9q6 -1 8 -1q55 0 77.5 26t22.5 87v126q0 57 9 83q11 33 44 50q44 22 162 22h39v-139z" />
    <glyph glyph-name="bar" unicode="|" 
d="M319 764v-1000h-137v1000h137z" />
    <glyph glyph-name="braceright" unicode="}" 
d="M313 566v-126q0 -61 22.5 -87t77.5 -26q2 0 8 1h9v-138q-3 0 -9 1h-8q-55 0 -77.5 -26t-22.5 -87v-126q0 -56 -9 -83q-12 -33 -45 -50q-42 -21 -154 -21h-46v138h21q45 0 58.5 15.5t13.5 60.5v118q0 62 21.5 89.5t84.5 39.5q-63 11 -84.5 39t-21.5 90v118
q0 46 -13.5 61.5t-58.5 15.5h-10q-7 -1 -11 -1v139h39q118 0 161 -22q33 -17 45 -50q9 -27 9 -83z" />
    <glyph glyph-name="asciitilde" unicode="~" horiz-adv-x="833" 
d="M747 265q-97 -65 -181 -65q-49 0 -130 28q-99 34 -162 34q-79 0 -187 -77v146q110 70 199 70q55 0 136 -26l72 -24q41 -13 74 -13q82 0 179 73v-146z" />
    <glyph glyph-name="exclamdown" unicode="&#xa1;" horiz-adv-x="375" 
d="M246 462l49 -282v-180h-215v180l49 282h117zM293 719v-198h-211v198h211z" />
    <glyph glyph-name="cent" unicode="&#xa2;" horiz-adv-x="657" 
d="M126 -143l63 151q-77 32 -119 99t-42 159q0 132 80.5 208t221.5 76q42 0 88 -9l42 100h79l-52 -123q128 -60 131 -189h-192q0 16 -7 31l-100 -237h7q5 -1 7 -1q79 0 87 85h201q-5 -104 -81 -165t-201 -61q-24 0 -80 7l-53 -131h-80zM359 405q-26 4 -32 4q-94 0 -94 -142
q0 -71 21 -109z" />
    <glyph glyph-name="sterling" unicode="&#xa3;" horiz-adv-x="657" 
d="M108 -11l-91 155q110 64 110 144q0 14 -3 29h-87v87h57q-32 58 -32 111q0 93 73.5 148t201.5 55q137 0 211 -65t75 -184h-186q-3 93 -87 93q-35 0 -56.5 -17.5t-21.5 -44.5q0 -30 34 -96h105v-87h-91q-1 -63 -81 -122q50 13 77 13q29 0 75 -14.5t65 -14.5q45 0 101 44
l81 -166q-70 -70 -165 -70q-40 0 -124 32q-65 25 -104 25q-64 0 -137 -55z" />
    <glyph glyph-name="currency" unicode="&#xa4;" horiz-adv-x="606" 
d="M188 612q50 33 116 33t115 -33l97 97l65 -66l-96 -99q32 -52 32 -112t-32 -112l96 -98l-65 -67l-97 98q-50 -34 -115 -34q-64 0 -116 34l-97 -98l-65 67l96 98q-32 49 -32 113q0 61 32 111l-96 99l65 66zM423 432q0 48 -35.5 83.5t-83.5 35.5q-49 0 -84.5 -35.5
t-35.5 -83.5t35.5 -83.5t84.5 -35.5t84 35.5t35 83.5z" />
    <glyph glyph-name="yen" unicode="&#xa5;" horiz-adv-x="731" 
d="M267 0v247h-245v92h200l-33 58h-167v93h114l-123 212h220l135 -262l138 262h213l-120 -212h111v-93h-164l-33 -58h197v-92h-240v-247h-203z" />
    <glyph glyph-name="brokenbar" unicode="&#xa6;" 
d="M319 699v-370h-137v370h137zM319 199v-370h-137v370h137z" />
    <glyph glyph-name="section" unicode="&#xa7;" 
d="M38 82h149v-4q0 -32 19 -52t49 -20q24 0 40 13t16 32q0 20 -20 34q-13 8 -57 25l-75 29q-153 59 -153 181q0 87 86 136q-51 43 -51 116q0 79 52 123t148 44q215 0 218 -180h-153q0 67 -61 67q-51 0 -51 -40q0 -33 78 -66l78 -33q144 -61 144 -177q0 -100 -85 -133
q58 -51 58 -122q0 -75 -55.5 -119.5t-153.5 -44.5q-218 0 -220 191zM310 240q44 17 44 50q0 27 -43 48l-120 56q-47 -26 -47 -59q0 -24 43 -43q62 -26 123 -52z" />
    <glyph glyph-name="dieresis" unicode="&#xa8;" 
d="M100 618v132h122v-132h-122zM277 618v132h123v-132h-123z" />
    <glyph glyph-name="copyright" unicode="&#xa9;" horiz-adv-x="833" 
d="M416 729q155 0 261.5 -106.5t106.5 -260.5q0 -153 -106 -257q-112 -110 -262 -110q-149 0 -257.5 108.5t-108.5 258.5q0 151 109 262q103 105 257 105zM709 363q0 121 -85.5 206.5t-206.5 85.5q-123 0 -205 -84q-87 -89 -87 -208q0 -120 86 -206t206 -86q119 0 208 87
q84 83 84 205zM482 431q-3 66 -64 66q-76 0 -76 -133q0 -128 80 -128q59 0 62 70h121q-3 -73 -53.5 -116t-132.5 -43q-95 0 -149.5 56.5t-54.5 156.5q0 99 54.5 158.5t140.5 59.5q87 0 136.5 -39t53.5 -108h-118z" />
    <glyph glyph-name="ordfeminine" unicode="&#xaa;" horiz-adv-x="517" 
d="M326 347l-9 36q-59 -49 -145 -49q-141 0 -141 118q0 59 42 86q37 23 131 34q81 10 84 10q26 7 26 30q0 30 -57 30q-50 0 -54 -37h-154q2 127 213 127q104 0 155 -32q31 -19 42 -44q9 -21 9 -60v-207q0 -21 17 -32v-10h-159zM312 513q-44 -12 -87 -25q-33 -10 -33 -32
q0 -33 45 -33q76 0 76 71q0 13 -1 19z" />
    <glyph glyph-name="guillemotleft" unicode="&#xab;" horiz-adv-x="512" 
d="M218 69l-186 121v149l186 120v-135l-93 -60l93 -60v-135zM471 69l-187 121v149l187 120v-135l-93 -60l93 -60v-135z" />
    <glyph glyph-name="logicalnot" unicode="&#xac;" horiz-adv-x="833" 
d="M709 424v-245h-133v115h-452v130h585z" />
    <glyph glyph-name="minus" unicode="&#xad;" horiz-adv-x="833" 
d="M709 366v-135h-585v135h585z" />
    <glyph glyph-name="minus" unicode="&#x2212;" horiz-adv-x="833" 
d="M709 366v-135h-585v135h585z" />
    <glyph glyph-name="registered" unicode="&#xae;" horiz-adv-x="833" 
d="M416 729q155 0 261.5 -106.5t106.5 -260.5q0 -153 -106 -257q-112 -110 -262 -110q-149 0 -257.5 108.5t-108.5 258.5q0 151 109 262q103 105 257 105zM709 363q0 121 -85.5 206.5t-206.5 85.5q-123 0 -205 -84q-87 -89 -87 -208q0 -120 86 -206t206 -86q119 0 208 87
q84 83 84 205zM421 569q174 0 174 -117q0 -79 -80 -107l87 -173h-136l-71 152h-12v-152h-125v397h163zM402 491h-19v-94h26q58 0 58 48q0 46 -65 46z" />
    <glyph glyph-name="macron" unicode="&#xaf;" 
d="M100 643v82h300v-82h-300z" />
    <glyph glyph-name="macron" unicode="&#x2c9;" 
d="M100 643v82h300v-82h-300z" />
    <glyph glyph-name="degree" unicode="&#xb0;" horiz-adv-x="329" 
d="M165 719q65 0 111 -46t46 -112q0 -64 -46 -110.5t-112 -46.5q-65 0 -111 45.5t-46 111.5t46.5 112t111.5 46zM239 562q0 30 -22 52t-53 22q-30 0 -51.5 -21.5t-21.5 -52.5t21.5 -53t52.5 -22q30 0 52 22.5t22 52.5z" />
    <glyph glyph-name="plusminus" unicode="&#xb1;" horiz-adv-x="833" 
d="M485 616v-151h224v-133h-224v-151h-137v151h-224v133h224v151h137zM709 113v-133h-585v133h585z" />
    <glyph glyph-name="twosuperior" unicode="&#xb2;" horiz-adv-x="434" 
d="M18 281v5q-1 4 -1 5q0 86 128 168l90 54q35 25 35 52q0 54 -56 54q-65 0 -65 -76v-8h-123v12q0 78 52 122.5t143 44.5q85 0 134.5 -38t49.5 -99q0 -45 -25 -74q-20 -23 -74 -53q-35 -18 -110 -66h207v-103h-385z" />
    <glyph glyph-name="threesuperior" unicode="&#xb3;" horiz-adv-x="434" 
d="M22 430h127q1 -62 65 -62q58 0 58 49q0 46 -75 46h-12v73h10q74 0 74 43q0 39 -52 39q-56 0 -59 -46h-125q2 64 52.5 103t134.5 39q81 0 129 -34t48 -89q0 -56 -51 -82q63 -22 63 -94q0 -68 -52.5 -107t-146.5 -39q-87 0 -137.5 41t-50.5 111v9z" />
    <glyph glyph-name="acute" unicode="&#xb4;" 
d="M399 775l-159 -181h-75l94 181h140z" />
    <glyph glyph-name="mu" unicode="&#xb5;" horiz-adv-x="670" 
d="M294 531l-41 -300q-2 -15 -2 -26q0 -65 62 -65q75 0 90 104l41 287h204l-77 -531h-180l9 64q-35 -66 -92 -66q-60 0 -86 61l-35 -265h-201l102 737h206z" />
    <glyph glyph-name="mu" unicode="&#x3bc;" horiz-adv-x="670" 
d="M294 531l-41 -300q-2 -15 -2 -26q0 -65 62 -65q75 0 90 104l41 287h204l-77 -531h-180l9 64q-35 -66 -92 -66q-60 0 -86 61l-35 -265h-201l102 737h206z" />
    <glyph glyph-name="paragraph" unicode="&#xb6;" 
d="M495 653h-49v-653h-99v653h-68v-653h-99v383q-80 4 -127.5 50.5t-47.5 118.5q0 76 51.5 123t138.5 47h300v-69z" />
    <glyph glyph-name="periodcentered" unicode="&#xb7;" horiz-adv-x="329" 
d="M59 350q0 45 30.5 75.5t74.5 30.5t75 -31t31 -75t-31 -74.5t-75 -30.5t-74.5 30.5t-30.5 74.5z" />
    <glyph glyph-name="periodcentered" unicode="&#x2219;" horiz-adv-x="329" 
d="M59 350q0 45 30.5 75.5t74.5 30.5t75 -31t31 -75t-31 -74.5t-75 -30.5t-74.5 30.5t-30.5 74.5z" />
    <glyph glyph-name="cedilla" unicode="&#xb8;" 
d="M133 -215v68q80 -22 132 -22q42 0 42 35q0 31 -58 31q-17 0 -27 -1v104h56v-41h9q112 0 112 -94q0 -102 -124 -102q-60 0 -142 22z" />
    <glyph glyph-name="onesuperior" unicode="&#xb9;" horiz-adv-x="434" 
d="M170 281v245h-104v87q65 2 96 22t39 67h105v-421h-136z" />
    <glyph glyph-name="ordmasculine" unicode="&#xba;" horiz-adv-x="494" 
d="M22 533q0 92 60 145.5t165 53.5t165 -53.5t60 -145.5t-60 -145.5t-165 -53.5t-165 53.5t-60 145.5zM182 533q0 -96 65 -96q66 0 66 96t-66 96q-65 0 -65 -96z" />
    <glyph glyph-name="guillemotright" unicode="&#xbb;" horiz-adv-x="512" 
d="M41 459l186 -120v-149l-186 -121v135l93 60l-93 60v135zM294 459l186 -120v-149l-186 -121v135l92 60l-92 60v135z" />
    <glyph glyph-name="onequarter" unicode="&#xbc;" horiz-adv-x="995" 
d="M163 309v228h-99v82q61 1 90.5 19.5t37.5 63.5h100v-393h-129zM247 -20l401 741h99l-401 -741h-99zM800 0v82h-203v95l206 216h123v-222h52v-89h-52v-82h-126zM696 171h107v115z" />
    <glyph glyph-name="onehalf" unicode="&#xbd;" horiz-adv-x="995" 
d="M163 309v228h-99v82q61 1 90.5 19.5t37.5 63.5h100v-393h-129zM247 -20l401 741h99l-401 -741h-99zM598 0v5q-1 3 -1 5q0 79 123 156q43 25 85 51q34 23 34 48q0 50 -54 50q-62 0 -62 -71v-7h-117v12q0 73 49.5 114t136.5 41q80 0 127.5 -35t47.5 -92q0 -42 -24 -69
q-19 -22 -70 -50q-34 -17 -105 -62h198v-96h-368z" />
    <glyph glyph-name="threequarters" unicode="&#xbe;" horiz-adv-x="995" 
d="M21 448h121q1 -58 62 -58q56 0 56 46q0 43 -72 43h-11v68h9q70 0 70 40q0 37 -49 37q-55 0 -56 -43h-120q2 60 50.5 96t128.5 36q78 0 123.5 -31.5t45.5 -82.5q0 -54 -49 -77q60 -21 60 -88q0 -63 -50 -99.5t-140 -36.5q-82 0 -130.5 38.5t-48.5 103.5v8zM247 -20
l401 741h99l-401 -741h-99zM800 0v82h-203v95l206 216h123v-222h52v-89h-52v-82h-126zM696 171h107v115z" />
    <glyph glyph-name="questiondown" unicode="&#xbf;" horiz-adv-x="627" 
d="M426 718v-198h-210v198h210zM413 462q2 -26 2 -38q0 -103 -67 -142q-37 -18 -71.5 -36.5t-34.5 -49.5q0 -27 19 -43.5t51 -16.5q75 0 75 82v3h209q-6 -116 -80 -178.5t-207 -62.5q-127 0 -202.5 58.5t-75.5 150.5q0 66 37 108q19 22 55 42q31 18 63 35q26 15 34.5 28
t8.5 42v9q-1 6 -1 9h185z" />
    <glyph glyph-name="Agrave" unicode="&#xc0;" horiz-adv-x="735" 
d="M-3 0l253 719h234l253 -719h-229l-27 95h-229l-28 -95h-227zM294 246h145l-72 249zM219 963h140l94 -181h-75z" />
    <glyph glyph-name="Aacute" unicode="&#xc1;" horiz-adv-x="735" 
d="M-3 0l253 719h234l253 -719h-229l-27 95h-229l-28 -95h-227zM294 246h145l-72 249zM517 963l-159 -181h-75l94 181h140z" />
    <glyph glyph-name="Acircumflex" unicode="&#xc2;" horiz-adv-x="735" 
d="M-3 0l253 719h234l253 -719h-229l-27 95h-229l-28 -95h-227zM294 246h145l-72 249zM211 782l94 181h125l94 -181h-75l-81 97l-82 -97h-75z" />
    <glyph glyph-name="Atilde" unicode="&#xc3;" horiz-adv-x="735" 
d="M-3 0l253 719h234l253 -719h-229l-27 95h-229l-28 -95h-227zM294 246h145l-72 249zM530 941q-28 -124 -107 -124q-20 0 -37 5l-45 13q-21 6 -33 6q-31 0 -44 -37h-58q27 120 105 120q16 0 44 -8l46 -13q14 -4 28 -4q33 0 43 42h58z" />
    <glyph glyph-name="Adieresis" unicode="&#xc4;" horiz-adv-x="735" 
d="M-3 0l253 719h234l253 -719h-229l-27 95h-229l-28 -95h-227zM294 246h145l-72 249zM218 806v132h122v-132h-122zM395 806v132h123v-132h-123z" />
    <glyph glyph-name="Aring" unicode="&#xc5;" horiz-adv-x="735" 
d="M-3 0l246 699h247l247 -699h-229l-27 95h-229l-28 -95h-227zM294 246h145l-72 249zM318 843q0 -20 14.5 -34t34.5 -14t34 14t14 34t-14 34t-34 14t-34.5 -14t-14.5 -34zM246 842q0 50 35 85.5t85 35.5t85.5 -35.5t35.5 -85.5t-35.5 -84.5t-85.5 -34.5t-85 34.5t-35 84.5z
" />
    <glyph glyph-name="AE" unicode="&#xc6;" horiz-adv-x="1034" 
d="M-29 0l282 719h724v-172h-321v-96h267v-165h-267v-111h337v-175h-549v95h-213l-32 -95h-228zM280 246h164v307h-63z" />
    <glyph glyph-name="Ccedilla" unicode="&#xc7;" horiz-adv-x="782" 
d="M534 279h219q-10 -142 -100 -220.5t-245 -78.5q-173 0 -272 101.5t-99 277.5t98.5 277.5t267.5 101.5q156 0 245.5 -75.5t100.5 -215.5h-221q-11 111 -122 111q-136 0 -136 -199t142 -199q111 0 122 119zM289 -215v68q80 -22 132 -22q42 0 42 35q0 31 -58 31
q-17 0 -27 -1v104h56v-41h9q112 0 112 -94q0 -102 -124 -102q-60 0 -142 22z" />
    <glyph glyph-name="Egrave" unicode="&#xc8;" horiz-adv-x="697" 
d="M68 0v719h575v-172h-344v-96h291v-165h-291v-111h358v-175h-589zM200 963h140l94 -181h-75z" />
    <glyph glyph-name="Eacute" unicode="&#xc9;" horiz-adv-x="697" 
d="M68 0v719h575v-172h-344v-96h291v-165h-291v-111h358v-175h-589zM498 963l-159 -181h-75l94 181h140z" />
    <glyph glyph-name="Ecircumflex" unicode="&#xca;" horiz-adv-x="697" 
d="M68 0v719h575v-172h-344v-96h291v-165h-291v-111h358v-175h-589zM192 782l94 181h125l94 -181h-75l-81 97l-82 -97h-75z" />
    <glyph glyph-name="Edieresis" unicode="&#xcb;" horiz-adv-x="697" 
d="M68 0v719h575v-172h-344v-96h291v-165h-291v-111h358v-175h-589zM199 806v132h122v-132h-122zM376 806v132h123v-132h-123z" />
    <glyph glyph-name="Igrave" unicode="&#xcc;" horiz-adv-x="380" 
d="M72 0v719h235v-719h-235zM41 963h140l94 -181h-75z" />
    <glyph glyph-name="Iacute" unicode="&#xcd;" horiz-adv-x="380" 
d="M72 0v719h235v-719h-235zM339 963l-159 -181h-75l94 181h140z" />
    <glyph glyph-name="Icircumflex" unicode="&#xce;" horiz-adv-x="380" 
d="M72 0v719h235v-719h-235zM33 782l94 181h125l94 -181h-75l-81 97l-82 -97h-75z" />
    <glyph glyph-name="Idieresis" unicode="&#xcf;" horiz-adv-x="380" 
d="M72 0v719h235v-719h-235zM40 806v132h122v-132h-122zM217 806v132h123v-132h-123z" />
    <glyph glyph-name="Eth" unicode="&#xd0;" horiz-adv-x="788" 
d="M304 182h62q86 0 119.5 38.5t33.5 138.5q0 97 -34 137.5t-116 40.5h-65v-101h102v-120h-102v-134zM73 0v316h-73v120h73v283h279q92 0 138 -6q65 -9 110 -35q150 -87 150 -319q0 -247 -183 -329q-67 -30 -258 -30h-236z" />
    <glyph glyph-name="Ntilde" unicode="&#xd1;" horiz-adv-x="814" 
d="M68 0v719h219l202 -334q19 -32 42 -103q-6 37 -6 98v339h220v-719h-220l-202 332q-19 31 -42 103q6 -36 6 -98v-337h-219zM569 941q-28 -124 -107 -124q-20 0 -37 5l-45 13q-21 6 -33 6q-31 0 -44 -37h-58q27 120 105 120q16 0 44 -8l46 -13q14 -4 28 -4q33 0 43 42h58z
" />
    <glyph glyph-name="Ograve" unicode="&#xd2;" horiz-adv-x="822" 
d="M37 359q0 176 100.5 277.5t273.5 101.5t273 -101.5t100 -277.5t-100 -277.5t-273 -101.5t-273.5 101.5t-100.5 277.5zM270 359q0 -198 141 -198q73 0 106.5 48t33.5 150t-33.5 150t-106.5 48q-141 0 -141 -198zM262 963h140l94 -181h-75z" />
    <glyph glyph-name="Oacute" unicode="&#xd3;" horiz-adv-x="822" 
d="M37 359q0 176 100.5 277.5t273.5 101.5t273 -101.5t100 -277.5t-100 -277.5t-273 -101.5t-273.5 101.5t-100.5 277.5zM270 359q0 -198 141 -198q73 0 106.5 48t33.5 150t-33.5 150t-106.5 48q-141 0 -141 -198zM560 963l-159 -181h-75l94 181h140z" />
    <glyph glyph-name="Ocircumflex" unicode="&#xd4;" horiz-adv-x="822" 
d="M37 359q0 176 100.5 277.5t273.5 101.5t273 -101.5t100 -277.5t-100 -277.5t-273 -101.5t-273.5 101.5t-100.5 277.5zM270 359q0 -198 141 -198q73 0 106.5 48t33.5 150t-33.5 150t-106.5 48q-141 0 -141 -198zM254 782l94 181h125l94 -181h-75l-81 97l-82 -97h-75z" />
    <glyph glyph-name="Otilde" unicode="&#xd5;" horiz-adv-x="822" 
d="M37 359q0 176 100.5 277.5t273.5 101.5t273 -101.5t100 -277.5t-100 -277.5t-273 -101.5t-273.5 101.5t-100.5 277.5zM270 359q0 -198 141 -198q73 0 106.5 48t33.5 150t-33.5 150t-106.5 48q-141 0 -141 -198zM573 941q-28 -124 -107 -124q-20 0 -37 5l-45 13
q-21 6 -33 6q-31 0 -44 -37h-58q27 120 105 120q16 0 44 -8l46 -13q14 -4 28 -4q33 0 43 42h58z" />
    <glyph glyph-name="Odieresis" unicode="&#xd6;" horiz-adv-x="822" 
d="M37 359q0 176 100.5 277.5t273.5 101.5t273 -101.5t100 -277.5t-100 -277.5t-273 -101.5t-273.5 101.5t-100.5 277.5zM270 359q0 -198 141 -198q73 0 106.5 48t33.5 150t-33.5 150t-106.5 48q-141 0 -141 -198zM261 806v132h122v-132h-122zM438 806v132h123v-132h-123z
" />
    <glyph glyph-name="multiply" unicode="&#xd7;" horiz-adv-x="833" 
d="M427 393l208 208l95 -95l-208 -208l208 -208l-95 -95l-208 208l-208 -208l-95 95l208 208l-208 208l95 95z" />
    <glyph glyph-name="Oslash" unicode="&#xd8;" horiz-adv-x="822" 
d="M83 -28l68 98q-114 110 -114 284q0 179 99.5 281.5t273.5 102.5q109 0 192 -42l54 76l67 -45l-54 -77q115 -109 115 -288q0 -178 -100.5 -280t-276.5 -102q-114 0 -189 42l-68 -95zM497 539q-37 24 -86 24q-146 0 -146 -202q0 -72 18 -123zM323 179q33 -23 86 -23
q148 0 148 212q0 62 -17 114z" />
    <glyph glyph-name="Ugrave" unicode="&#xd9;" horiz-adv-x="815" 
d="M66 719h231v-443q0 -60 25 -87t86 -27t85 26.5t24 87.5v443h231v-461q0 -135 -87 -206.5t-253 -71.5t-254 71.5t-88 206.5v461zM259 963h140l94 -181h-75z" />
    <glyph glyph-name="Uacute" unicode="&#xda;" horiz-adv-x="815" 
d="M66 719h231v-443q0 -60 25 -87t86 -27t85 26.5t24 87.5v443h231v-461q0 -135 -87 -206.5t-253 -71.5t-254 71.5t-88 206.5v461zM557 963l-159 -181h-75l94 181h140z" />
    <glyph glyph-name="Ucircumflex" unicode="&#xdb;" horiz-adv-x="815" 
d="M66 719h231v-443q0 -60 25 -87t86 -27t85 26.5t24 87.5v443h231v-461q0 -135 -87 -206.5t-253 -71.5t-254 71.5t-88 206.5v461zM251 782l94 181h125l94 -181h-75l-81 97l-82 -97h-75z" />
    <glyph glyph-name="Udieresis" unicode="&#xdc;" horiz-adv-x="815" 
d="M66 719h231v-443q0 -60 25 -87t86 -27t85 26.5t24 87.5v443h231v-461q0 -135 -87 -206.5t-253 -71.5t-254 71.5t-88 206.5v461zM258 806v132h122v-132h-122zM435 806v132h123v-132h-123z" />
    <glyph glyph-name="Yacute" unicode="&#xdd;" horiz-adv-x="736" 
d="M256 0v266l-265 453h256l124 -245l125 245h249l-258 -453v-266h-231zM517 963l-159 -181h-75l94 181h140z" />
    <glyph glyph-name="Thorn" unicode="&#xde;" horiz-adv-x="738" 
d="M68 0v719h231v-80h65q180 0 251 -48q99 -67 99 -201q0 -121 -71 -185t-206 -64h-138v-141h-231zM299 316h74q66 0 91 13q30 16 30 61q0 46 -30 61q-23 12 -91 12h-74v-147z" />
    <glyph glyph-name="germandbls" unicode="&#xdf;" horiz-adv-x="674" 
d="M59 0v493q0 243 274 243q128 0 199.5 -52t71.5 -142t-90 -136q131 -43 131 -185q0 -108 -63.5 -173t-167.5 -65q-32 0 -92 11v132q18 -3 34 -3q76 0 76 98q0 61 -21.5 87.5t-71.5 26.5h-15v114h11q37 0 52 17t15 56q0 76 -69 76q-39 0 -52.5 -24t-13.5 -81v-493h-208z
" />
    <glyph glyph-name="agrave" unicode="&#xe0;" horiz-adv-x="689" 
d="M435 0l-13 51q-79 -70 -193 -70q-90 0 -139 44t-49 125q0 84 57 122q49 33 174 49q106 13 111 15q35 10 35 42q0 44 -76 44q-65 0 -71 -53h-206q3 181 284 181q140 0 207 -45q40 -27 55 -62q13 -31 13 -87v-296q0 -30 23 -45v-15h-212zM416 237q-58 -18 -117 -35
q-43 -15 -43 -46q0 -48 60 -48q101 0 101 102q0 18 -1 27zM208 775h140l94 -181h-75z" />
    <glyph glyph-name="aacute" unicode="&#xe1;" horiz-adv-x="689" 
d="M435 0l-13 51q-79 -70 -193 -70q-90 0 -139 44t-49 125q0 84 57 122q49 33 174 49q106 13 111 15q35 10 35 42q0 44 -76 44q-65 0 -71 -53h-206q3 181 284 181q140 0 207 -45q40 -27 55 -62q13 -31 13 -87v-296q0 -30 23 -45v-15h-212zM416 237q-58 -18 -117 -35
q-43 -15 -43 -46q0 -48 60 -48q101 0 101 102q0 18 -1 27zM506 775l-159 -181h-75l94 181h140z" />
    <glyph glyph-name="acircumflex" unicode="&#xe2;" horiz-adv-x="689" 
d="M435 0l-13 51q-79 -70 -193 -70q-90 0 -139 44t-49 125q0 84 57 122q49 33 174 49q106 13 111 15q35 10 35 42q0 44 -76 44q-65 0 -71 -53h-206q3 181 284 181q140 0 207 -45q40 -27 55 -62q13 -31 13 -87v-296q0 -30 23 -45v-15h-212zM416 237q-58 -18 -117 -35
q-43 -15 -43 -46q0 -48 60 -48q101 0 101 102q0 18 -1 27zM200 594l94 181h125l94 -181h-75l-81 97l-82 -97h-75z" />
    <glyph glyph-name="atilde" unicode="&#xe3;" horiz-adv-x="689" 
d="M435 0l-13 51q-79 -70 -193 -70q-90 0 -139 44t-49 125q0 84 57 122q49 33 174 49q106 13 111 15q35 10 35 42q0 44 -76 44q-65 0 -71 -53h-206q3 181 284 181q140 0 207 -45q40 -27 55 -62q13 -31 13 -87v-296q0 -30 23 -45v-15h-212zM416 237q-58 -18 -117 -35
q-43 -15 -43 -46q0 -48 60 -48q101 0 101 102q0 18 -1 27zM519 753q-28 -124 -107 -124q-20 0 -37 5l-45 13q-21 6 -33 6q-31 0 -44 -37h-58q27 120 105 120q16 0 44 -8l46 -13q14 -4 28 -4q33 0 43 42h58z" />
    <glyph glyph-name="adieresis" unicode="&#xe4;" horiz-adv-x="689" 
d="M435 0l-13 51q-79 -70 -193 -70q-90 0 -139 44t-49 125q0 84 57 122q49 33 174 49q106 13 111 15q35 10 35 42q0 44 -76 44q-65 0 -71 -53h-206q3 181 284 181q140 0 207 -45q40 -27 55 -62q13 -31 13 -87v-296q0 -30 23 -45v-15h-212zM416 237q-58 -18 -117 -35
q-43 -15 -43 -46q0 -48 60 -48q101 0 101 102q0 18 -1 27zM207 618v132h122v-132h-122zM384 618v132h123v-132h-123z" />
    <glyph glyph-name="aring" unicode="&#xe5;" horiz-adv-x="689" 
d="M314 694q0 -20 14 -33.5t34 -13.5t34 13.5t14 33.5t-14.5 34.5t-33.5 14.5q-20 0 -34 -14.5t-14 -34.5zM241 694q0 50 35.5 85.5t85.5 35.5t85 -35.5t35 -85.5t-35 -85t-85 -35t-85.5 35t-35.5 85zM416 237q-58 -18 -117 -35q-43 -15 -43 -46q0 -48 60 -48q101 0 101 102
q0 18 -1 27zM435 0l-13 51q-79 -70 -193 -70q-90 0 -139 44t-49 125q0 84 57 122q49 33 174 49q106 13 111 15q35 10 35 42q0 44 -76 44q-65 0 -71 -53h-206q3 181 284 181q140 0 207 -45q40 -27 55 -62q13 -31 13 -87v-296q0 -30 23 -45v-15h-212z" />
    <glyph glyph-name="ae" unicode="&#xe6;" horiz-adv-x="1021" 
d="M491 62q-112 -81 -262 -81q-90 0 -139 44t-49 125q0 84 56 122q49 33 174 49q107 14 112 15q35 10 35 42q0 44 -83 44q-67 0 -72 -52l-198 -1v1q0 85 71 132.5t201 47.5q129 0 186 -67q67 67 178 67q134 0 211.5 -86t77.5 -239v-6h-399q3 -104 98 -104q78 0 89 42h194
q-17 -81 -91 -128.5t-186 -47.5q-140 0 -204 81zM416 237q-62 -19 -124 -37q-46 -15 -46 -47q0 -50 64 -50q107 0 107 106q0 18 -1 28zM590 325h199q-5 102 -102 102q-91 0 -97 -102z" />
    <glyph glyph-name="ccedilla" unicode="&#xe7;" horiz-adv-x="652" 
d="M411 207h211q-7 -105 -83.5 -165.5t-204.5 -60.5q-142 0 -223.5 77t-81.5 208q0 132 81 208t222 76q129 0 206.5 -60.5t81.5 -160.5h-211q-6 74 -78 74q-89 0 -89 -137q0 -138 87 -138q74 0 82 79zM209 -215v68q80 -22 132 -22q42 0 42 35q0 31 -58 31q-17 0 -27 -1v104
h56v-41h9q112 0 112 -94q0 -102 -124 -102q-60 0 -142 22z" />
    <glyph glyph-name="egrave" unicode="&#xe8;" horiz-adv-x="666" 
d="M417 157h202q-44 -176 -293 -176q-137 0 -217 76t-80 204q0 134 81.5 211.5t223.5 77.5q141 0 221.5 -84t80.5 -234v-13h-396q3 -106 98 -106q63 0 79 44zM240 325h188q-6 99 -96 99q-87 0 -92 -99zM188 775h140l94 -181h-75z" />
    <glyph glyph-name="eacute" unicode="&#xe9;" horiz-adv-x="666" 
d="M417 157h202q-44 -176 -293 -176q-137 0 -217 76t-80 204q0 134 81.5 211.5t223.5 77.5q141 0 221.5 -84t80.5 -234v-13h-396q3 -106 98 -106q63 0 79 44zM240 325h188q-6 99 -96 99q-87 0 -92 -99zM486 775l-159 -181h-75l94 181h140z" />
    <glyph glyph-name="ecircumflex" unicode="&#xea;" horiz-adv-x="666" 
d="M417 157h202q-44 -176 -293 -176q-137 0 -217 76t-80 204q0 134 81.5 211.5t223.5 77.5q141 0 221.5 -84t80.5 -234v-13h-396q3 -106 98 -106q63 0 79 44zM240 325h188q-6 99 -96 99q-87 0 -92 -99zM180 594l94 181h125l94 -181h-75l-81 97l-82 -97h-75z" />
    <glyph glyph-name="edieresis" unicode="&#xeb;" horiz-adv-x="666" 
d="M417 157h202q-44 -176 -293 -176q-137 0 -217 76t-80 204q0 134 81.5 211.5t223.5 77.5q141 0 221.5 -84t80.5 -234v-13h-396q3 -106 98 -106q63 0 79 44zM240 325h188q-6 99 -96 99q-87 0 -92 -99zM187 618v132h122v-132h-122zM364 618v132h123v-132h-123z" />
    <glyph glyph-name="igrave" unicode="&#xec;" horiz-adv-x="338" 
d="M62 0v531h213v-531h-213zM20 775h140l94 -181h-75z" />
    <glyph glyph-name="iacute" unicode="&#xed;" horiz-adv-x="338" 
d="M62 0v531h213v-531h-213zM318 775l-159 -181h-75l94 181h140z" />
    <glyph glyph-name="icircumflex" unicode="&#xee;" horiz-adv-x="338" 
d="M62 0v531h213v-531h-213zM12 594l94 181h125l94 -181h-75l-81 97l-82 -97h-75z" />
    <glyph glyph-name="idieresis" unicode="&#xef;" horiz-adv-x="338" 
d="M62 0v531h213v-531h-213zM19 618v132h122v-132h-122zM196 618v132h123v-132h-123z" />
    <glyph glyph-name="eth" unicode="&#xf0;" horiz-adv-x="658" 
d="M377 469q-21 29 -101 92l-162 -81l-30 66l118 60q-24 13 -63 30l56 101q48 -14 160 -65l137 69l33 -63l-101 -52q206 -145 206 -367q0 -133 -79 -205.5t-222 -72.5q-140 0 -220 71t-80 193q0 112 69 178t187 66q55 0 92 -20zM242 251q0 -64 20 -93.5t67 -29.5t67.5 29.5
t20.5 93.5q0 123 -88 123q-47 0 -67 -29.5t-20 -93.5z" />
    <glyph glyph-name="ntilde" unicode="&#xf1;" horiz-adv-x="683" 
d="M57 0v531h192v-78q73 92 186 92q98 0 151 -64q28 -34 37 -86q7 -38 7 -119v-276h-211v275q0 57 -15 81.5t-57 24.5q-79 0 -79 -107v-274h-211zM504 753q-28 -124 -107 -124q-20 0 -37 5l-45 13q-21 6 -33 6q-31 0 -44 -37h-58q27 120 105 120q16 0 44 -8l46 -13
q14 -4 28 -4q33 0 43 42h58z" />
    <glyph glyph-name="ograve" unicode="&#xf2;" horiz-adv-x="658" 
d="M29 266q0 132 80 208t220 76t220 -76t80 -208t-80 -208.5t-220 -76.5t-220 76.5t-80 208.5zM242 266q0 -72 20 -105t67 -33t67.5 33t20.5 105t-20.5 104.5t-67.5 32.5t-67 -32.5t-20 -104.5zM180 775h140l94 -181h-75z" />
    <glyph glyph-name="oacute" unicode="&#xf3;" horiz-adv-x="658" 
d="M29 266q0 132 80 208t220 76t220 -76t80 -208t-80 -208.5t-220 -76.5t-220 76.5t-80 208.5zM242 266q0 -72 20 -105t67 -33t67.5 33t20.5 105t-20.5 104.5t-67.5 32.5t-67 -32.5t-20 -104.5zM478 775l-159 -181h-75l94 181h140z" />
    <glyph glyph-name="ocircumflex" unicode="&#xf4;" horiz-adv-x="658" 
d="M29 266q0 132 80 208t220 76t220 -76t80 -208t-80 -208.5t-220 -76.5t-220 76.5t-80 208.5zM242 266q0 -72 20 -105t67 -33t67.5 33t20.5 105t-20.5 104.5t-67.5 32.5t-67 -32.5t-20 -104.5zM172 594l94 181h125l94 -181h-75l-81 97l-82 -97h-75z" />
    <glyph glyph-name="otilde" unicode="&#xf5;" horiz-adv-x="658" 
d="M29 266q0 132 80 208t220 76t220 -76t80 -208t-80 -208.5t-220 -76.5t-220 76.5t-80 208.5zM242 266q0 -72 20 -105t67 -33t67.5 33t20.5 105t-20.5 104.5t-67.5 32.5t-67 -32.5t-20 -104.5zM491 753q-28 -124 -107 -124q-20 0 -37 5l-45 13q-21 6 -33 6q-31 0 -44 -37
h-58q27 120 105 120q16 0 44 -8l46 -13q14 -4 28 -4q33 0 43 42h58z" />
    <glyph glyph-name="odieresis" unicode="&#xf6;" horiz-adv-x="658" 
d="M29 266q0 132 80 208t220 76t220 -76t80 -208t-80 -208.5t-220 -76.5t-220 76.5t-80 208.5zM242 266q0 -72 20 -105t67 -33t67.5 33t20.5 105t-20.5 104.5t-67.5 32.5t-67 -32.5t-20 -104.5zM179 618v132h122v-132h-122zM356 618v132h123v-132h-123z" />
    <glyph glyph-name="divide" unicode="&#xf7;" horiz-adv-x="833" 
d="M417 594q36 0 62.5 -26.5t26.5 -63.5q0 -36 -26 -62.5t-64 -26.5q-37 0 -63 26t-26 63q0 38 26.5 64t63.5 26zM709 365v-133h-585v133h585zM417 181q36 0 62.5 -26t26.5 -63q0 -36 -26 -62.5t-64 -26.5q-37 0 -63 26t-26 63q0 38 26.5 63.5t63.5 25.5z" />
    <glyph glyph-name="oslash" unicode="&#xf8;" horiz-adv-x="658" 
d="M423 323l-171 -167q25 -37 79 -37q97 0 97 149q0 27 -5 55zM233 215l169 163q-22 33 -73 33q-99 0 -99 -136q0 6 3 -60zM69 -20l-37 39l60 58q-64 77 -64 186q0 133 80.5 210t220.5 77q119 0 194 -56l52 57l44 -39l-54 -53q65 -75 65 -187q0 -136 -80 -213.5t-221 -77.5
q-124 0 -198 59z" />
    <glyph glyph-name="ugrave" unicode="&#xf9;" horiz-adv-x="683" 
d="M626 531v-531h-193v78q-73 -92 -186 -92q-98 0 -151 64q-28 34 -37 87q-6 37 -6 119v275h211v-274q0 -58 14 -81q16 -26 58 -26q79 0 79 108v273h211zM193 775h140l94 -181h-75z" />
    <glyph glyph-name="uacute" unicode="&#xfa;" horiz-adv-x="683" 
d="M626 531v-531h-193v78q-73 -92 -186 -92q-98 0 -151 64q-28 34 -37 87q-6 37 -6 119v275h211v-274q0 -58 14 -81q16 -26 58 -26q79 0 79 108v273h211zM491 775l-159 -181h-75l94 181h140z" />
    <glyph glyph-name="ucircumflex" unicode="&#xfb;" horiz-adv-x="683" 
d="M626 531v-531h-193v78q-73 -92 -186 -92q-98 0 -151 64q-28 34 -37 87q-6 37 -6 119v275h211v-274q0 -58 14 -81q16 -26 58 -26q79 0 79 108v273h211zM185 594l94 181h125l94 -181h-75l-81 97l-82 -97h-75z" />
    <glyph glyph-name="udieresis" unicode="&#xfc;" horiz-adv-x="683" 
d="M626 531v-531h-193v78q-73 -92 -186 -92q-98 0 -151 64q-28 34 -37 87q-6 37 -6 119v275h211v-274q0 -58 14 -81q16 -26 58 -26q79 0 79 108v273h211zM192 618v132h122v-132h-122zM369 618v132h123v-132h-123z" />
    <glyph glyph-name="yacute" unicode="&#xfd;" horiz-adv-x="587" 
d="M65 -209v157h60q58 0 58 45q0 22 -11 52l-178 486h214l93 -322l90 322h199l-172 -528q-45 -139 -79 -172q-28 -28 -71 -37q-31 -7 -96 -7q-46 0 -107 4zM443 775l-159 -181h-75l94 181h140z" />
    <glyph glyph-name="thorn" unicode="&#xfe;" horiz-adv-x="677" 
d="M58 -213v932h205v-242q49 68 154 68q102 0 166.5 -77t64.5 -204q0 -128 -63.5 -205t-164.5 -77q-103 0 -157 68v-263h-205zM437 264q0 123 -85 123q-89 0 -89 -123q0 -120 87 -120t87 120z" />
    <glyph glyph-name="ydieresis" unicode="&#xff;" horiz-adv-x="587" 
d="M65 -209v157h60q58 0 58 45q0 22 -11 52l-178 486h214l93 -322l90 322h199l-172 -528q-45 -139 -79 -172q-28 -28 -71 -37q-31 -7 -96 -7q-46 0 -107 4zM144 618v132h122v-132h-122zM321 618v132h123v-132h-123z" />
    <glyph glyph-name="dotlessi" unicode="&#x131;" horiz-adv-x="338" 
d="M62 0v531h213v-531h-213z" />
    <glyph glyph-name="Lslash" unicode="&#x141;" horiz-adv-x="644" 
d="M73 0v259l-58 -39l-63 108l121 80v311h231v-184l126 82l65 -107l-191 -124v-195h313v-191h-544z" />
    <glyph glyph-name="lslash" unicode="&#x142;" horiz-adv-x="347" 
d="M67 0v255l-43 -28l-57 88l100 65v339h213v-229l48 31l56 -87l-104 -68v-366h-213z" />
    <glyph glyph-name="OE" unicode="&#x152;" horiz-adv-x="1166" 
d="M566 58q-66 -75 -188 -75q-148 0 -241.5 103.5t-93.5 272.5q0 170 93.5 274t241.5 104q115 0 188 -76v58h533v-172h-343v-96h290v-165h-290v-111h358v-175h-548v58zM270 359q0 -202 138 -202q137 0 137 202t-137 202q-138 0 -138 -202z" />
    <glyph glyph-name="oe" unicode="&#x153;" horiz-adv-x="1021" 
d="M503 52q-77 -71 -184 -71q-132 0 -211.5 77.5t-79.5 207.5t79.5 207t211.5 77q114 0 188 -73q73 73 190 73q132 0 212.5 -84.5t80.5 -229.5v-17h-396q3 -104 95 -104q73 0 88 42h196q-18 -82 -91.5 -129t-188.5 -47q-118 0 -190 71zM234 266q0 -73 21.5 -107.5
t70.5 -34.5q50 0 71 34t21 108t-21 107.5t-71 33.5q-49 0 -70.5 -34t-21.5 -107zM594 325h194q-5 102 -100 102q-89 0 -94 -102z" />
    <glyph glyph-name="Scaron" unicode="&#x160;" horiz-adv-x="713" 
d="M34 224h225q17 -73 106 -73q87 0 87 52q0 30 -32 44q-11 5 -95 27q-154 40 -195 69q-83 59 -83 166q0 105 80 167t222 62q139 0 218.5 -58.5t89.5 -167.5h-219q-10 63 -93 63q-73 0 -73 -49q0 -26 27 -39q15 -7 80 -24q111 -29 119 -31q57 -17 87 -37q92 -62 92 -168
q0 -118 -83 -182.5t-239 -64.5q-144 0 -227 64t-94 180zM200 963h75l82 -98l81 98h75l-94 -181h-125z" />
    <glyph glyph-name="scaron" unicode="&#x161;" horiz-adv-x="612" 
d="M31 167h205q0 -67 69 -67t69 44q0 26 -22 37q-13 6 -67 18q-135 29 -181 59q-59 38 -59 117q0 175 261 175q239 0 259 -167h-190q-5 52 -67 52q-57 0 -57 -37q0 -25 26 -35q4 -2 75 -18q130 -30 175 -60q56 -39 56 -120q0 -184 -281 -184q-257 0 -271 186zM149 775h75
l82 -98l81 98h75l-94 -181h-125z" />
    <glyph glyph-name="Ydieresis" unicode="&#x178;" horiz-adv-x="736" 
d="M256 0v266l-265 453h256l124 -245l125 245h249l-258 -453v-266h-231zM218 806v132h122v-132h-122zM395 806v132h123v-132h-123z" />
    <glyph glyph-name="Zcaron" unicode="&#x17d;" horiz-adv-x="705" 
d="M34 0v173l333 360h-322v186h606v-171l-337 -363h355v-185h-635zM196 963h75l82 -98l81 98h75l-94 -181h-125z" />
    <glyph glyph-name="zcaron" unicode="&#x17e;" horiz-adv-x="535" 
d="M13 0v143l242 233h-221v155h470v-142l-236 -234h248v-155h-503zM111 775h75l82 -98l81 98h75l-94 -181h-125z" />
    <glyph glyph-name="florin" unicode="&#x192;" horiz-adv-x="657" 
d="M16 -158l26 126q41 -9 57 -9q56 0 67 70l50 320h-101v112h120q20 145 70 208.5t151 63.5q67 0 128 -18l-23 -127q-43 9 -58 9q-32 0 -47 -23q-13 -18 -21 -67l-8 -46h112v-112h-130l-37 -237q-25 -161 -72 -222q-52 -67 -165 -67q-59 0 -119 19z" />
    <glyph glyph-name="circumflex" unicode="&#x2c6;" 
d="M93 594l94 181h125l94 -181h-75l-81 97l-82 -97h-75z" />
    <glyph glyph-name="caron" unicode="&#x2c7;" 
d="M93 775h75l82 -98l81 98h75l-94 -181h-125z" />
    <glyph glyph-name="breve" unicode="&#x2d8;" 
d="M96 759h64q6 -68 90 -68q86 0 89 68h64q-12 -151 -153 -151q-144 0 -154 151z" />
    <glyph glyph-name="dotaccent" unicode="&#x2d9;" 
d="M187 616v137h127v-137h-127z" />
    <glyph glyph-name="ring" unicode="&#x2da;" 
d="M118 717q0 56 38.5 94t93.5 38q56 0 94.5 -38.5t38.5 -93.5t-38.5 -94t-94.5 -39t-94 38.5t-38 94.5zM194 717q0 -23 16 -39.5t40 -16.5q23 0 39.5 16.5t16.5 39.5t-16.5 39.5t-39.5 16.5t-39.5 -16.5t-16.5 -39.5z" />
    <glyph glyph-name="ogonek" unicode="&#x2db;" 
d="M309 0q-58 -53 -58 -96q0 -39 37 -39h50v-93h-36q-73 0 -105 20q-35 22 -35 76q0 72 94 132h53z" />
    <glyph glyph-name="tilde" unicode="&#x2dc;" 
d="M412 753q-28 -124 -107 -124q-20 0 -37 5l-45 13q-21 6 -33 6q-31 0 -44 -37h-58q27 120 105 120q16 0 44 -8l46 -13q14 -4 28 -4q33 0 43 42h58z" />
    <glyph glyph-name="hungarumlaut" unicode="&#x2dd;" 
d="M194 775h120l-123 -181h-54zM278 594l76 181h124l-142 -181h-58z" />
    <glyph glyph-name="endash" unicode="&#x2013;" 
d="M0 196v145h500v-145h-500z" />
    <glyph glyph-name="emdash" unicode="&#x2014;" horiz-adv-x="1000" 
d="M0 196v145h1000v-145h-1000z" />
    <glyph glyph-name="quoteleft" unicode="&#x2018;" horiz-adv-x="308" 
d="M59 364v184q0 78 49 127.5t141 61.5v-84q-84 -19 -84 -97h84v-192h-190z" />
    <glyph glyph-name="quoteright" unicode="&#x2019;" horiz-adv-x="308" 
d="M249 719v-185q0 -78 -49 -127t-141 -61v84q83 18 83 97h-83v192h190z" />
    <glyph glyph-name="quotesinglbase" unicode="&#x201a;" horiz-adv-x="308" 
d="M249 199v-184q0 -78 -49 -127.5t-141 -61.5v84q83 18 83 97h-83v192h190z" />
    <glyph glyph-name="quotedblleft" unicode="&#x201c;" horiz-adv-x="554" 
d="M305 365v185q0 78 49 127t141 61v-84q-83 -18 -83 -97h83v-192h-190zM59 365v185q0 78 49 127t141 61v-84q-84 -19 -84 -97h84v-192h-190z" />
    <glyph glyph-name="quotedblright" unicode="&#x201d;" horiz-adv-x="554" 
d="M249 719v-185q0 -78 -49 -127t-141 -61v84q83 18 83 97h-83v192h190zM495 719v-185q0 -78 -49 -127t-141 -61v84q84 19 84 97h-84v192h190z" />
    <glyph glyph-name="quotedblbase" unicode="&#x201e;" horiz-adv-x="554" 
d="M249 199v-184q0 -78 -49 -127.5t-141 -61.5v84q83 18 83 97h-83v192h190zM495 199v-184q0 -78 -49 -127.5t-141 -61.5v84q84 19 84 97h-84v192h190z" />
    <glyph glyph-name="dagger" unicode="&#x2020;" 
d="M165 -111v501h-154v138h154v192h169v-192h153v-138h-153v-501h-169z" />
    <glyph glyph-name="daggerdbl" unicode="&#x2021;" 
d="M169 -110v165h-149v135h149v230h-149v131h149v168h161v-168h149v-131h-149v-230h149v-135h-149v-165h-161z" />
    <glyph glyph-name="bullet" unicode="&#x2022;" horiz-adv-x="590" 
d="M150 372q0 60 42.5 102t102.5 42q59 0 101.5 -42t42.5 -102q0 -59 -42.5 -102t-102.5 -43t-102 42.5t-42 102.5z" />
    <glyph glyph-name="ellipsis" unicode="&#x2026;" horiz-adv-x="1000" 
d="M60 0v216h212v-216h-212zM393 0v216h212v-216h-212zM727 0v216h212v-216h-212z" />
    <glyph glyph-name="perthousand" unicode="&#x2030;" horiz-adv-x="1501" 
d="M23 504q0 92 63 154.5t154 62.5q89 0 152.5 -63.5t63.5 -153.5q0 -89 -63.5 -152.5t-152.5 -63.5q-92 0 -154.5 62.5t-62.5 153.5zM157 504q0 -35 24 -58.5t59 -23.5q34 0 58 24t24 58q0 35 -24 59t-58 24t-58.5 -24t-24.5 -59zM259 -20l401 741h99l-401 -741h-99z
M562 197q0 92 62.5 154.5t153.5 62.5q89 0 153 -63.5t64 -153.5q0 -89 -64 -153t-153 -64q-91 0 -153.5 62.5t-62.5 154.5zM696 197q0 -35 23.5 -59t58.5 -24q34 0 58.5 24.5t24.5 58.5q0 35 -24 59t-59 24q-34 0 -58 -24t-24 -59zM1044 197q0 92 63 154.5t154 62.5
q89 0 153 -63.5t64 -153.5q0 -89 -64 -153t-153 -64q-91 0 -154 63t-63 154zM1178 197q0 -35 24 -58t59 -23t59 23.5t24 57.5q0 35 -24 59t-59 24q-34 0 -58.5 -24t-24.5 -59z" />
    <glyph glyph-name="guilsinglleft" unicode="&#x2039;" horiz-adv-x="260" 
d="M218 70l-186 121v149l186 121v-136l-93 -59l93 -60v-136z" />
    <glyph glyph-name="guilsinglright" unicode="&#x203a;" horiz-adv-x="260" 
d="M41 459l186 -120v-149l-186 -121v135l93 60l-93 60v135z" />
    <glyph glyph-name="fraction" unicode="&#x2044;" horiz-adv-x="167" 
d="M-167 -20l401 741h99l-401 -741h-99z" />
    <glyph glyph-name="trademark" unicode="&#x2122;" horiz-adv-x="833" 
d="M337 717v-74h-79v-199h-99v199h-79v74h257zM510 717l48 -130l48 130h125v-273h-89v179l-67 -179h-34l-67 179v-179h-89v273h125z" />
    <glyph glyph-name="fi" unicode="&#xf001;" horiz-adv-x="704" 
d="M433 0v531h213v-531h-213zM77 0v411h-66v120h66v33q0 173 182 173h118v-133q-4 0 -11 1h-11q-38 0 -53.5 -12.5t-15.5 -45.5q0 -2 1 -8v-8h90v-120h-90v-411h-210zM433 585v152h213v-152h-213z" />
    <glyph glyph-name="fl" unicode="&#xf002;" horiz-adv-x="704" 
d="M436 0v719h213v-719h-213zM77 0v411h-66v120h66v33q0 173 182 173h118v-133q-4 0 -11 1h-11q-38 0 -53.5 -12.5t-15.5 -45.5q0 -2 1 -8v-8h90v-120h-90v-411h-210z" />
    <glyph glyph-name="glyph231" horiz-adv-x="329" 
 />
  </font>
</defs>
</svg>
