<svg width="274" height="76" viewBox="0 0 274 76" fill="none" xmlns="http://www.w3.org/2000/svg">
<circle cx="38" cy="38" r="38" fill="white"/>
<path d="M47.3653 47.4466C52.5459 42.2577 52.5459 33.8449 47.3653 28.656C42.1847 23.4671 33.7854 23.4671 28.6048 28.656C23.4243 33.8449 23.4243 42.2577 28.6048 47.4466C33.7854 52.6354 42.1847 52.6354 47.3653 47.4466Z" fill="black"/>
<path fill-rule="evenodd" clip-rule="evenodd" d="M56.8584 39.5412C56.138 48.8454 48.7181 56.27 39.418 56.9663V61.7032C51.3222 60.9889 60.8529 51.4574 61.5912 39.5376L56.8584 39.5412Z" fill="#FECB37"/>
<path fill-rule="evenodd" clip-rule="evenodd" d="M19.0571 39.5412C19.7775 48.8454 27.1974 56.27 36.4975 56.9663V61.7032C24.5932 60.9889 15.0626 51.4574 14.3242 39.5376L19.0571 39.5412Z" fill="#CC1417"/>
<path fill-rule="evenodd" clip-rule="evenodd" d="M56.8584 36.5902C56.138 27.286 48.7181 19.8614 39.418 19.1651V14.4282C51.3222 15.1425 60.8529 24.674 61.5912 36.5938L56.8584 36.5902Z" fill="#203C89"/>
<path fill-rule="evenodd" clip-rule="evenodd" d="M19.0571 36.5902C19.7775 27.286 27.1974 19.8614 36.4975 19.1651V14.4282C24.5932 15.1425 15.0626 24.674 14.3242 36.5938L19.0571 36.5902Z" fill="#08672F"/>
<path fill-rule="evenodd" clip-rule="evenodd" d="M39.502 67.3131V72.3278C57.2233 71.5557 71.4472 57.2946 72.2 39.5376H67.1573C66.4081 54.5167 54.4642 66.5699 39.502 67.3131Z" fill="#08672F"/>
<path fill-rule="evenodd" clip-rule="evenodd" d="M36.4968 67.3128V72.3275C18.7755 71.5518 4.55162 57.2907 3.79883 39.5337H8.84148C9.59068 54.5164 21.5382 66.5696 36.4968 67.3128Z" fill="#203C89"/>
<path fill-rule="evenodd" clip-rule="evenodd" d="M39.502 8.81448V3.7998C57.2233 4.57185 71.4472 18.833 72.2 36.59H67.1573C66.4081 21.6109 54.4642 9.55405 39.502 8.81448Z" fill="#CC1417"/>
<path fill-rule="evenodd" clip-rule="evenodd" d="M36.4968 8.81448V3.7998C18.7755 4.57185 4.55162 18.833 3.79883 36.59H8.84148C9.59068 21.6109 21.5382 9.55405 36.4968 8.81448Z" fill="#FECB37"/>
<g filter="url(#filter0_d)">
<path d="M95.296 23V10.058H99.526V23H95.296ZM102.062 23V10.058H106.004L109.64 16.07C109.868 16.454 110.12 17.072 110.396 17.924C110.324 17.48 110.288 16.892 110.288 16.16V10.058H114.248V23H110.288L106.652 17.024C106.424 16.652 106.172 16.034 105.896 15.17C105.968 15.602 106.004 16.19 106.004 16.934V23H102.062ZM119.44 23V13.46H115.714V10.058H127.252V13.46H123.598V23H119.44ZM128.675 23V10.058H139.025V13.154H132.833V14.882H138.071V17.852H132.833V19.85H139.277V23H128.675ZM141.226 23V10.058H147.418C149.314 10.058 150.676 10.334 151.504 10.886C152.38 11.462 152.818 12.428 152.818 13.784C152.818 15.32 152.122 16.388 150.73 16.988C151.45 17.144 151.972 17.444 152.296 17.888C152.62 18.332 152.8 18.992 152.836 19.868L152.908 21.668C152.92 21.992 152.938 22.196 152.962 22.28C153.01 22.424 153.118 22.502 153.286 22.514V23H149.092C148.936 22.364 148.858 21.914 148.858 21.65V20.354C148.858 19.682 148.726 19.214 148.462 18.95C148.198 18.674 147.742 18.536 147.094 18.536H145.33V23H141.226ZM145.33 15.62H147.22C147.844 15.62 148.288 15.536 148.552 15.368C148.828 15.2 148.966 14.882 148.966 14.414C148.966 13.874 148.774 13.52 148.39 13.352C148.15 13.244 147.724 13.19 147.112 13.19H145.33V15.62ZM154.954 23V10.058H158.896L162.532 16.07C162.76 16.454 163.012 17.072 163.288 17.924C163.216 17.48 163.18 16.892 163.18 16.16V10.058H167.14V23H163.18L159.544 17.024C159.316 16.652 159.064 16.034 158.788 15.17C158.86 15.602 158.896 16.19 158.896 16.934V23H154.954ZM168.337 23L172.891 10.058H177.103L181.657 23H177.535L177.049 21.29H172.927L172.423 23H168.337ZM173.683 18.572H176.293L174.997 14.09L173.683 18.572ZM185.569 23V13.46H181.843V10.058H193.381V13.46H189.727V23H185.569ZM194.876 23V10.058H199.106V23H194.876ZM201.084 16.538C201.084 14.426 201.684 12.764 202.884 11.552C204.096 10.328 205.74 9.716 207.816 9.716C209.892 9.716 211.53 10.328 212.73 11.552C213.93 12.764 214.53 14.426 214.53 16.538C214.53 18.65 213.93 20.318 212.73 21.542C211.53 22.754 209.892 23.36 207.816 23.36C205.74 23.36 204.096 22.754 202.884 21.542C201.684 20.318 201.084 18.65 201.084 16.538ZM205.278 16.538C205.278 18.914 206.124 20.102 207.816 20.102C208.692 20.102 209.328 19.814 209.724 19.238C210.132 18.662 210.336 17.762 210.336 16.538C210.336 15.314 210.132 14.414 209.724 13.838C209.328 13.262 208.692 12.974 207.816 12.974C206.124 12.974 205.278 14.162 205.278 16.538ZM216.443 23V10.058H220.385L224.021 16.07C224.249 16.454 224.501 17.072 224.777 17.924C224.705 17.48 224.669 16.892 224.669 16.16V10.058H228.629V23H224.669L221.033 17.024C220.805 16.652 220.553 16.034 220.277 15.17C220.349 15.602 220.385 16.19 220.385 16.934V23H216.443ZM229.825 23L234.379 10.058H238.591L243.145 23H239.023L238.537 21.29H234.415L233.911 23H229.825ZM235.171 18.572H237.781L236.485 14.09L235.171 18.572ZM244.339 23V10.058H248.497V19.562H254.149V23H244.339ZM94.612 40.968H98.662C98.866 41.844 99.502 42.282 100.57 42.282C101.614 42.282 102.136 41.97 102.136 41.346C102.136 40.986 101.944 40.722 101.56 40.554C101.428 40.494 100.858 40.332 99.85 40.068C98.002 39.588 96.832 39.174 96.34 38.826C95.344 38.118 94.846 37.122 94.846 35.838C94.846 34.578 95.326 33.576 96.286 32.832C97.246 32.088 98.578 31.716 100.282 31.716C101.95 31.716 103.258 32.07 104.206 32.778C105.166 33.474 105.706 34.476 105.826 35.784H101.884C101.764 35.028 101.206 34.65 100.21 34.65C99.334 34.65 98.896 34.944 98.896 35.532C98.896 35.844 99.058 36.078 99.382 36.234C99.562 36.318 100.042 36.462 100.822 36.666C102.154 37.014 102.868 37.2 102.964 37.224C103.648 37.428 104.17 37.65 104.53 37.89C105.634 38.634 106.186 39.642 106.186 40.914C106.186 42.33 105.688 43.428 104.692 44.208C103.696 44.976 102.262 45.36 100.39 45.36C98.662 45.36 97.3 44.976 96.304 44.208C95.308 43.44 94.744 42.36 94.612 40.968ZM108.056 45V32.058H112.214V36.45H116.084V32.058H120.242V45H116.084V39.978H112.214V45H108.056ZM122.141 38.538C122.141 36.426 122.741 34.764 123.941 33.552C125.153 32.328 126.797 31.716 128.873 31.716C130.949 31.716 132.587 32.328 133.787 33.552C134.987 34.764 135.587 36.426 135.587 38.538C135.587 40.65 134.987 42.318 133.787 43.542C132.587 44.754 130.949 45.36 128.873 45.36C126.797 45.36 125.153 44.754 123.941 43.542C122.741 42.318 122.141 40.65 122.141 38.538ZM126.335 38.538C126.335 40.914 127.181 42.102 128.873 42.102C129.749 42.102 130.385 41.814 130.781 41.238C131.189 40.662 131.393 39.762 131.393 38.538C131.393 37.314 131.189 36.414 130.781 35.838C130.385 35.262 129.749 34.974 128.873 34.974C127.181 34.974 126.335 36.162 126.335 38.538ZM136.941 38.538C136.941 36.426 137.541 34.764 138.741 33.552C139.953 32.328 141.597 31.716 143.673 31.716C145.749 31.716 147.387 32.328 148.587 33.552C149.787 34.764 150.387 36.426 150.387 38.538C150.387 40.65 149.787 42.318 148.587 43.542C147.387 44.754 145.749 45.36 143.673 45.36C141.597 45.36 139.953 44.754 138.741 43.542C137.541 42.318 136.941 40.65 136.941 38.538ZM141.135 38.538C141.135 40.914 141.981 42.102 143.673 42.102C144.549 42.102 145.185 41.814 145.581 41.238C145.989 40.662 146.193 39.762 146.193 38.538C146.193 37.314 145.989 36.414 145.581 35.838C145.185 35.262 144.549 34.974 143.673 34.974C141.981 34.974 141.135 36.162 141.135 38.538ZM155.018 45V35.46H151.292V32.058H162.83V35.46H159.176V45H155.018ZM164.325 45V32.058H168.555V45H164.325ZM171.091 45V32.058H175.033L178.669 38.07C178.897 38.454 179.149 39.072 179.425 39.924C179.353 39.48 179.317 38.892 179.317 38.16V32.058H183.277V45H179.317L175.681 39.024C175.453 38.652 175.201 38.034 174.925 37.17C174.997 37.602 175.033 38.19 175.033 38.934V45H171.091ZM195.381 45L195.183 43.884C194.247 44.868 192.909 45.36 191.169 45.36C189.333 45.36 187.875 44.754 186.795 43.542C185.727 42.33 185.193 40.662 185.193 38.538C185.193 36.378 185.787 34.704 186.975 33.516C188.163 32.316 189.831 31.716 191.979 31.716C193.671 31.716 195.033 32.142 196.065 32.994C197.097 33.834 197.709 35.01 197.901 36.522H193.959C193.635 35.466 192.939 34.938 191.871 34.938C190.215 34.938 189.387 36.21 189.387 38.754C189.387 41.082 190.227 42.246 191.907 42.246C192.519 42.246 193.035 42.102 193.455 41.814C193.887 41.526 194.151 41.148 194.247 40.68H192.375V37.908H198.063V45H195.381ZM205.741 40.968H209.791C209.995 41.844 210.631 42.282 211.699 42.282C212.743 42.282 213.265 41.97 213.265 41.346C213.265 40.986 213.073 40.722 212.689 40.554C212.557 40.494 211.987 40.332 210.979 40.068C209.131 39.588 207.961 39.174 207.469 38.826C206.473 38.118 205.975 37.122 205.975 35.838C205.975 34.578 206.455 33.576 207.415 32.832C208.375 32.088 209.707 31.716 211.411 31.716C213.079 31.716 214.387 32.07 215.335 32.778C216.295 33.474 216.835 34.476 216.955 35.784H213.013C212.893 35.028 212.335 34.65 211.339 34.65C210.463 34.65 210.025 34.944 210.025 35.532C210.025 35.844 210.187 36.078 210.511 36.234C210.691 36.318 211.171 36.462 211.951 36.666C213.283 37.014 213.997 37.2 214.093 37.224C214.777 37.428 215.299 37.65 215.659 37.89C216.763 38.634 217.315 39.642 217.315 40.914C217.315 42.33 216.817 43.428 215.821 44.208C214.825 44.976 213.391 45.36 211.519 45.36C209.791 45.36 208.429 44.976 207.433 44.208C206.437 43.44 205.873 42.36 205.741 40.968ZM219.185 45V32.058H224.513C226.661 32.058 228.167 32.346 229.031 32.922C230.219 33.714 230.813 34.926 230.813 36.558C230.813 37.998 230.387 39.108 229.535 39.888C228.683 40.656 227.447 41.04 225.827 41.04H223.343V45H219.185ZM223.343 37.872H224.675C225.383 37.872 225.869 37.824 226.133 37.728C226.613 37.536 226.853 37.146 226.853 36.558C226.853 35.946 226.619 35.55 226.151 35.37C225.899 35.274 225.407 35.226 224.675 35.226H223.343V37.872ZM231.916 38.538C231.916 36.426 232.516 34.764 233.716 33.552C234.928 32.328 236.572 31.716 238.648 31.716C240.724 31.716 242.362 32.328 243.562 33.552C244.762 34.764 245.362 36.426 245.362 38.538C245.362 40.65 244.762 42.318 243.562 43.542C242.362 44.754 240.724 45.36 238.648 45.36C236.572 45.36 234.928 44.754 233.716 43.542C232.516 42.318 231.916 40.65 231.916 38.538ZM236.11 38.538C236.11 40.914 236.956 42.102 238.648 42.102C239.524 42.102 240.16 41.814 240.556 41.238C240.964 40.662 241.168 39.762 241.168 38.538C241.168 37.314 240.964 36.414 240.556 35.838C240.16 35.262 239.524 34.974 238.648 34.974C236.956 34.974 236.11 36.162 236.11 38.538ZM247.275 45V32.058H253.467C255.363 32.058 256.725 32.334 257.553 32.886C258.429 33.462 258.867 34.428 258.867 35.784C258.867 37.32 258.171 38.388 256.779 38.988C257.499 39.144 258.021 39.444 258.345 39.888C258.669 40.332 258.849 40.992 258.885 41.868L258.957 43.668C258.969 43.992 258.987 44.196 259.011 44.28C259.059 44.424 259.167 44.502 259.335 44.514V45H255.141C254.985 44.364 254.907 43.914 254.907 43.65V42.354C254.907 41.682 254.775 41.214 254.511 40.95C254.247 40.674 253.791 40.536 253.143 40.536H251.379V45H247.275ZM251.379 37.62H253.269C253.893 37.62 254.337 37.536 254.601 37.368C254.877 37.2 255.015 36.882 255.015 36.414C255.015 35.874 254.823 35.52 254.439 35.352C254.199 35.244 253.773 35.19 253.161 35.19H251.379V37.62ZM263.721 45V35.46H259.995V32.058H271.533V35.46H267.879V45H263.721ZM95.224 67V54.058H105.016V57.316H99.382V59.314H103.864V62.446H99.382V67H95.224ZM106.597 67V54.058H116.947V57.154H110.755V58.882H115.993V61.852H110.755V63.85H117.199V67H106.597ZM119.148 67V54.058H124.17C125.274 54.058 126.102 54.094 126.654 54.166C127.446 54.274 128.112 54.484 128.652 54.796C130.452 55.84 131.352 57.754 131.352 60.538C131.352 63.49 130.248 65.464 128.04 66.46C127.236 66.82 125.688 67 123.396 67H119.148ZM123.306 63.724H124.422C125.454 63.724 126.168 63.496 126.564 63.04C126.972 62.572 127.176 61.738 127.176 60.538C127.176 59.374 126.972 58.552 126.564 58.072C126.156 57.58 125.46 57.334 124.476 57.334H123.306V63.724ZM133.263 67V54.058H143.613V57.154H137.421V58.882H142.659V61.852H137.421V63.85H143.865V67H133.263ZM145.814 67V54.058H152.006C153.902 54.058 155.264 54.334 156.092 54.886C156.968 55.462 157.406 56.428 157.406 57.784C157.406 59.32 156.71 60.388 155.318 60.988C156.038 61.144 156.56 61.444 156.884 61.888C157.208 62.332 157.388 62.992 157.424 63.868L157.496 65.668C157.508 65.992 157.526 66.196 157.55 66.28C157.598 66.424 157.706 66.502 157.874 66.514V67H153.68C153.524 66.364 153.446 65.914 153.446 65.65V64.354C153.446 63.682 153.314 63.214 153.05 62.95C152.786 62.674 152.33 62.536 151.682 62.536H149.918V67H145.814ZM149.918 59.62H151.808C152.432 59.62 152.876 59.536 153.14 59.368C153.416 59.2 153.554 58.882 153.554 58.414C153.554 57.874 153.362 57.52 152.978 57.352C152.738 57.244 152.312 57.19 151.7 57.19H149.918V59.62ZM158.264 67L162.818 54.058H167.03L171.584 67H167.462L166.976 65.29H162.854L162.35 67H158.264ZM163.61 62.572H166.22L164.924 58.09L163.61 62.572ZM175.497 67V57.46H171.771V54.058H183.309V57.46H179.655V67H175.497ZM184.804 67V54.058H189.034V67H184.804ZM191.012 60.538C191.012 58.426 191.612 56.764 192.812 55.552C194.024 54.328 195.668 53.716 197.744 53.716C199.82 53.716 201.458 54.328 202.658 55.552C203.858 56.764 204.458 58.426 204.458 60.538C204.458 62.65 203.858 64.318 202.658 65.542C201.458 66.754 199.82 67.36 197.744 67.36C195.668 67.36 194.024 66.754 192.812 65.542C191.612 64.318 191.012 62.65 191.012 60.538ZM195.206 60.538C195.206 62.914 196.052 64.102 197.744 64.102C198.62 64.102 199.256 63.814 199.652 63.238C200.06 62.662 200.264 61.762 200.264 60.538C200.264 59.314 200.06 58.414 199.652 57.838C199.256 57.262 198.62 56.974 197.744 56.974C196.052 56.974 195.206 58.162 195.206 60.538ZM206.37 67V54.058H210.312L213.948 60.07C214.176 60.454 214.428 61.072 214.704 61.924C214.632 61.48 214.596 60.892 214.596 60.16V54.058H218.556V67H214.596L210.96 61.024C210.732 60.652 210.48 60.034 210.204 59.17C210.276 59.602 210.312 60.19 210.312 60.934V67H206.37Z" fill="white"/>
</g>
<defs>
<filter id="filter0_d" x="92.6113" y="8.71582" width="180.921" height="61.644" filterUnits="userSpaceOnUse" color-interpolation-filters="sRGB">
<feFlood flood-opacity="0" result="BackgroundImageFix"/>
<feColorMatrix in="SourceAlpha" type="matrix" values="0 0 0 0 0 0 0 0 0 0 0 0 0 0 0 0 0 0 127 0"/>
<feOffset dy="1"/>
<feGaussianBlur stdDeviation="1"/>
<feColorMatrix type="matrix" values="0 0 0 0 0 0 0 0 0 0 0 0 0 0 0 0 0 0 0.75 0"/>
<feBlend mode="normal" in2="BackgroundImageFix" result="effect1_dropShadow"/>
<feBlend mode="normal" in="SourceGraphic" in2="effect1_dropShadow" result="shape"/>
</filter>
</defs>
</svg>
