<svg width="53" height="53" viewBox="0 0 53 53" fill="none" xmlns="http://www.w3.org/2000/svg">
<path d="M51.1859 14.3428L37.6834 0.31241C37.4912 0.112832 37.226 0 36.949 0H16.8245C14.5723 0 12.74 1.83161 12.74 4.08286V18.3462H4.58433C2.8993 18.3462 1.52844 19.7166 1.52844 21.4012V36.695C1.52844 38.3796 2.8993 39.75 4.58433 39.75H12.74V48.9243C12.74 51.1716 14.5723 53 16.8245 53H47.3863C49.6385 53 51.4708 51.1726 51.4708 48.9266V15.0496C51.4708 14.7861 51.3686 14.5328 51.1859 14.3428ZM37.2016 2.75155L48.2859 14.2692H37.2016V2.75155ZM4.58433 37.7116C4.02327 37.7116 3.56698 37.2556 3.56698 36.695V21.4012C3.56698 20.8407 4.02338 20.3846 4.58433 20.3846H32.1073C32.6683 20.3846 33.1246 20.8407 33.1246 21.4012V36.695C33.1246 37.2556 32.6682 37.7116 32.1073 37.7116H4.58433ZM49.4323 48.9266C49.4323 50.0487 48.5144 50.9616 47.3862 50.9616H16.8245C15.6963 50.9616 14.7784 50.0477 14.7784 48.9244V39.75H32.1073C33.7923 39.75 35.1632 38.3796 35.1632 36.695V21.4012C35.1632 19.7166 33.7923 18.3462 32.1073 18.3462H14.7784V4.08286C14.7784 2.95547 15.6963 2.03843 16.8245 2.03843H35.163V15.2884C35.163 15.8513 35.6194 16.3076 36.1823 16.3076H49.4323V48.9266Z" fill="#FF3D00"/>
<path d="M13.7142 25.8678C13.3758 25.4278 12.9557 25.1421 12.4541 25.0108C12.1276 24.9232 11.4269 24.8794 10.3519 24.8794H7.51514V33.6344H9.28287V30.3319H10.4355C11.2358 30.3319 11.847 30.29 12.269 30.2064C12.5795 30.1387 12.8851 30.0004 13.1857 29.7913C13.4863 29.5823 13.7341 29.2946 13.9293 28.9284C14.1244 28.5622 14.2219 28.1102 14.2219 27.5728C14.2218 26.876 14.0526 26.3077 13.7142 25.8678ZM12.2003 28.2775C12.0669 28.4726 11.8828 28.6159 11.6478 28.7075C11.4128 28.7991 10.9471 28.8449 10.2503 28.8449H9.28287V26.3605H10.1369C10.7739 26.3605 11.1979 26.3804 11.4089 26.4202C11.6955 26.472 11.9325 26.6014 12.1195 26.8084C12.3067 27.0154 12.4002 27.2783 12.4002 27.5967C12.4003 27.8555 12.3336 28.0824 12.2003 28.2775Z" fill="#FF3D00"/>
<path d="M22.7199 27.2712C22.5288 26.7118 22.2501 26.2391 21.8838 25.8529C21.5176 25.4666 21.0775 25.1979 20.564 25.0466C20.1818 24.9351 19.6263 24.8794 18.8978 24.8794H15.6669V33.6344H18.9933C19.6463 33.6344 20.1678 33.5727 20.558 33.4492C21.0796 33.2821 21.4937 33.0491 21.8002 32.7505C22.2063 32.3563 22.5188 31.8408 22.7378 31.2038C22.917 30.6822 23.0065 30.0611 23.0065 29.3405C23.0065 28.5203 22.911 27.8306 22.7199 27.2712ZM20.9999 30.8664C20.8804 31.2586 20.7262 31.5403 20.5371 31.7114C20.348 31.8826 20.1101 32.0041 19.8234 32.0757C19.6045 32.1315 19.2481 32.1593 18.7544 32.1593H17.4346V26.3605H18.2289C18.9495 26.3605 19.4333 26.3883 19.6801 26.4441C20.0105 26.5158 20.2833 26.6531 20.4983 26.8562C20.7133 27.0593 20.8804 27.3419 20.9999 27.7042C21.1194 28.0665 21.1791 28.5861 21.1791 29.263C21.1791 29.9397 21.1194 30.4742 20.9999 30.8664Z" fill="#FF3D00"/>
<path d="M30.5191 26.3605V24.8794H24.5172V33.6344H26.2849V29.9139H29.9399V28.4328H26.2849V26.3605H30.5191Z" fill="#FF3D00"/>
</svg>
